<svg width="221" height="221" viewBox="0 0 221 221" fill="none" xmlns="http://www.w3.org/2000/svg">
<g id="backend 1" clip-path="url(#clip0_4_320)">
<g id="Background">
<g id="Group">
<g id="Group_2">
<path id="Vector" d="M220.667 0.40625H0.666748V220.406H220.667V0.40625Z" fill="white"/>
</g>
</g>
</g>
<g id="Illustration">
<g id="Group_3">
<path id="Vector_2" d="M185.812 73.408C190.122 34.1543 152.066 20.5169 125.087 30.5675C97.8894 40.6996 91.5841 23.9038 53.3398 28.7026C14.6155 33.5617 34.2764 94.3492 34.2764 94.3492C34.2764 94.3492 40.438 147.208 47.738 171.573C54.9984 195.805 124.496 187.038 141.402 186.315C158.211 185.596 172.818 186.984 187.442 160.376C202.04 133.817 181.517 112.532 185.812 73.408Z" fill="#F4F7FA"/>
<path id="Vector_3" opacity="0.3" d="M172.705 63.8487L169.565 64.0605C169.204 62.6594 168.731 61.3059 168.144 60.0156L170.749 58.2674C171.459 57.7904 171.642 56.8252 171.157 56.1112L168.118 51.641C167.632 50.9254 166.66 50.7307 165.947 51.2066L163.307 52.9685C162.304 51.9412 161.215 50.9991 160.05 50.1553L161.442 47.2971C161.818 46.5264 161.489 45.5904 160.708 45.2062L155.817 42.7991C155.033 42.4135 154.092 42.7264 153.714 43.4986L152.312 46.3659C150.941 45.967 149.523 45.6875 148.071 45.5262L147.827 42.3106C147.761 41.4473 147.001 40.7892 146.129 40.8406L140.661 41.1631C139.785 41.2148 139.128 41.9586 139.193 42.8243L139.438 46.0494C138.014 46.386 136.639 46.837 135.326 47.4019L133.482 44.7132C132.985 43.9881 131.99 43.789 131.259 44.2686L126.683 47.2739C125.95 47.7553 125.76 48.7348 126.26 49.4609L128.111 52.1502C127.06 53.1432 126.1 54.2264 125.239 55.3856L122.278 53.9553C121.477 53.568 120.513 53.8884 120.126 54.6713L117.704 59.5723C117.316 60.3569 117.653 61.306 118.457 61.6918L121.396 63.1024C120.995 64.4798 120.72 65.9062 120.568 67.3656L117.314 67.5852C116.424 67.6452 115.755 68.402 115.821 69.2753L116.235 74.7366C116.302 75.6098 117.078 76.2669 117.968 76.2043L121.196 75.9771C121.56 77.4093 122.044 78.7909 122.644 80.1074L119.989 81.8796C119.252 82.3716 119.061 83.3571 119.563 84.0803L122.701 88.5982C123.202 89.3198 124.204 89.5047 124.939 89.0115L127.573 87.2436C128.607 88.2906 129.733 89.2444 130.934 90.0966L129.558 92.9131C129.173 93.7002 129.508 94.6435 130.306 95.0194L135.289 97.3658C136.084 97.7404 137.039 97.4067 137.421 96.621L138.78 93.8309C140.186 94.2202 141.639 94.4828 143.124 94.6229L143.358 97.7071C143.424 98.5729 144.187 99.2189 145.062 99.1498L150.521 98.7191C151.392 98.6504 152.045 97.8948 151.979 97.0316L151.746 93.9565C153.182 93.5917 154.567 93.1118 155.883 92.5156L157.626 95.0487C158.116 95.761 159.095 95.9417 159.812 95.4526L164.29 92.3997C165.004 91.9124 165.188 90.9412 164.7 90.23L162.952 87.6816C163.988 86.6717 164.932 85.5751 165.774 84.4025L168.568 85.7435C169.345 86.1166 170.278 85.7907 170.651 85.0158L172.983 80.1755C173.355 79.4023 173.029 78.4722 172.253 78.0976L169.454 76.7453C169.835 75.3804 170.095 73.969 170.232 72.5255L173.347 72.3062C174.204 72.2459 174.845 71.5031 174.78 70.6471L174.374 65.2941C174.309 64.4379 173.562 63.7909 172.705 63.8487ZM144.401 54.23C153.201 53.6711 160.83 60.2596 161.489 68.9429C162.148 77.6261 155.593 85.1926 146.801 85.8466C137.955 86.5046 130.204 79.9244 129.538 71.1459C128.872 62.3671 135.548 54.7923 144.401 54.23Z" fill="#BFC8D6"/>
<g id="Group_4">
<g id="Group_5">
<g id="Group_6">
<path id="Vector_4" d="M122.815 136.172C117.716 131.387 110.988 123.616 107.944 112.627C103.951 98.2166 109.802 90.9343 109.142 66.5363C108.725 51.1098 108.278 40.3481 100.501 34.5919C94.4065 30.0811 84.5397 29.1843 78.5515 33.3654C73.5725 36.8419 70.6921 44.2359 69.8132 49.5137C69.0968 53.8152 69.6721 56.9384 67.1926 59.2043C64.6586 61.52 61.923 60.209 59.5536 61.9241C54.7484 65.4024 57.5308 76.9241 57.9804 78.7862C62.9827 99.5001 82.0687 113.47 90.4675 119.464C97.4119 124.419 108.155 131.023 122.815 136.172Z" fill="#D8DEE8"/>
<g id="Clip path group">
<mask id="mask0_4_320" style="mask-type:luminance" maskUnits="userSpaceOnUse" x="56" y="30" width="67" height="107">
<g id="SVGID_00000080921900248857402280000003789226695181550499_">
<path id="Vector_5" d="M122.815 136.172C117.716 131.387 110.988 123.616 107.944 112.627C103.951 98.2166 109.802 90.9343 109.142 66.5363C108.725 51.1098 108.278 40.3481 100.501 34.5919C94.4065 30.0811 84.5397 29.1843 78.5515 33.3654C73.5725 36.8419 70.6921 44.2359 69.8132 49.5137C69.0968 53.8152 69.6721 56.9384 67.1926 59.2043C64.6586 61.52 61.923 60.209 59.5536 61.9241C54.7484 65.4024 57.5308 76.9241 57.9804 78.7862C62.9827 99.5001 82.0687 113.47 90.4675 119.464C97.4119 124.419 108.155 131.023 122.815 136.172Z" fill="white"/>
</g>
</mask>
<g mask="url(#mask0_4_320)">
<g id="Group_7" opacity="0.5">
<g id="Group_8">
<path id="Vector_6" d="M128.647 139.987C119.757 136.609 112.106 132.58 105.905 128.01C96.7271 121.246 91.0106 113.476 88.9145 104.915C87.2753 98.2198 87.8833 90.9638 88.6531 81.7774C89.2913 74.1624 90.4294 68.8276 91.4336 64.1207C92.7349 58.0207 93.7628 53.2026 93.0495 46.236C92.3248 39.1583 89.9899 32.1199 86.1096 25.3162L86.4568 25.1182C90.3648 31.9705 92.7166 39.0618 93.4471 46.1952C94.1668 53.2244 93.1332 58.0697 91.8245 64.204C90.8227 68.8993 89.6874 74.221 89.0515 81.8108C88.2547 91.3186 87.6789 98.1881 89.3027 104.82C91.376 113.288 97.0416 120.982 106.142 127.689C112.314 132.236 119.933 136.249 128.789 139.614L128.647 139.987Z" fill="white"/>
</g>
<g id="Group_9">
<path id="Vector_7" d="M89.3306 76.4394L89.2661 76.2231C85.1617 62.4459 77.7917 53.8262 72.3318 49.0211C66.421 43.8195 61.4263 41.8509 61.3765 41.8317L61.5209 41.459C61.5713 41.4786 66.6323 43.4731 72.5958 48.7212C78.0659 53.5351 85.4386 62.1479 89.5828 75.8876C90.5734 75.4143 94.9892 73.1583 99.4076 68.6071C104.009 63.867 109.557 55.5932 109.853 43.0951L110.252 43.1044C109.953 55.7398 104.339 64.1051 99.6824 68.8977C94.6367 74.0905 89.5879 76.3272 89.5375 76.3492L89.3306 76.4394Z" fill="white"/>
</g>
<g id="Group_10">
<path id="Vector_8" d="M88.1771 96.9943L88.0378 96.9534C81.3371 94.9868 73.7315 87.2739 65.432 74.0292C59.2624 64.1835 54.9994 54.7914 54.957 54.6977L55.3212 54.5332C55.3634 54.6266 59.6173 63.9976 65.773 73.8208C71.4097 82.8156 79.8307 94.0294 88.0125 96.5286C88.6932 95.5508 93.4494 88.8232 99.4566 82.9291C105.952 76.556 121.071 74.3551 121.223 74.3336L121.278 74.7294C121.128 74.7506 106.138 76.9336 99.7365 83.2144C93.3026 89.5271 88.3088 96.8018 88.2592 96.8745L88.1771 96.9943Z" fill="white"/>
</g>
<g id="Group_11">
<path id="Vector_9" d="M103.418 126.14L103.023 126.093C102.948 126.084 95.4129 125.161 85.5713 121.73C76.4862 118.562 63.5162 112.547 53.3202 101.879L33.6355 81.2837L33.9245 81.0076L53.6092 101.603C63.7502 112.213 76.6593 118.199 85.703 121.353C94.2279 124.325 101.006 125.406 102.675 125.643C100.566 121.826 99.8044 117.842 100.41 113.795C100.909 110.463 102.33 107.086 104.634 103.756C108.549 98.0998 113.736 94.4861 113.788 94.4502L114.015 94.7792C113.964 94.8146 108.829 98.3932 104.957 103.992C102.69 107.271 101.293 110.59 100.804 113.86C100.195 117.938 101.008 121.953 103.219 125.795L103.418 126.14Z" fill="white"/>
</g>
</g>
</g>
</g>
</g>
</g>
<g id="Group_12">
<g id="Group_13">
<path id="Vector_10" d="M95.4281 135.834C84.388 135.928 70.3107 134.474 56.8197 128.4C53.3768 126.85 32.1079 117.276 34.6006 107.592C35.4786 104.181 38.5635 103.637 39.8171 99.0973C41.3026 93.7176 37.9222 91.0378 35.5704 84.3407C34.1671 80.3445 30.0602 68.6498 37.0594 62.158C41.242 58.2788 49.2012 56.433 55.2644 57.8371C64.1579 59.8965 67.2297 68.5443 72.1741 83.2664C76.5571 96.3169 75.4427 99.5244 78.7629 108.867C81.227 115.801 85.8606 125.345 95.4281 135.834Z" fill="url(#paint0_linear_4_320)"/>
<g id="Clip path group_2">
<mask id="mask1_4_320" style="mask-type:luminance" maskUnits="userSpaceOnUse" x="33" y="57" width="63" height="79">
<g id="SVGID_00000101074101238515379410000017890199737906816650_">
<path id="Vector_11" d="M95.4281 135.834C84.388 135.928 70.3107 134.474 56.8197 128.4C53.3768 126.85 32.1079 117.276 34.6006 107.592C35.4786 104.181 38.5635 103.637 39.8171 99.0973C41.3026 93.7176 37.9222 91.0378 35.5704 84.3407C34.1671 80.3445 30.0602 68.6498 37.0594 62.158C41.242 58.2788 49.2012 56.433 55.2644 57.8371C64.1579 59.8965 67.2297 68.5443 72.1741 83.2664C76.5571 96.3169 75.4427 99.5244 78.7629 108.867C81.227 115.801 85.8606 125.345 95.4281 135.834Z" fill="white"/>
</g>
</mask>
<g mask="url(#mask1_4_320)">
<g id="Group_14" opacity="0.5">
<g id="Group_15">
<path id="Vector_12" d="M123.049 141.751C117.774 141.751 112.603 141.148 107.562 139.942C92.6583 136.374 79.7248 127.479 69.1209 113.503C58.0976 98.9749 52.3523 82.5915 49.4736 71.4057C47.468 63.6125 47.8348 54.9864 50.5637 45.767L50.947 45.8804C48.2389 55.0295 47.8733 63.5839 49.8606 71.3062C52.7302 82.4563 58.4562 98.7864 69.4393 113.262C79.9859 127.162 92.8436 136.007 107.655 139.553C118.774 142.214 130.539 141.92 142.625 138.68L142.728 139.066C136.055 140.855 129.475 141.751 123.049 141.751Z" fill="white"/>
</g>
<g id="Group_16">
<path id="Vector_13" d="M57.409 93.4754L57.258 93.378C33.4325 78.029 33.6437 60.3279 34.2758 55.2682C34.2884 55.1682 34.2972 55.1033 34.2979 55.0755L34.6976 55.0728C34.698 55.1114 34.6914 55.1659 34.6725 55.3178C34.0489 60.3079 33.848 77.744 57.3212 92.9431C57.8925 92.2001 60.5661 88.5903 62.7695 83.3726C65.0438 77.9869 67.2684 69.7352 64.9507 61.0092L65.3369 60.9065C67.6848 69.7461 65.4342 78.0933 63.133 83.5392C60.6418 89.4341 57.5527 93.2972 57.5217 93.3356L57.409 93.4754Z" fill="white"/>
</g>
<g id="Group_17">
<path id="Vector_14" d="M60.0645 114.036C50.5779 114.036 43.9472 111.561 39.7565 109.171C36.6852 107.42 34.5689 105.526 33.3343 104.246C31.9919 102.854 31.3856 101.888 31.3604 101.848L31.6996 101.637C31.7237 101.675 34.1735 105.533 39.9771 108.837C49.6418 114.339 61.0518 114.122 68.9604 112.958C69.5199 111.712 75.1522 98.6455 73.8072 81.1648L72.3787 62.5981L72.7772 62.5674L74.2057 81.1342C75.622 99.5409 69.3414 113.091 69.2778 113.225L69.2321 113.322L69.1265 113.338C65.8551 113.824 62.8375 114.036 60.0645 114.036Z" fill="white"/>
</g>
</g>
</g>
</g>
</g>
</g>
</g>
<g id="Group_18">
<g id="Group_19">
<path id="Vector_15" d="M124.327 174.988C122.366 174.338 120.901 172.673 120.487 170.628L117.633 156.502L93.2183 157.369L90.2135 172.085C89.7927 174.146 91.4772 176.214 93.4173 176.973L103.632 180.969C105.532 181.713 107.574 182.009 109.604 181.835L131.191 179.988C131.822 179.934 132.328 179.438 132.402 178.802C132.475 178.165 132.917 177.451 132.316 177.251L124.327 174.988Z" fill="#97A6B7"/>
<path id="Vector_16" d="M124.569 174.129C122.61 173.487 121.146 171.843 120.733 169.823L117.881 155.875L94.0616 156.732L91.0598 171.263C90.6395 173.298 91.7517 175.339 93.6899 176.089L103.894 180.035C105.792 180.769 107.832 181.061 109.86 180.89L131.426 179.066C132.056 179.013 132.562 178.523 132.635 177.895C132.708 177.266 132.329 176.673 131.728 176.476L124.569 174.129Z" fill="url(#paint1_linear_4_320)"/>
</g>
<g id="Group_20">
<g id="Group_21">
<path id="Vector_17" d="M43.3298 165.891C40.6821 166.049 38.5161 164.331 38.5161 162.061V80.2493C38.5161 77.9795 40.6821 76.2266 43.3298 76.3413L165.772 81.6466C167.716 81.7308 169.29 83.3697 169.29 85.3002V154.88C169.29 156.811 167.716 158.475 165.772 158.591L43.3298 165.891Z" fill="url(#paint2_linear_4_320)"/>
<path id="Vector_18" d="M44.4301 165.891C41.7825 166.049 39.6165 164.331 39.6165 162.061V80.2493C39.6165 77.9795 41.7825 76.2266 44.4301 76.3413L166.872 81.6466C168.816 81.7308 170.39 83.3697 170.39 85.3002V154.88C170.39 156.811 168.816 158.475 166.872 158.591L44.4301 165.891Z" fill="url(#paint3_linear_4_320)"/>
<path id="Vector_19" opacity="0.3" d="M166.872 83.2842L44.4302 78.2471C43.0148 78.1889 41.864 79.1241 41.864 80.3362V143.964V161.938C41.864 163.15 43.0148 164.066 44.4302 163.985L166.872 156.954C167.914 156.894 168.757 156.006 168.757 154.97V139.064V85.2372C168.757 84.2013 167.914 83.327 166.872 83.2842Z" fill="#D8DEE8"/>
<path id="Vector_20" d="M44.43 157.035C43.879 157.062 43.4302 156.701 43.4302 156.229V80.3966C43.4302 79.9253 43.879 79.5593 44.43 79.5812L166.872 84.4305C167.279 84.4465 167.609 84.7886 167.609 85.1928V150.212C167.609 150.616 167.279 150.962 166.872 150.982L44.43 157.035Z" fill="#D8DEE8"/>
</g>
<path id="Vector_21" opacity="0.6" d="M154.09 153.527C143.789 147.155 150.984 129.038 139.415 119.935C127.752 110.758 111.341 122.014 103.171 112.51C97.0884 105.433 104.206 96.8883 98.3979 90.233C89.2892 79.7961 65.9716 94.1503 55.2588 83.8683C53.7377 82.4084 52.2028 80.1936 51.3293 76.6403L44.4301 76.3414C41.7825 76.2266 39.6165 77.9796 39.6165 80.2494V162.061C39.6165 164.331 41.7825 166.049 44.4301 165.891L166.872 158.591C168.816 158.476 170.39 156.811 170.39 154.881V153.643C162.26 156.402 157.29 155.507 154.09 153.527Z" fill="white"/>
</g>
</g>
<g id="Group_22">
<g id="Group_23">
<path id="Vector_22" d="M151.891 70.9089L63.3138 67.8405C60.337 67.7374 57.9133 70.1241 57.9133 73.1718V139.254C57.9133 142.302 60.337 144.707 63.3138 144.626L151.891 142.231C154.448 142.161 156.512 139.83 156.512 137.022V76.1521C156.512 73.3447 154.448 70.9974 151.891 70.9089Z" fill="url(#paint4_linear_4_320)"/>
<path id="Vector_23" opacity="0.74" d="M59.6428 137.859V74.5795C59.6428 71.7593 61.8828 69.5474 64.635 69.6389L150.749 72.5006C153.123 72.5794 155.041 74.7548 155.041 77.3595V135.804C155.041 138.409 153.123 140.569 150.749 140.63L64.635 142.838C61.8829 142.908 59.6428 140.68 59.6428 137.859Z" fill="white"/>
<path id="Vector_24" d="M151.891 70.9089L63.3138 67.8405C60.337 67.7374 57.9133 70.1241 57.9133 73.1718V77.1303L156.512 79.7984V76.1521C156.512 73.3447 154.448 70.9974 151.891 70.9089Z" fill="url(#paint5_linear_4_320)"/>
<path id="Vector_25" d="M67.5147 72.9315C67.5147 73.9213 66.7316 74.7008 65.7642 74.6726C64.7953 74.6443 64.0088 73.8167 64.0088 72.8241C64.0088 71.8314 64.7953 71.052 65.7642 71.0831C66.7315 71.1142 67.5147 71.9417 67.5147 72.9315Z" fill="white"/>
<path id="Vector_26" d="M73.6237 73.1187C73.6237 74.1036 72.8483 74.8795 71.8905 74.8515C70.9311 74.8235 70.1523 74 70.1523 73.0123C70.1523 72.0246 70.9311 71.2489 71.8905 71.2797C72.8483 71.3105 73.6237 72.1338 73.6237 73.1187Z" fill="white"/>
<path id="Vector_27" d="M79.673 73.3042C79.673 74.2843 78.9052 75.0564 77.9567 75.0287C77.0067 75.0009 76.2356 74.1816 76.2356 73.1988C76.2356 72.216 77.0068 71.444 77.9567 71.4744C78.9051 71.5049 79.673 72.3241 79.673 73.3042Z" fill="white"/>
<path id="Vector_28" d="M151.119 119.379L64.2083 120.012V93.8897L151.119 95.0825V119.379Z" fill="url(#paint6_linear_4_320)"/>
<path id="Vector_29" d="M151.119 125.514L64.2083 126.608V123.803L151.119 122.905V125.514Z" fill="white"/>
<path id="Vector_30" d="M151.119 131.915L64.2083 133.489V130.684L151.119 129.306V131.915Z" fill="white"/>
<g id="Group_24">
<path id="Vector_31" d="M111.039 88.1845L64.2083 87.2935V90.0985L111.039 90.884V88.1845Z" fill="white"/>
<path id="Vector_32" d="M146.179 88.8531V91.4733L151.119 91.5562V88.9471L146.179 88.8531Z" fill="white"/>
</g>
<g id="Group_25" opacity="0.5">
<path id="Vector_33" d="M117.505 104.668C107.162 89.3305 89.2467 94.1992 77.9055 77.2379C75.8595 74.178 74.471 71.0649 73.5187 68.1941L63.3138 67.8406C60.337 67.7375 57.9133 70.1241 57.9133 73.1718V139.254C57.9133 142.302 60.3371 144.707 63.3138 144.626L130.749 142.802C128.737 139.857 126.88 136.564 125.307 132.882C119.277 118.761 123.743 113.918 117.505 104.668Z" fill="white"/>
</g>
<g id="Group_26">
<path id="Vector_34" d="M76.385 100.426L65.7617 100.327V97.2247L76.385 97.349V100.426Z" fill="white"/>
<path id="Vector_35" d="M132.957 100.952L83.1614 100.489V97.4283L132.957 98.0109V100.952Z" fill="white"/>
<path id="Vector_36" d="M93.5013 105.771L83.1614 105.717V102.656L93.5013 102.735V105.771Z" fill="white"/>
<path id="Vector_37" d="M148.603 106.057L100.098 105.805V102.785L148.603 103.153V106.057Z" fill="white"/>
<path id="Vector_38" d="M93.5013 110.956L83.1614 110.945V107.884L93.5013 107.92V110.956Z" fill="white"/>
<path id="Vector_39" d="M148.603 111.016L100.098 110.963V107.943L148.603 108.113V111.016Z" fill="white"/>
<path id="Vector_40" d="M76.385 116.193L65.7617 116.226V113.123L76.385 113.116V116.193Z" fill="white"/>
<path id="Vector_41" d="M132.957 116.022L83.1614 116.173V113.112L132.957 113.082V116.022Z" fill="white"/>
</g>
</g>
</g>
<g id="Group_27">
<g id="Group_28">
<path id="Vector_42" d="M137.449 50.2178L137.427 69.0738L137.423 72.1014C137.421 73.8769 136.213 73.4444 134.572 73.4126L128.532 73.4847L127.744 73.4947L122.296 73.5603L121.4 73.5718L87.3227 73.9798L87.0995 73.9827C85.3023 73.9412 83.8308 72.3836 83.8308 70.5202L83.8269 47.5449C83.8269 45.7158 85.244 44.2556 86.995 44.2944L87.0974 44.2966L88.3962 44.3682L134.472 46.8507C136.113 46.9235 137.451 48.4403 137.449 50.2178Z" fill="url(#paint7_linear_4_320)"/>
<path id="Vector_43" d="M128.567 72.3323L127.744 73.4947L126.618 75.0847L122.291 81.1965L121.418 80.7817L121.404 74.9441L121.4 73.5717L121.396 71.8573L122.299 71.9163L128.567 72.3323Z" fill="url(#paint8_linear_4_320)"/>
<path id="Vector_44" d="M138.415 50.1529L138.391 69.0516L138.387 72.1477C138.385 73.9313 137.038 75.3597 135.391 75.3216L127.224 75.1007L126.618 75.0847L122.296 74.9687L121.404 74.9441L87.8534 74.0382C87.6725 74.034 87.4956 74.0159 87.3226 73.9797C85.7707 73.6825 84.5746 72.2438 84.5746 70.5614L84.5706 47.4795C84.5706 45.9117 85.6038 44.6321 86.9949 44.2993C87.2683 44.233 87.5559 44.2052 87.8513 44.2178L88.3983 44.2481L135.425 46.7726C137.072 46.8455 138.417 48.3673 138.415 50.1529Z" fill="url(#paint9_linear_4_320)"/>
<path id="Vector_45" d="M129.495 72.2939L128.531 73.485L127.224 75.1009L122.289 81.1972L122.294 74.9701V73.5615V71.9175V71.8209L129.495 72.2939Z" fill="url(#paint10_linear_4_320)"/>
</g>
<g id="Group_29">
<path id="Vector_46" d="M107.376 64.6747L98.8032 59.867V58.4077L107.376 53.9472V56.3378L101.516 59.1773L107.376 62.2942V64.6747Z" fill="white"/>
<path id="Vector_47" d="M115.816 52.77L111.386 66.8317L109.09 66.7544L113.579 52.6015L115.816 52.77Z" fill="white"/>
<path id="Vector_48" d="M117.417 62.7586L122.769 60.3303L117.417 56.9732V54.6513L125.132 59.8819V61.2339L117.417 65.0708V62.7586Z" fill="white"/>
</g>
<path id="Vector_49" opacity="0.2" d="M138.391 69.0516L138.387 72.1477C138.385 73.9313 137.038 75.3597 135.391 75.3216L127.224 75.1007L122.29 81.1964L121.418 80.7817L121.404 74.9441L87.8534 74.0382C87.6725 74.034 87.4956 74.0159 87.3227 73.9797L87.0995 73.9826C85.3023 73.9411 83.8308 72.3835 83.8308 70.5201L83.8269 47.5473C83.8269 45.7181 85.244 44.2783 86.995 44.2992C87.2683 44.2329 87.5559 44.2052 87.8514 44.2178L88.3983 44.248C88.3962 44.2882 88.3962 44.3284 88.3962 44.3707C88.3822 48.8754 90.0692 55.2802 99.5724 56.0336C114.418 57.2098 118.246 60.5135 123.825 67.0634C127.47 71.3409 133.067 69.3179 137.427 69.0737C137.756 69.0551 138.078 69.0465 138.391 69.0516Z" fill="url(#paint11_linear_4_320)"/>
</g>
<g id="Group_30">
<path id="Vector_50" d="M167.341 123.364C173.7 123.559 179.041 127.442 180.082 132.356C180.083 132.363 180.084 132.369 180.086 132.376C180.142 132.645 180.185 132.917 180.215 133.192C180.217 133.21 180.219 133.228 180.221 133.246C180.235 133.374 180.245 133.503 180.252 133.633C180.253 133.656 180.254 133.68 180.255 133.703C180.262 133.836 180.266 133.968 180.266 134.102C180.266 139.813 174.437 144.141 167.341 143.774C167.152 143.764 166.965 143.751 166.778 143.734C166.76 143.733 166.741 143.732 166.723 143.73C166.546 143.714 166.371 143.695 166.196 143.673C166.169 143.67 166.142 143.667 166.115 143.663C165.946 143.642 165.778 143.617 165.611 143.59C165.58 143.585 165.548 143.58 165.517 143.575C165.353 143.548 165.19 143.518 165.029 143.486C164.996 143.479 164.964 143.472 164.931 143.466C164.77 143.433 164.61 143.398 164.452 143.36C164.421 143.353 164.391 143.345 164.36 143.337C164.203 143.299 164.046 143.259 163.891 143.216C163.863 143.208 163.836 143.2 163.808 143.192C163.668 143.152 163.53 143.111 163.393 143.068C163.358 143.057 163.323 143.046 163.288 143.035C163.148 142.99 163.011 142.943 162.873 142.894C162.844 142.884 162.813 142.875 162.784 142.864C162.784 142.864 162.785 142.863 162.785 142.863C158.068 141.162 154.752 137.332 154.752 133.05C154.752 127.487 160.348 123.149 167.341 123.364Z" fill="url(#paint12_linear_4_320)"/>
<path id="Vector_51" d="M153.406 133.05C153.406 138.613 159.001 143.412 165.995 143.774C173.091 144.141 178.92 139.813 178.92 134.102C178.92 128.391 173.091 123.582 165.995 123.364C159.001 123.149 153.406 127.487 153.406 133.05Z" fill="url(#paint13_linear_4_320)"/>
<g id="Group_31">
<path id="Vector_52" d="M171.65 130.002V138.152L164.663 141.312L164.626 141.256L158.932 137.156L158.982 130.437L164.727 126.63L164.718 126.578L171.65 130.002Z" fill="white"/>
<path id="Vector_53" d="M164.731 126.627L164.675 141.262L158.938 137.156L158.984 130.437L164.731 126.627Z" fill="#F4F7FA"/>
</g>
<g id="Group_32" opacity="0.3">
<path id="Vector_54" d="M162.908 141.023C164.439 138.09 162.891 135.21 164.963 133.354C167.076 131.46 169.837 133.414 172.825 131.914C173.985 131.331 175.279 130.178 176.242 127.735C177.92 129.532 178.92 131.743 178.92 134.102C178.92 139.813 173.091 144.141 165.995 143.774C164.384 143.691 162.848 143.372 161.438 142.864C162.132 142.26 162.593 141.627 162.908 141.023Z" fill="url(#paint14_linear_4_320)"/>
</g>
</g>
<g id="Group_33">
<path id="Vector_55" d="M167.8 66.3148C174.159 66.5099 179.5 70.3925 180.541 75.3072C180.542 75.3136 180.543 75.3201 180.545 75.3265C180.601 75.5955 180.644 75.8676 180.674 76.1424C180.676 76.1605 180.678 76.1786 180.68 76.1968C180.694 76.3252 180.704 76.4542 180.711 76.5837C180.712 76.6071 180.713 76.6307 180.714 76.6542C180.721 76.7866 180.725 76.9193 180.725 77.0527C180.725 82.764 174.896 87.0922 167.8 86.7249C167.611 86.715 167.424 86.7015 167.237 86.6853C167.219 86.6837 167.2 86.6825 167.182 86.6808C167.005 86.6649 166.83 86.6457 166.655 86.6243C166.628 86.6209 166.601 86.6177 166.574 86.6142C166.405 86.5926 166.237 86.5681 166.07 86.5412C166.039 86.5363 166.007 86.5311 165.976 86.5259C165.812 86.4985 165.649 86.4689 165.488 86.4368C165.455 86.4302 165.422 86.4234 165.39 86.4167C165.229 86.3837 165.069 86.3487 164.911 86.3109C164.88 86.3036 164.85 86.2958 164.819 86.2883C164.662 86.2498 164.505 86.2096 164.35 86.1667C164.322 86.1589 164.295 86.1506 164.267 86.1428C164.127 86.1033 163.989 86.0617 163.852 86.0186C163.817 86.0076 163.782 85.9972 163.747 85.986C163.608 85.9411 163.47 85.8938 163.332 85.8452C163.303 85.8348 163.272 85.8255 163.243 85.8149C163.243 85.8145 163.244 85.8142 163.244 85.8139C158.527 84.1125 155.211 80.2832 155.211 76.0009C155.211 70.4379 160.807 66.1001 167.8 66.3148Z" fill="url(#paint15_linear_4_320)"/>
<path id="Vector_56" d="M153.865 76.0008C153.865 81.5636 159.46 86.3629 166.454 86.7248C173.55 87.0921 179.379 82.7639 179.379 77.0527C179.379 71.3414 173.55 66.5326 166.454 66.3148C159.46 66.1001 153.865 70.4379 153.865 76.0008Z" fill="url(#paint16_linear_4_320)"/>
<g id="Group_34" opacity="0.3">
<path id="Vector_57" d="M163.367 83.9739C164.898 81.0402 163.35 78.1608 165.422 76.3045C167.535 74.4103 170.296 76.3648 173.284 74.8646C174.444 74.2822 175.738 73.1289 176.701 70.6856C178.379 72.4823 179.379 74.6935 179.379 77.0527C179.379 82.7639 173.55 87.0921 166.454 86.7248C164.843 86.6414 163.307 86.3228 161.897 85.8148C162.591 85.2112 163.052 84.5774 163.367 83.9739Z" fill="url(#paint17_linear_4_320)"/>
</g>
<g id="Group_35">
<g id="Group_36">
<g id="Group_37">
<path id="Vector_58" d="M165.535 83.416C162 83.2717 159.179 80.2488 159.179 76.6747C159.179 73.1006 162 70.1963 165.535 70.2006C169.147 70.205 172.143 73.2315 172.143 76.9471C172.143 80.6628 169.147 83.5634 165.535 83.416ZM165.535 70.7731C162.304 70.7636 159.72 73.4163 159.72 76.686C159.72 79.9558 162.304 82.7171 165.535 82.8434C168.831 82.9723 171.56 80.3227 171.56 76.9349C171.56 73.547 168.831 70.7827 165.535 70.7731Z" fill="#F4F7FA"/>
</g>
<g id="Group_38">
<path id="Vector_59" d="M168.819 76.8773C168.819 78.7265 167.341 80.1799 165.535 80.124C163.749 80.0688 162.315 78.5541 162.315 76.7406C162.315 74.927 163.749 73.4727 165.535 73.4925C167.341 73.5125 168.819 75.028 168.819 76.8773Z" fill="#F4F7FA"/>
</g>
</g>
<path id="Vector_60" d="M170.04 71.2214C170.04 72.0092 169.406 72.6425 168.628 72.636C167.853 72.6294 167.228 71.9908 167.228 71.2096C167.228 70.4284 167.853 69.795 168.628 69.795C169.406 69.795 170.04 70.4336 170.04 71.2214Z" fill="#F4F7FA"/>
</g>
</g>
<g id="Group_39">
<path id="Vector_61" d="M176.995 93.0382C184.083 93.2557 190.036 97.5832 191.196 103.061C191.198 103.068 191.199 103.076 191.201 103.083C191.264 103.383 191.312 103.686 191.345 103.992C191.348 104.012 191.35 104.032 191.352 104.053C191.367 104.196 191.378 104.34 191.386 104.484C191.388 104.51 191.389 104.536 191.39 104.563C191.397 104.71 191.402 104.858 191.402 105.007C191.402 111.373 184.905 116.197 176.996 115.788C176.785 115.777 176.576 115.762 176.368 115.743C176.348 115.742 176.327 115.74 176.307 115.738C176.11 115.721 175.914 115.699 175.72 115.675C175.69 115.672 175.659 115.668 175.629 115.664C175.441 115.64 175.254 115.613 175.068 115.583C175.032 115.577 174.997 115.572 174.962 115.566C174.78 115.535 174.599 115.502 174.418 115.466C174.382 115.459 174.346 115.451 174.309 115.444C174.13 115.407 173.952 115.368 173.775 115.326C173.741 115.318 173.707 115.309 173.673 115.301C173.497 115.258 173.323 115.213 173.15 115.165C173.119 115.157 173.089 115.148 173.058 115.139C172.902 115.095 172.748 115.048 172.595 115C172.556 114.988 172.517 114.976 172.478 114.964C172.322 114.914 172.169 114.861 172.016 114.807C171.983 114.795 171.949 114.785 171.916 114.773C171.917 114.773 171.917 114.772 171.917 114.772C166.66 112.876 162.964 108.608 162.964 103.834C162.964 97.6339 169.201 92.7989 176.995 93.0382Z" fill="url(#paint18_linear_4_320)"/>
<path id="Vector_62" d="M161.463 103.834C161.463 110.035 167.7 115.384 175.495 115.787C183.404 116.197 189.901 111.373 189.901 105.007C189.901 98.6409 183.404 93.2809 175.495 93.0382C167.7 92.7989 161.463 97.6339 161.463 103.834Z" fill="url(#paint19_linear_4_320)"/>
<g id="Group_40" opacity="0.3">
<path id="Vector_63" d="M172.054 112.721C173.761 109.451 172.035 106.242 174.344 104.173C176.7 102.062 179.777 104.24 183.108 102.568C184.401 101.919 185.843 100.633 186.917 97.91C188.787 99.9126 189.901 102.377 189.901 105.007C189.901 111.373 183.404 116.197 175.495 115.787C173.699 115.694 171.987 115.339 170.416 114.773C171.19 114.1 171.703 113.394 172.054 112.721Z" fill="url(#paint20_linear_4_320)"/>
</g>
<g id="Group_41">
<path id="Vector_64" d="M176.214 104.51C176.215 105.152 175.704 105.663 175.073 105.65C174.444 105.638 173.935 105.109 173.934 104.47C173.933 103.831 174.44 103.32 175.069 103.329C175.699 103.339 176.213 103.867 176.214 104.51Z" fill="white"/>
<g id="Group_42">
<path id="Vector_65" d="M172.206 111.505C171.571 111.483 171.015 111.293 170.552 110.94C168.568 109.428 168.968 105.452 171.47 101.839C173.334 99.1477 175.882 97.3969 177.967 97.3969C178.621 97.3969 179.197 97.57 179.679 97.9122C181.774 99.3996 181.36 103.498 178.742 107.191C176.828 109.891 174.261 111.577 172.206 111.505ZM177.969 98.128C176.138 98.1247 173.758 99.7923 172.045 102.262C169.837 105.444 169.342 109.137 170.956 110.363C171.298 110.623 171.719 110.764 172.206 110.78C174.007 110.84 176.396 109.228 178.147 106.753C180.442 103.51 180.954 99.7177 179.26 98.5107C178.904 98.2576 178.47 98.1289 177.969 98.128Z" fill="white"/>
</g>
<g id="Group_43">
<path id="Vector_66" d="M178.004 111.709C175.911 111.635 173.349 109.784 171.475 107.017C168.967 103.314 168.564 99.3354 170.542 97.9007C171.002 97.5666 171.556 97.397 172.19 97.397C174.237 97.397 176.804 99.1628 178.728 101.92C181.368 105.702 181.81 109.828 179.719 111.25C179.237 111.578 178.66 111.732 178.004 111.709ZM172.191 98.1177C171.705 98.1168 171.286 98.2415 170.946 98.4881C169.337 99.6521 169.836 103.352 172.049 106.613C173.772 109.151 176.164 110.912 178.002 110.973C178.504 110.99 178.939 110.876 179.294 110.633C180.986 109.48 180.448 105.658 178.135 102.336C176.375 99.8078 173.987 98.1209 172.191 98.1177Z" fill="white"/>
</g>
<g id="Group_44">
<path id="Vector_67" d="M175.228 108.672C175.228 108.672 175.228 108.672 175.228 108.672L175.014 108.773C172.945 108.685 171.018 108.227 169.583 107.39C168.087 106.517 167.278 105.409 167.295 104.215C167.329 101.865 170.641 100.06 174.914 100.089L175.127 100.099C178.069 100.16 180.784 101.102 182.186 102.558C182.83 103.227 183.166 103.875 183.158 104.636C183.13 107.082 179.609 109.059 175.228 108.672ZM174.916 100.829C171.092 100.796 168.012 102.337 167.984 104.264C167.971 105.18 168.654 106.086 169.914 106.818C171.254 107.597 173.066 108.072 175.023 108.152L175.227 108.159C179.137 108.263 182.392 106.722 182.415 104.723C182.422 104.157 182.167 103.601 181.657 103.071C180.39 101.75 177.875 100.895 175.119 100.832L174.916 100.829Z" fill="white"/>
</g>
</g>
</g>
<g id="Group_45">
<path id="Vector_68" d="M78.2535 186.185C78.2535 186.185 78.1114 187.316 78.2068 187.694C78.3022 188.073 81.5898 188.347 82.7058 188.215C83.8216 188.084 82.0411 186.944 81.33 186.73C80.619 186.516 78.2535 186.185 78.2535 186.185Z" fill="url(#paint21_linear_4_320)"/>
<path id="Vector_69" d="M79.9082 184.299L79.5617 186.567C79.5617 186.567 78.678 186.964 78.2533 186.572L78.2065 184.197L79.9082 184.299Z" fill="url(#paint22_linear_4_320)"/>
<path id="Vector_70" d="M61.3751 184.197C61.3751 184.197 62.0726 184.715 61.8866 185.335C61.7007 185.955 60.073 188.439 58.9129 189.144C57.7529 189.849 58.1165 188.38 58.4542 187.465C58.7918 186.55 59.6543 184.535 59.991 184.197C60.3277 183.859 61.3751 184.197 61.3751 184.197Z" fill="url(#paint23_linear_4_320)"/>
<path id="Vector_71" d="M62.6298 181.705C62.2926 182.645 61.9683 183.418 61.7146 183.988C61.1533 185.249 60.8466 185.722 60.4991 186.132C60.1962 186.489 59.479 187.252 59.2861 187.125C59.0903 186.996 59.6151 186.069 60.6265 183.354C60.7734 182.96 61.2373 181.705 61.2373 181.705H62.6298Z" fill="url(#paint24_linear_4_320)"/>
<path id="Vector_72" d="M86.7932 142.43C87.0339 144.792 87.2647 148.459 86.9195 152.91C86.4697 158.708 85.3103 162.377 83.8563 168.559C82.9677 172.337 81.7704 177.898 80.6868 184.853C80.4354 184.997 79.6958 185.375 78.7435 185.234C78.2103 185.155 77.8116 184.943 77.5761 184.79C74.7333 176.103 75.5729 170.72 76.9448 167.366C77.5296 165.937 78.2386 164.809 78.6176 162.611C79.119 159.704 78.4991 158.078 77.6148 151.343C76.9845 146.543 77.0936 145.801 77.513 145.081C79.1892 142.203 84.3163 142.259 86.7932 142.43Z" fill="url(#paint25_linear_4_320)"/>
<path id="Vector_73" d="M77.0079 143.44C75.2664 152.434 73.5571 157.158 72.2636 159.829C71.9446 160.488 70.8803 162.614 69.8742 165.662C68.9834 168.359 68.6122 170.344 68.4222 171.217C67.8217 173.974 66.3378 178 62.3449 183.279C62.2952 183.308 61.6144 183.693 60.9634 183.35C60.634 183.176 60.4698 182.899 60.4045 182.77C60.9265 177.722 61.5258 173.481 62.0459 170.207C62.1551 169.52 62.6356 166.517 63.3894 162.548C63.6844 160.994 64.1166 158.719 64.6343 156.381C65.2789 153.471 66.2674 149.511 67.7909 144.766C70.8631 144.324 73.9356 143.882 77.0079 143.44Z" fill="url(#paint26_linear_4_320)"/>
<path id="Vector_74" d="M78.4915 107.866C79.4791 106.953 81.3687 105.9 82.3163 103.454C82.6016 102.717 83.6123 100.108 82.1214 98.1119C81.2366 96.9271 79.5929 96.1226 78.1442 96.4074C76.9062 96.6508 76.7126 97.513 74.6089 99.2483C73.7901 99.9237 72.4739 101.009 71.009 101.613C68.4994 102.647 66.9916 101.674 64.472 101.785C61.3766 101.922 57.7808 103.649 56.0485 106.161C52.9736 110.62 57.4278 115.142 54.0599 120.366C52.9562 122.077 52.4123 121.693 49.7985 125.006C47.1811 128.323 45.8725 129.981 46.1053 132.013C46.4285 134.834 49.4665 137.528 52.3274 137.711C55.122 137.89 56.8984 135.691 58.3212 136.653C59.3338 137.338 58.7548 138.669 59.8303 140.269C61.2167 142.331 63.9417 142.742 64.3817 142.808C68.4665 143.425 73.9742 138.635 76.3134 132.96C80.5316 122.727 73.1219 112.829 78.4915 107.866Z" fill="url(#paint27_linear_4_320)"/>
<path id="Vector_75" d="M94.2527 110.706C94.2805 107.85 87.7919 105.567 84.823 104.832C80.2047 103.688 76.5065 104.406 75.6082 104.596C69.8486 105.817 66.2615 109.273 64.9114 110.725C66.017 111.445 69.0678 113.642 70.5787 117.809C71.0488 119.105 72.4376 123.537 70.4514 127.689C69.307 130.081 67.2825 131.877 65.745 133.241C63.4388 135.287 62.2445 135.602 61.4714 137.434C60.6294 139.43 61.4778 140.404 60.4322 141.77C59.3093 143.238 57.9936 142.555 56.0902 144.04C54.1405 145.559 54.8344 146.811 53.06 148.49C50.4818 150.931 47.0639 150.138 46.9047 151.236C46.7677 152.181 49.1969 153.463 51.2607 153.983C55.3478 155.012 58.9127 153.284 59.9728 152.752C62.9078 151.277 62.4008 150.323 64.6384 149.199C68.3854 147.316 70.946 149.411 79.4802 149.627C84.1017 149.744 86.4385 149.77 87.7187 148.206C88.8879 146.778 88.2733 145.211 87.5717 138.46C87.2378 135.246 87.1173 132.014 86.8712 128.793C86.1751 119.681 86.1538 118.879 86.7718 117.619C88.9857 113.106 94.2278 113.27 94.2527 110.706Z" fill="url(#paint28_linear_4_320)"/>
<g id="Group_46" opacity="0.3">
<path id="Vector_76" d="M54.06 148.49C55.8343 146.811 55.1405 145.559 57.0902 144.04C58.9937 142.555 60.3093 143.238 61.4322 141.77C62.4778 140.404 61.6294 139.43 62.4714 137.434C63.2445 135.602 64.4388 135.287 66.745 133.241C68.2825 131.877 70.3071 130.081 71.4514 127.689C73.4376 123.537 72.0488 119.105 71.5787 117.809C70.0678 113.642 67.017 111.445 65.9114 110.725C66.0178 110.611 66.1434 110.48 66.2777 110.342C73.5615 111.343 77.8084 115.552 78.3336 116.798C79.5477 119.679 77.6257 120.738 77.576 129.046C77.5524 133.017 77.9807 134.585 76.6923 136.243C75.2186 138.139 73.5203 137.552 71.3893 140.031C69.7519 141.935 70.0141 143.143 68.4853 143.945C66.8413 144.807 65.7942 143.802 63.9399 144.197C60.8421 144.858 60.1798 148.43 58.1319 150.384C56.5832 151.862 53.7199 152.895 48.0731 151.786C47.9424 151.596 47.8794 151.41 47.9047 151.236C48.0639 150.138 51.4818 150.931 54.06 148.49Z" fill="url(#paint29_linear_4_320)"/>
</g>
<path id="Vector_77" d="M76.124 119.04C76.8983 120.684 73.3403 124.514 69.3857 126.332C68.58 126.703 62.7939 129.363 60.215 126.805C58.0841 124.691 59.4594 120.32 59.9504 118.759C62.3612 111.096 69.7652 107.198 72.868 105.792C75.1837 111.582 73.8199 114.162 73.2831 114.968C72.7223 115.809 71.1574 117.577 69.4952 119.134C68.3261 120.23 67.598 120.763 67.696 120.934C67.8178 121.146 69.1883 120.745 74.5111 118.154C75.1283 118.254 75.8595 118.478 76.124 119.04Z" fill="url(#paint30_linear_4_320)"/>
<path id="Vector_78" d="M98.3964 109.593L95.7846 122.6C95.7009 123.017 95.3779 123.344 94.9622 123.433L75.488 127.613C74.7901 127.762 74.1448 127.198 74.2001 126.487L75.2279 113.258C75.2636 112.799 75.5888 112.415 76.0359 112.305C79.1251 111.543 91.0153 108.687 97.2865 108.316C97.9869 108.275 98.5345 108.905 98.3964 109.593Z" fill="url(#paint31_linear_4_320)"/>
<path id="Vector_79" d="M78.9724 100.094C78.9724 100.094 78.6051 103.03 77.5212 103.703C76.4373 104.376 74.6851 105.255 74.492 105.493C74.299 105.732 81.2064 106.474 84.6297 104.747C83.5016 104.512 83.1948 104.425 83.1948 104.425C82.8887 104.339 82.3175 104.178 81.745 103.851C81.3553 103.629 80.7272 103.196 80.1511 102.377L80.1636 100.751L78.9724 100.094Z" fill="url(#paint32_linear_4_320)"/>
<path id="Vector_80" d="M78.8075 101.134C78.8075 101.134 79.5142 102.104 80.6225 101.7C81.6148 101.338 81.0226 98.7747 80.2355 98.4824C79.9729 98.3849 79.4908 98.428 79.1685 98.629C78.9418 98.7704 78.3365 99.5224 78.6835 100.365C78.4328 100.292 78.2121 100.358 78.1569 100.482C78.0868 100.64 78.299 100.854 78.3471 100.903C78.5138 101.071 78.7149 101.119 78.8075 101.134Z" fill="url(#paint33_linear_4_320)"/>
<path id="Vector_81" opacity="0.3" d="M80.8589 120.839C82.9504 120.249 84.6849 121.714 86.3512 120.555C88.0582 119.368 86.9441 117.34 88.7186 115.347C90.616 113.215 93.023 114.259 94.7792 112.316C95.4311 111.595 96.0176 110.42 96.0266 108.416C96.4666 108.373 96.888 108.34 97.2864 108.316C97.9867 108.275 98.5344 108.905 98.3963 109.593L95.7845 122.6C95.7008 123.017 95.3778 123.344 94.9621 123.433L76.2466 127.45C77.5681 122.814 79.3314 121.27 80.8589 120.839Z" fill="url(#paint34_linear_4_320)"/>
<path id="Vector_82" d="M97.0273 116.513C97.0273 116.513 98.2695 115.364 98.4047 114.031C98.5398 112.697 97.6023 111.629 96.6941 111.357C95.7859 111.085 95.3012 111.486 95.9109 112.8C96.5207 114.113 97.4878 114.966 97.0273 116.513Z" fill="url(#paint35_linear_4_320)"/>
</g>
</g>
</g>
</g>
<defs>
<linearGradient id="paint0_linear_4_320" x1="78.1849" y1="65.1544" x2="58.9682" y2="116.736" gradientUnits="userSpaceOnUse">
<stop stop-color="#FFC444"/>
<stop offset="0.9964" stop-color="#F36F56"/>
</linearGradient>
<linearGradient id="paint1_linear_4_320" x1="109.055" y1="201.471" x2="112.099" y2="172.042" gradientUnits="userSpaceOnUse">
<stop stop-color="#444B8C"/>
<stop offset="0.9964" stop-color="#26264F"/>
</linearGradient>
<linearGradient id="paint2_linear_4_320" x1="87.9277" y1="119.359" x2="55.7927" y2="123.079" gradientUnits="userSpaceOnUse">
<stop stop-color="#792D3D"/>
<stop offset="0.3946" stop-color="#B00301"/>
<stop offset="0.9964" stop-color="#AB316D"/>
</linearGradient>
<linearGradient id="paint3_linear_4_320" x1="142.619" y1="60.3457" x2="56.3617" y2="191.591" gradientUnits="userSpaceOnUse">
<stop stop-color="#792D3D"/>
<stop offset="0.9964" stop-color="#B00301"/>
</linearGradient>
<linearGradient id="paint4_linear_4_320" x1="135.562" y1="48.4059" x2="53.471" y2="212.588" gradientUnits="userSpaceOnUse">
<stop stop-color="#E62725"/>
<stop offset="0.9964" stop-color="#C00F0D"/>
</linearGradient>
<linearGradient id="paint5_linear_4_320" x1="98.6701" y1="42.1221" x2="115.498" y2="109.433" gradientUnits="userSpaceOnUse">
<stop stop-color="#E62725"/>
<stop offset="0.9964" stop-color="#C00F0D"/>
</linearGradient>
<linearGradient id="paint6_linear_4_320" x1="64.2082" y1="106.951" x2="151.119" y2="106.951" gradientUnits="userSpaceOnUse">
<stop stop-color="#E62725"/>
<stop offset="0.9964" stop-color="#C00F0D"/>
</linearGradient>
<linearGradient id="paint7_linear_4_320" x1="83.8269" y1="59.1381" x2="137.449" y2="59.1381" gradientUnits="userSpaceOnUse">
<stop stop-color="#311944"/>
<stop offset="1" stop-color="#893976"/>
</linearGradient>
<linearGradient id="paint8_linear_4_320" x1="121.396" y1="76.5269" x2="128.567" y2="76.5269" gradientUnits="userSpaceOnUse">
<stop stop-color="#311944"/>
<stop offset="1" stop-color="#893976"/>
</linearGradient>
<linearGradient id="paint9_linear_4_320" x1="107.204" y1="32.2804" x2="118.389" y2="105.464" gradientUnits="userSpaceOnUse">
<stop stop-color="#FF9085"/>
<stop offset="1" stop-color="#FB6FBB"/>
</linearGradient>
<linearGradient id="paint10_linear_4_320" x1="118.981" y1="31.5211" x2="129.845" y2="102.61" gradientUnits="userSpaceOnUse">
<stop stop-color="#FF9085"/>
<stop offset="1" stop-color="#FB6FBB"/>
</linearGradient>
<linearGradient id="paint11_linear_4_320" x1="83.8269" y1="62.7057" x2="138.391" y2="62.7057" gradientUnits="userSpaceOnUse">
<stop stop-color="#FF9085"/>
<stop offset="1" stop-color="#FB6FBB"/>
</linearGradient>
<linearGradient id="paint12_linear_4_320" x1="154.55" y1="130.514" x2="173.859" y2="135.075" gradientUnits="userSpaceOnUse">
<stop stop-color="#311944"/>
<stop offset="1" stop-color="#893976"/>
</linearGradient>
<linearGradient id="paint13_linear_4_320" x1="170.643" y1="125.272" x2="154.09" y2="155.974" gradientUnits="userSpaceOnUse">
<stop stop-color="#FFC444"/>
<stop offset="0.9964" stop-color="#F36F56"/>
</linearGradient>
<linearGradient id="paint14_linear_4_320" x1="175.495" y1="127.3" x2="159.273" y2="159.853" gradientUnits="userSpaceOnUse">
<stop stop-color="#FFC444"/>
<stop offset="0.9964" stop-color="#F36F56"/>
</linearGradient>
<linearGradient id="paint15_linear_4_320" x1="155.009" y1="73.4649" x2="174.318" y2="78.0261" gradientUnits="userSpaceOnUse">
<stop stop-color="#311944"/>
<stop offset="1" stop-color="#893976"/>
</linearGradient>
<linearGradient id="paint16_linear_4_320" x1="171.102" y1="68.2224" x2="154.549" y2="98.9246" gradientUnits="userSpaceOnUse">
<stop stop-color="#FFC444"/>
<stop offset="0.9964" stop-color="#F36F56"/>
</linearGradient>
<linearGradient id="paint17_linear_4_320" x1="175.954" y1="70.2509" x2="159.732" y2="102.804" gradientUnits="userSpaceOnUse">
<stop stop-color="#FFC444"/>
<stop offset="0.9964" stop-color="#F36F56"/>
</linearGradient>
<linearGradient id="paint18_linear_4_320" x1="162.739" y1="101.008" x2="184.261" y2="106.092" gradientUnits="userSpaceOnUse">
<stop stop-color="#311944"/>
<stop offset="1" stop-color="#893976"/>
</linearGradient>
<linearGradient id="paint19_linear_4_320" x1="180.676" y1="95.1645" x2="162.225" y2="129.385" gradientUnits="userSpaceOnUse">
<stop stop-color="#FFC444"/>
<stop offset="0.9964" stop-color="#F36F56"/>
</linearGradient>
<linearGradient id="paint20_linear_4_320" x1="186.084" y1="97.4255" x2="168.003" y2="133.71" gradientUnits="userSpaceOnUse">
<stop stop-color="#FFC444"/>
<stop offset="0.9964" stop-color="#F36F56"/>
</linearGradient>
<linearGradient id="paint21_linear_4_320" x1="83.0643" y1="187.217" x2="78.1738" y2="187.217" gradientUnits="userSpaceOnUse">
<stop stop-color="#AA80F9"/>
<stop offset="0.9964" stop-color="#6165D7"/>
</linearGradient>
<linearGradient id="paint22_linear_4_320" x1="79.9082" y1="185.471" x2="78.2065" y2="185.471" gradientUnits="userSpaceOnUse">
<stop offset="0.0036" stop-color="#F36F56"/>
<stop offset="1" stop-color="#FFC444"/>
</linearGradient>
<linearGradient id="paint23_linear_4_320" x1="61.9182" y1="186.688" x2="58.1214" y2="186.688" gradientUnits="userSpaceOnUse">
<stop stop-color="#AA80F9"/>
<stop offset="0.9964" stop-color="#6165D7"/>
</linearGradient>
<linearGradient id="paint24_linear_4_320" x1="62.6298" y1="184.422" x2="59.2456" y2="184.422" gradientUnits="userSpaceOnUse">
<stop offset="0.0036" stop-color="#F36F56"/>
<stop offset="1" stop-color="#FFC444"/>
</linearGradient>
<linearGradient id="paint25_linear_4_320" x1="49.556" y1="144.342" x2="68.0768" y2="155.28" gradientUnits="userSpaceOnUse">
<stop stop-color="#44192B"/>
<stop offset="1" stop-color="#89393E"/>
</linearGradient>
<linearGradient id="paint26_linear_4_320" x1="46.2371" y1="149.961" x2="64.7579" y2="160.899" gradientUnits="userSpaceOnUse">
<stop stop-color="#441928"/>
<stop offset="1" stop-color="#893951"/>
</linearGradient>
<linearGradient id="paint27_linear_4_320" x1="60.4343" y1="128.101" x2="77" y2="107.406" gradientUnits="userSpaceOnUse">
<stop stop-color="#792D3D"/>
<stop offset="0.9964" stop-color="#670403"/>
</linearGradient>
<linearGradient id="paint28_linear_4_320" x1="74.781" y1="105.337" x2="68.2154" y2="145.488" gradientUnits="userSpaceOnUse">
<stop stop-color="#FE5A4A"/>
<stop offset="1" stop-color="#FB6F99"/>
</linearGradient>
<linearGradient id="paint29_linear_4_320" x1="69.0188" y1="104.231" x2="62.4532" y2="144.382" gradientUnits="userSpaceOnUse">
<stop stop-color="#FF9085"/>
<stop offset="1" stop-color="#FB6FBB"/>
</linearGradient>
<linearGradient id="paint30_linear_4_320" x1="70.3767" y1="104.453" x2="63.8112" y2="144.604" gradientUnits="userSpaceOnUse">
<stop stop-color="#FF8585"/>
<stop offset="1" stop-color="#FB6FA1"/>
</linearGradient>
<linearGradient id="paint31_linear_4_320" x1="83.246" y1="111.443" x2="103.964" y2="155.657" gradientUnits="userSpaceOnUse">
<stop stop-color="#8C446B"/>
<stop offset="0.97592" stop-color="#4F262D"/>
</linearGradient>
<linearGradient id="paint32_linear_4_320" x1="75.8579" y1="101.938" x2="78.7865" y2="104.32" gradientUnits="userSpaceOnUse">
<stop offset="0.0036" stop-color="#F36F56"/>
<stop offset="1" stop-color="#FFC444"/>
</linearGradient>
<linearGradient id="paint33_linear_4_320" x1="73.989" y1="97.8466" x2="80.6622" y2="100.38" gradientUnits="userSpaceOnUse">
<stop offset="0.0036" stop-color="#F36F56"/>
<stop offset="1" stop-color="#FFC444"/>
</linearGradient>
<linearGradient id="paint34_linear_4_320" x1="98.4178" y1="117.882" x2="76.2466" y2="117.882" gradientUnits="userSpaceOnUse">
<stop stop-color="#792D3D"/>
<stop offset="0.9964" stop-color="#C00F0D"/>
</linearGradient>
<linearGradient id="paint35_linear_4_320" x1="95.1789" y1="122.054" x2="96.2211" y2="116.89" gradientUnits="userSpaceOnUse">
<stop offset="0.0036" stop-color="#F36F56"/>
<stop offset="1" stop-color="#FFC444"/>
</linearGradient>
<clipPath id="clip0_4_320">
<rect width="220" height="220" fill="white" transform="translate(0.666748 0.40625)"/>
</clipPath>
</defs>
</svg>
