<svg width="220" height="221" viewBox="0 0 220 221" fill="none" xmlns="http://www.w3.org/2000/svg">
<g id="frontend 1" clip-path="url(#clip0_4_455)">
<g id="Background">
<g id="Group">
<g id="Group_2">
<path id="Vector" d="M220 0.40625H0V220.406H220V0.40625Z" fill="white"/>
</g>
</g>
</g>
<g id="Illustration">
<g id="Group_3">
<path id="Vector_2" d="M191.029 98.3072C186.503 68.6848 167.948 32.2916 131.291 28.483C131.291 28.483 103.458 25.0977 76.022 30.2285C59.7385 33.2736 45.4602 42.3384 36.4255 55.3667C27.3908 68.3951 24.3729 84.2814 28.0355 99.427C30.4143 109.264 32.0218 119.445 31.5806 129.554C30.8128 147.146 31.2546 163.568 48.3278 174.059C63.5722 183.427 82.7575 191.689 101.061 193.137C113.499 194.12 127.448 192.529 139.437 189.29C200.533 172.786 195.554 127.93 191.029 98.3072Z" fill="#F4F7FA"/>
<g id="Group_4">
<g id="Group_5">
<path id="Vector_3" d="M103.806 139.853C112.125 144.429 123.584 142.88 130.078 133.657C133.715 128.491 136.027 121.207 137.346 115.088C145.552 77.0284 123.795 99.2674 124.474 75.9396C125.153 52.6118 124.372 37.1538 94.4625 29.0343C94.4625 29.0343 67.6489 20.9148 76.3481 53.8515C77.9424 59.8874 80.325 65.8839 84.213 70.8273C88.2989 76.0222 93.7234 79.9179 98.7842 84.0846C104.841 89.0713 100.625 97.3466 98.349 103.2C95.52 110.475 92.7403 117.849 94.0458 125.791C95.1286 132.378 98.9273 137.169 103.806 139.853Z" fill="url(#paint0_linear_4_455)"/>
<g id="Group_6" opacity="0.8">
<path id="Vector_4" d="M111.923 138.897C112.03 138.897 112.129 138.826 112.158 138.718C112.199 138.57 116.242 123.745 117.087 106.741C117.584 96.7461 116.896 87.9619 115.042 80.6326C112.717 71.4453 108.544 64.5273 102.636 60.0709C102.529 59.9899 102.376 60.0111 102.294 60.1187C102.213 60.2262 102.235 60.3793 102.342 60.4604C115.533 70.4107 117.376 91.1072 116.6 106.717C115.757 123.668 111.729 138.441 111.688 138.588C111.652 138.718 111.728 138.852 111.858 138.888C111.88 138.894 111.902 138.897 111.923 138.897Z" fill="white"/>
</g>
</g>
<g id="Group_7">
<path id="Vector_5" d="M123.397 161.208C124.534 161.048 125.578 160.263 126.452 158.609C130.082 151.742 123.299 141.345 123.153 134.132C123.007 126.881 124.597 119.81 126.357 112.835C128.171 105.642 129.104 97.9969 124.168 91.7895C119.912 86.4373 112.609 82.3584 105.97 86.3264C93.6737 93.6741 93.9974 81.3852 91.8718 73.0975C89.4252 63.5578 78.7395 52.4757 68.1335 54.514C58.6227 56.3419 54.7016 69.8181 54.6986 78.1746C54.697 82.538 56.3032 89.201 59.6519 92.3357C67.359 99.5502 84.8178 99.5006 78.0743 113.484C75.8006 118.199 73.6636 123.245 77.9774 127.546C82.397 131.952 89.703 132.338 95.2273 134.547C101.511 137.059 105.763 142.214 109.572 147.584C111.424 150.194 118.328 161.921 123.397 161.208Z" fill="#BFC8D6"/>
<g id="Group_8" opacity="0.8">
<path id="Vector_6" d="M124.056 159.026C124.079 159.024 124.102 159.02 124.125 159.011C124.251 158.966 124.317 158.826 124.271 158.699C124.216 158.548 118.694 143.38 110.314 126.082C105.391 115.92 100.459 107.021 95.655 99.6325C89.6429 90.3849 83.8123 83.4863 78.3256 79.1283C78.2202 79.0444 78.0666 79.062 77.9828 79.1676C77.899 79.2731 77.9165 79.4266 78.0221 79.5104C90.365 89.3142 102.156 110.363 109.875 126.295C118.244 143.57 123.757 158.714 123.812 158.865C123.85 158.969 123.951 159.032 124.056 159.026Z" fill="white"/>
</g>
</g>
</g>
<g id="Group_9">
<g id="Group_10">
<g id="Group_11">
<path id="Vector_7" d="M105.915 40.3603L89.5091 176.724C89.2632 178.769 90.6723 180.601 92.6463 180.797L160.979 188.299C165.166 188.56 167.458 186.421 167.716 184.247L184.94 39.2694C185.197 37.1074 183.143 35.1495 178.94 35.1494L109.985 36.6017C107.988 36.6352 106.16 38.3265 105.915 40.3603Z" fill="#AABBCC"/>
<path id="Vector_8" d="M102.84 40.1257L86.3435 177.171C86.0962 179.226 87.5102 181.069 89.4914 181.266L160.334 188.319C162.555 188.54 164.59 186.933 164.85 184.748L182.171 39.0215C182.429 36.8484 180.798 35.1016 178.553 35.1394L106.925 36.3479C104.922 36.3817 103.086 38.0816 102.84 40.1257Z" fill="#BFC8D6"/>
<path id="Vector_9" d="M104.184 47.6849L88.8941 174.753C88.6631 176.673 89.9873 178.391 91.8418 178.572L158.467 185.048C160.531 185.249 162.423 183.749 162.665 181.715L178.673 47.0973C178.913 45.0737 177.399 43.4363 175.313 43.4586L108.005 44.1753C106.131 44.1953 104.414 45.7745 104.184 47.6849Z" fill="#EAEDF3"/>
<path id="Vector_10" d="M139.912 40.0315C139.824 40.7611 140.348 41.345 141.082 41.3358C141.817 41.3265 142.484 40.7264 142.571 39.9954C142.659 39.2643 142.133 38.6805 141.398 38.6912C140.664 38.7019 139.999 39.3019 139.912 40.0315Z" fill="white"/>
<g id="Group_12">
<path id="Vector_11" d="M115.703 132.981C129.342 107.764 149.718 100.215 155.852 74.2259C159.168 60.1775 156.909 46.7314 153.104 35.5688L178.553 35.1394C180.798 35.1015 182.429 36.8483 182.171 39.0214L164.85 184.748C164.59 186.933 162.555 188.54 160.334 188.319L104.645 182.774C104.233 160.179 109.623 144.222 115.703 132.981Z" fill="white"/>
</g>
</g>
</g>
<g id="Group_13">
<path id="Vector_12" d="M126.333 102.738L122.78 104.362C122.214 104.621 121.952 105.279 122.195 105.834L123.08 107.858C122.204 108.447 121.39 109.1 120.646 109.813L118.878 108.527C118.39 108.173 117.698 108.291 117.331 108.79L115.033 111.912C114.665 112.412 114.757 113.108 115.24 113.469L116.984 114.773C116.513 115.707 116.124 116.682 115.818 117.685L113.651 117.443C113.049 117.376 112.497 117.822 112.418 118.441L111.919 122.328C111.838 122.952 112.263 123.52 112.868 123.595L115.03 123.861C115.076 124.914 115.218 125.974 115.45 127.032L113.42 127.916C112.851 128.164 112.581 128.843 112.816 129.434L114.301 133.163C114.54 133.764 115.202 134.053 115.778 133.806L117.838 132.925C118.419 133.864 119.07 134.744 119.789 135.553L118.431 137.403C118.049 137.923 118.149 138.677 118.656 139.087L121.857 141.68C122.374 142.099 123.109 142.011 123.496 141.483L124.882 139.594C125.858 140.126 126.878 140.574 127.932 140.928L127.671 143.341C127.597 144.015 128.07 144.647 128.727 144.751L132.875 145.406C133.544 145.512 134.143 145.043 134.213 144.36L134.461 141.905C135.569 141.873 136.683 141.736 137.79 141.499L138.813 143.836C139.096 144.484 139.832 144.806 140.457 144.553L144.386 142.962C145.018 142.706 145.292 141.971 144.999 141.322L143.933 138.962C144.886 138.348 145.771 137.658 146.576 136.897L148.671 138.463C149.247 138.894 150.041 138.799 150.442 138.251L152.953 134.821C153.354 134.273 153.207 133.484 152.625 133.062L150.489 131.509C150.969 130.502 151.358 129.454 151.649 128.377L154.243 128.697C154.947 128.783 155.563 128.302 155.617 127.622L155.952 123.395C156.006 122.723 155.481 122.115 154.781 122.037L152.2 121.749C152.093 120.657 151.882 119.566 151.575 118.487L153.905 117.49C154.532 117.221 154.797 116.51 154.498 115.903L152.638 112.142C152.343 111.545 151.603 111.282 150.986 111.551L148.691 112.55C148.042 111.653 147.326 110.822 146.549 110.069L147.979 108.12C148.364 107.595 148.229 106.869 147.677 106.5L144.264 104.215C143.724 103.853 142.979 103.98 142.598 104.498L141.189 106.417C140.21 105.972 139.196 105.612 138.161 105.34L138.394 103.031C138.457 102.409 137.986 101.864 137.344 101.813L133.36 101.498C132.728 101.448 132.162 101.905 132.096 102.52L131.851 104.779C130.811 104.865 129.772 105.045 128.743 105.312L127.821 103.27C127.57 102.714 126.904 102.477 126.333 102.738ZM138.051 134.063C131.897 136.632 124.849 133.627 122.293 127.519C119.797 121.556 122.487 114.744 128.315 112.146C134.218 109.514 141.297 112.105 144.118 118.094C147.009 124.233 144.288 131.46 138.051 134.063Z" fill="white"/>
<path id="Vector_13" d="M119.536 67.2835L117.253 68.8896C116.889 69.1457 116.781 69.6218 117.012 69.9536L117.854 71.1631C117.312 71.6856 116.819 72.2421 116.382 72.8277L115.006 72.2424C114.626 72.0808 114.157 72.2642 113.956 72.6518L112.702 75.0794C112.502 75.4681 112.645 75.9175 113.024 76.0833L114.389 76.681C114.166 77.3744 114.004 78.0822 113.903 78.796L112.361 78.9721C111.932 79.0211 111.596 79.4041 111.61 79.828L111.7 82.492C111.715 82.9201 112.076 83.2303 112.508 83.1842L114.05 83.02C114.201 83.7116 114.419 84.3926 114.7 85.0571L113.382 85.9671C113.013 86.2222 112.901 86.716 113.132 87.0708L114.589 89.3056C114.824 89.6654 115.318 89.7501 115.691 89.4937L117.025 88.579C117.533 89.1071 118.084 89.5846 118.673 90.0032L117.939 91.4441C117.732 91.8499 117.885 92.3318 118.283 92.5206L120.788 93.7103C121.191 93.902 121.688 93.7249 121.896 93.3144L122.641 91.8462C123.372 92.0388 124.122 92.1683 124.885 92.2312L124.973 93.8582C124.997 94.313 125.391 94.6507 125.853 94.612L128.759 94.3684C129.227 94.3293 129.584 93.9256 129.556 93.4673L129.455 91.8206C130.206 91.6215 130.947 91.3539 131.674 91.0212L132.622 92.3843C132.885 92.7617 133.418 92.8532 133.814 92.5878L136.291 90.9232C136.689 90.6564 136.794 90.1344 136.526 89.7584L135.552 88.3895C136.127 87.8392 136.648 87.2509 137.107 86.6288L138.684 87.3193C139.116 87.5089 139.638 87.3228 139.848 86.9035L141.157 84.2853C141.366 83.8673 141.183 83.3785 140.749 83.1938L139.151 82.5141C139.364 81.7855 139.512 81.0443 139.59 80.2988L141.36 80.1103C141.84 80.0592 142.199 79.6529 142.162 79.2035L141.931 76.4076C141.894 75.9628 141.478 75.6467 141.002 75.7011L139.244 75.9019C139.054 75.2074 138.795 74.5284 138.472 73.871L139.926 72.8739C140.317 72.6058 140.418 72.1036 140.152 71.7531L138.499 69.5769C138.236 69.2314 137.711 69.1682 137.325 69.4349L135.889 70.4265C135.353 69.9358 134.779 69.4985 134.172 69.1201L134.926 67.6346C135.129 67.2347 134.958 66.7799 134.546 66.6189L131.986 65.6196C131.58 65.461 131.087 65.6532 130.886 66.0487L130.138 67.5159C129.422 67.3676 128.692 67.2803 127.955 67.2534L127.86 65.6996C127.835 65.2808 127.453 64.9907 127.008 65.0511L124.242 65.4268C123.803 65.4865 123.465 65.8717 123.487 66.2877L123.57 67.8153C122.864 68.0264 122.168 68.2996 121.488 68.6293L120.624 67.4151C120.388 67.0847 119.901 67.0261 119.536 67.2835ZM131.036 86.118C127.125 88.7746 121.955 87.9215 119.508 84.2966C117.11 80.7439 118.214 75.8161 121.954 73.2104C125.719 70.5868 130.835 71.2335 133.403 74.7348C136.024 78.308 134.975 83.4423 131.036 86.118Z" fill="white"/>
</g>
</g>
<g id="Group_14">
<g id="Group_15">
<path id="Vector_14" d="M169.963 54.8665L158.433 172.463C158.214 174.701 156.207 176.361 153.964 176.163L83.4614 169.932C81.4424 169.753 80.0019 167.89 80.2435 165.778L92.9551 54.6459C93.1855 52.6314 94.9856 50.9953 96.9748 50.9956L166.341 51.0079C168.545 51.0083 170.172 52.7378 169.963 54.8665Z" fill="url(#paint1_linear_4_455)"/>
<path id="Vector_15" d="M168.939 54.8635L157.392 172.374C157.228 174.041 155.737 175.275 154.067 175.128L83.573 168.95C82.0677 168.818 80.9949 167.433 81.1748 165.857L93.8736 54.6484C94.0452 53.1457 95.3853 51.9285 96.8687 51.9298L166.244 51.9896C167.886 51.9912 169.095 53.2778 168.939 54.8635Z" fill="url(#paint2_linear_4_455)"/>
<path id="Vector_16" d="M168.939 54.8636L168.175 62.6442L93.0317 62.0209L93.8735 54.6485C94.0452 53.1458 95.3853 51.9287 96.8686 51.9299L166.244 51.9897C167.886 51.9912 169.095 53.2778 168.939 54.8636Z" fill="url(#paint3_linear_4_455)"/>
<g id="Group_16">
<path id="Vector_17" d="M100.641 56.5411C100.526 57.567 99.6102 58.3943 98.5976 58.3886C97.5866 58.383 96.8623 57.5487 96.9784 56.5256C97.0945 55.5029 98.0066 54.6766 99.0172 54.6795C100.029 54.6824 100.757 55.5157 100.641 56.5411Z" fill="white"/>
<path id="Vector_18" d="M107.549 56.5704C107.434 57.6015 106.511 58.433 105.488 58.4273C104.467 58.4216 103.734 57.583 103.849 56.5547C103.964 55.5269 104.884 54.6964 105.904 54.6993C106.927 54.7023 107.664 55.5398 107.549 56.5704Z" fill="white"/>
<path id="Vector_19" d="M114.527 56.6C114.413 57.6363 113.482 58.472 112.449 58.4662C111.417 58.4605 110.675 57.6176 110.789 56.5841C110.903 55.5511 111.831 54.7164 112.862 54.7193C113.894 54.7223 114.641 55.5641 114.527 56.6Z" fill="white"/>
</g>
</g>
<g id="Group_17">
<path id="Vector_20" d="M137.625 80.2976L95.2802 79.4057C94.7851 79.3953 94.3376 79.7962 94.2802 80.3013L90.8368 110.644C90.7787 111.156 91.1344 111.589 91.6315 111.611L134.159 113.519C134.688 113.543 135.162 113.133 135.217 112.605L138.481 81.262C138.536 80.7405 138.152 80.3087 137.625 80.2976Z" fill="white"/>
<g id="Group_18">
<path id="Vector_21" d="M137.367 71.123L95.0209 70.5079L95.5766 65.6147L137.895 66.0769L137.367 71.123Z" fill="white"/>
<path id="Vector_22" d="M111.414 74.9527L94.5498 74.6562L94.8069 72.3926L111.666 72.6609L111.414 74.9527Z" fill="white"/>
</g>
<g id="Group_19">
<g id="Group_20">
<path id="Vector_23" d="M161.026 83.1788L142.895 82.7667L143.138 80.4137L161.263 80.7954L161.026 83.1788Z" fill="white"/>
<path id="Vector_24" d="M160.552 87.9529L142.409 87.4795L142.652 85.1219L160.789 85.5647L160.552 87.9529Z" fill="white"/>
<path id="Vector_25" d="M160.076 92.7366L141.922 92.2018L142.165 89.8394L160.314 90.3435L160.076 92.7366Z" fill="white"/>
</g>
<g id="Group_21">
<path id="Vector_26" d="M159.163 101.932L140.985 101.279L141.23 98.9077L159.401 99.5299L159.163 101.932Z" fill="white"/>
<path id="Vector_27" d="M158.685 106.744L140.495 106.029L140.74 103.653L158.924 104.337L158.685 106.744Z" fill="white"/>
<path id="Vector_28" d="M158.206 111.566L140.004 110.788L140.25 108.407L158.445 109.154L158.206 111.566Z" fill="white"/>
</g>
</g>
<path id="Vector_29" d="M157.505 118.615C157.472 118.949 157.17 119.207 156.83 119.19L90.4168 115.994C90.1083 115.979 89.8877 115.709 89.9238 115.391C89.9599 115.073 90.2391 114.827 90.5475 114.841L156.951 117.981C157.29 117.997 157.539 118.281 157.505 118.615Z" fill="white"/>
<path id="Vector_30" d="M152.831 165.666C152.797 166.007 152.493 166.26 152.151 166.232L85.3352 160.788C85.025 160.763 84.8035 160.479 84.8403 160.155C84.8771 159.831 85.1583 159.589 85.4684 159.614L152.274 164.999C152.615 165.026 152.865 165.325 152.831 165.666Z" fill="white"/>
<g id="Group_22">
<path id="Vector_31" d="M162.443 68.9142L148.329 68.7347L148.589 66.1937L162.698 66.3478L162.443 68.9142Z" fill="white"/>
<path id="Vector_32" d="M161.688 68.3117L150.989 68.1801L151.129 66.8093L161.825 66.9306L161.688 68.3117Z" fill="url(#paint4_linear_4_455)"/>
</g>
<path id="Vector_33" d="M116.859 158.713L85.6583 156.276L89.8817 119.06L120.933 120.625L116.859 158.713Z" fill="white"/>
<path id="Vector_34" d="M153.24 161.555L120.394 158.989L124.449 120.803L157.125 122.45L153.24 161.555Z" fill="white"/>
</g>
<path id="Vector_35" opacity="0.5" d="M158.658 170.173L158.433 172.463C158.214 174.701 156.207 176.361 153.964 176.163L83.4614 169.932C81.4424 169.753 80.0019 167.89 80.2435 165.778L92.9551 54.6459C93.1855 52.6314 94.9856 50.9953 96.9748 50.9956L105.457 50.9971C105.399 51.311 105.346 51.6231 105.292 51.9371C105.118 52.9621 104.962 53.9892 104.827 55.0207C104.692 56.045 104.576 57.0717 104.485 58.099C104.363 59.4379 104.281 60.778 104.244 62.1138C104.165 64.7597 104.264 67.3869 104.58 69.9627C106.473 85.3495 127.354 87.896 126.018 106.032C125.329 115.415 120.491 124.425 120.596 133.939C120.806 152.829 140.132 154.514 152.478 163.926C154.425 165.411 156.184 167.112 157.725 168.986C158.048 169.375 158.359 169.77 158.658 170.173Z" fill="white"/>
</g>
<g id="Group_23">
<g id="Group_24">
<path id="Vector_36" d="M95.7693 109.264C95.7693 110.894 94.5686 112.346 93.2238 112.346H46.5551C45.2104 112.346 44.0853 110.894 44.0853 109.264V80.7329C44.0853 79.1028 45.2104 77.89 46.5551 77.89H93.2238C94.5686 77.89 95.7693 79.1028 95.7693 80.7329V109.264Z" fill="url(#paint5_linear_4_455)"/>
<path id="Vector_37" d="M97.0614 80.7337V109.265C97.0614 110.358 96.5792 111.375 95.8508 111.903C95.4936 112.163 95.0865 112.346 94.6442 112.346H47.9755C46.6303 112.346 45.3774 110.894 45.3774 109.265V80.7337C45.3774 79.1023 46.6303 77.89 47.9755 77.89H94.6442C95.9894 77.89 97.0614 79.1023 97.0614 80.7337Z" fill="url(#paint6_linear_4_455)"/>
<g id="Group_25">
<path id="Vector_38" d="M89.7058 106.998L80.657 94.2559C80.5658 94.1276 80.4115 94.0504 80.246 94.0504C80.0806 94.0504 79.9261 94.1275 79.835 94.2558L74.6313 101.581L66.1083 89.5793C66.0172 89.451 65.8628 89.3738 65.6974 89.3738C65.532 89.3738 65.3776 89.451 65.2864 89.5793L52.9141 106.998C52.8144 107.139 52.8057 107.377 52.8916 107.525C52.9774 107.673 53.1439 107.824 53.3251 107.824H70.2802H78.9815H89.2947C89.4759 107.824 89.6424 107.673 89.7282 107.525C89.814 107.377 89.8054 107.139 89.7058 106.998Z" fill="white"/>
<path id="Vector_39" d="M79.1522 90.1581C81.3057 90.1581 83.0515 88.4123 83.0515 86.2588C83.0515 84.1053 81.3057 82.3595 79.1522 82.3595C76.9987 82.3595 75.2529 84.1053 75.2529 86.2588C75.2529 88.4123 76.9987 90.1581 79.1522 90.1581Z" fill="white"/>
</g>
<g id="Group_26" opacity="0.3">
<path id="Vector_40" d="M95.8597 111.903C95.5025 112.163 95.0866 112.346 94.6442 112.346H47.9755C46.6303 112.346 45.3774 110.894 45.3774 109.264V80.7336C45.3774 79.1023 46.6303 77.8899 47.9755 77.8899H48.4462C49.3147 79.3973 50.3901 81.4331 51.7252 83.237C63.9667 99.7699 83.318 95.0001 94.4982 109.965C95.0033 110.64 95.4538 111.278 95.8597 111.903Z" fill="url(#paint7_linear_4_455)"/>
</g>
</g>
<g id="Group_27">
<path id="Vector_41" d="M45.3737 106.594V103.76C45.3737 103.76 45.7811 103.155 45.9951 101.657C46.2091 100.159 45.8203 100.753 45.6296 101.376C45.5764 101.55 45.4661 101.698 45.3348 101.82C45.0048 102.127 44.4625 101.926 44.3987 101.48L44.1305 99.6031C44.1305 99.6031 43.0423 100.716 43.8297 103.499C44.0762 104.37 43.8297 106.473 43.8297 106.473L45.3737 106.594Z" fill="url(#paint8_linear_4_455)"/>
<path id="Vector_42" d="M95.0049 108.85L95.7188 106.09C95.7188 106.09 95.0324 105.031 95.3619 103.951C95.6914 102.87 95.4933 103.255 95.7589 103.951C96.0246 104.647 96.5493 103.468 96.9592 102.395C97.369 101.321 97.5791 102.971 97.4792 103.951C97.3792 104.93 97.3423 105.513 96.7575 106.227C96.1727 106.942 96.2898 109.483 96.2898 109.483L95.0049 108.85Z" fill="url(#paint9_linear_4_455)"/>
<path id="Vector_43" d="M54.4875 184.814C54.4647 184.206 52.9996 184.328 52.0395 184.42C51.0793 184.512 50.6566 184.898 50.5065 185.258C50.3565 185.618 50.4692 186.506 51.3561 186.134C52.0841 185.828 54.5078 185.352 54.4875 184.814Z" fill="#26264F"/>
<path id="Vector_44" d="M52.7224 182.459L52.0395 184.814C52.0395 184.814 51.3561 185.284 51.1316 185.05L51.386 182.335L52.7224 182.459Z" fill="url(#paint10_linear_4_455)"/>
<path id="Vector_45" d="M57.5473 181.065L55.2856 182.052L55.6653 183.196L57.9302 182.607L57.5473 181.065Z" fill="url(#paint11_linear_4_455)"/>
<path id="Vector_46" d="M57.6759 185.506C57.6759 185.506 56.1688 185.896 55.5023 185.006C55.0736 184.433 54.7169 183.461 54.5169 182.839C54.4083 182.502 54.579 182.139 54.9082 182.008C55.3863 181.817 56.0365 181.612 56.3137 181.768C56.7774 182.029 56.3427 183.762 56.5456 184.214C56.7485 184.666 57.7338 184.956 57.6759 185.506Z" fill="#26264F"/>
<path id="Vector_47" d="M61.1904 145.811C60.8496 151.275 60.0972 157.604 58.5991 164.542C57.0376 171.774 55.0088 178.078 52.9724 183.347C52.7759 183.441 52.4259 183.577 51.9703 183.59C51.4371 183.606 51.0294 183.445 50.8253 183.347C50.4554 180.531 50.2648 178.153 50.159 176.388C49.8793 171.725 49.7524 169.337 50.3873 166.562C50.9831 163.959 51.462 164.162 52.0839 161.284C52.637 158.725 52.6489 156.757 52.65 153.875C52.6507 151.896 52.5601 149.223 52.1777 146.051C55.1819 145.971 58.1861 145.891 61.1904 145.811Z" fill="url(#paint12_linear_4_455)"/>
<path id="Vector_48" opacity="0.3" d="M52.6762 181.422C53.2751 179.494 52.0944 178.613 52.232 176.166C52.4 173.176 54.2413 173.086 54.8233 169.725C55.2909 167.023 54.1523 166.79 54.4531 163.505C54.7727 160.015 56.1475 159.308 55.8598 157.212C55.6997 156.047 55.0204 154.459 52.6387 152.728C52.6068 150.906 52.4909 148.65 52.1776 146.051C55.1819 145.971 58.1861 145.891 61.1903 145.811C60.8496 151.275 60.0971 157.604 58.5991 164.542C57.0375 171.774 55.0087 178.078 52.9723 183.347C52.7759 183.441 52.4259 183.577 51.9703 183.59C51.7285 183.597 51.517 183.566 51.3342 183.523C51.9024 182.972 52.4089 182.283 52.6762 181.422Z" fill="url(#paint13_linear_4_455)"/>
<path id="Vector_49" d="M68.5201 144.848C68.6294 146.165 68.844 148.158 69.3049 150.553C70.3441 155.951 71.5371 157.68 71.8517 161.21C72.2185 165.326 71.0946 168.566 70.6671 169.798C67.7488 178.211 59.7353 182.126 57.6148 183.085C57.3753 182.309 57.1358 181.532 56.8964 180.756C57.4298 180.042 58.22 178.894 58.9651 177.373C60.2373 174.775 60.3228 173.245 61.1905 170.687C62.756 166.072 63.9456 166.726 64.2314 164.376C64.6844 160.652 61.6796 159.149 58.9694 152.03C58.1928 149.99 57.7387 148.273 57.4887 147.217C61.1658 146.428 64.8429 145.638 68.5201 144.848Z" fill="url(#paint14_linear_4_455)"/>
<path id="Vector_50" d="M45.8649 105.461C45.0998 105.338 44.3348 105.214 43.5698 105.091C42.6092 106.442 39.8416 110.712 40.3862 116.418C40.5152 117.771 41.0735 122.257 44.8665 125.827C47.5824 128.383 50.6017 129.186 51.9853 129.463C51.9878 136.109 51.8619 140.299 51.6336 142.807C51.6061 143.11 51.3705 145.647 51.7138 148.92C51.8184 149.918 51.8735 150.422 52.01 150.697C53.9031 154.518 64.757 151.49 67.6887 150.223C68.451 149.894 69.2253 149.435 69.5566 148.624C69.9822 147.582 69.5742 146.637 69.4085 145.811C69.0017 143.782 70.2078 142.25 72.6264 138.314C73.6491 136.65 75.1342 134.151 76.8687 130.907C78.8764 131.493 83.6079 132.543 88.2399 130.333C95.0461 127.086 98.93 118.094 96.95 108.348C96.259 108.151 95.568 107.953 94.877 107.756C94.4196 109.647 93.5379 112.194 91.7316 114.762C90.6357 116.32 89.7231 117.618 88.1397 118.343C85.6535 119.482 83.4455 118.326 80.2178 117.529C75.1318 116.273 70.8792 116.742 65.7133 117.311C60.0695 117.933 58.5227 119.092 54.3963 118.313C52.5609 117.966 50.2633 117.502 48.3822 115.678C44.6815 112.089 45.7113 106.261 45.8649 105.461Z" fill="url(#paint15_linear_4_455)"/>
<path id="Vector_51" d="M66.9509 112.887C66.9509 112.887 67.2893 114.242 66.8126 114.849C66.336 115.456 64.7442 117.783 64.2259 117.896C63.9307 117.961 63.191 118.073 62.609 118.157C62.3027 118.202 62.2377 118.624 62.5217 118.747C63.1004 118.998 64.1212 119.251 65.8739 119.232C68.4073 119.204 70.4451 118.24 71.3334 117.741C71.4596 117.67 71.3998 117.479 71.2556 117.489L70.1155 117.575C69.139 117.649 68.3364 116.816 68.4451 115.843L68.5159 115.209L66.9509 112.887Z" fill="url(#paint16_linear_4_455)"/>
<g id="Group_28">
<g id="Group_29">
<path id="Vector_52" d="M67.9966 115.614C68.1533 115.528 69.4269 115.373 69.6024 114.688C69.8408 113.759 69.0052 112.627 68.9011 112.445C68.4653 111.683 68.3557 111.58 68.153 111.451L67.8719 111.286C67.8719 111.286 67.8555 111.28 67.8386 111.274C67.6591 111.215 67.0518 111.21 66.9295 111.239C66.5386 111.332 66.1566 112.941 66.3271 115.201C66.3127 115.287 66.299 115.374 66.2858 115.462C66.2514 115.691 68.0081 115.695 67.9966 115.614Z" fill="url(#paint17_linear_4_455)"/>
<path id="Vector_53" d="M69.1944 111.142C69.2496 111.418 68.5185 111.968 68.206 112.205C68.1679 112.234 68.0581 112.332 67.9585 112.488C67.944 112.511 67.9313 112.538 67.9204 112.572C67.7769 113.017 68.4908 113.521 68.3597 113.722C68.2647 113.868 67.7831 113.687 67.7292 113.812C67.6784 113.929 68.0804 114.162 68.0228 114.303C67.9794 114.409 67.7331 114.318 67.5828 114.483C67.508 114.565 67.532 114.629 67.4562 114.876C67.4134 115.016 67.3525 115.17 67.3046 115.256C67.0717 115.673 66.3891 115.839 66.2534 115.677C66.2156 115.632 66.2463 115.593 66.2053 115.44C66.2053 115.44 66.1673 115.298 66.0642 115.135C65.9171 114.902 65.5707 114.741 65.2195 114.5C64.5691 114.054 64.3862 113.665 64.331 113.533C64.3248 113.519 64.3193 113.505 64.3146 113.493C64.3051 113.47 64.2971 113.448 64.2902 113.426C64.1528 112.977 64.7222 112.198 64.7222 112.198C65.1791 111.583 65.7562 111.171 66.2175 110.909C67.0612 110.743 67.7482 110.764 68.224 110.816C68.6113 110.859 69.1507 110.923 69.1944 111.142Z" fill="#26264F"/>
<path id="Vector_54" d="M69.4574 113.468C69.4574 113.468 68.9181 114.115 68.2055 113.338L67.8538 113.442C67.8538 113.442 68.7138 115.334 68.8978 115.334C69.0817 115.334 69.6189 115.212 69.6189 115.212C69.8202 115.127 69.9336 114.911 69.8873 114.698C69.8029 114.309 69.5819 113.742 69.4574 113.468Z" fill="#26264F"/>
<path id="Vector_55" d="M68.0344 113.563C67.8573 113.331 67.5605 113.559 67.5656 113.865C67.5708 114.17 67.8738 114.481 68.1594 114.414C68.4452 114.347 68.2727 113.875 68.0344 113.563Z" fill="url(#paint18_linear_4_455)"/>
</g>
</g>
<path id="Vector_56" opacity="0.3" d="M54.8973 149.587C58.5742 150.882 62.8595 148.988 63.9298 146.403C64.7208 144.492 63.0305 142.67 64.2259 140.702C65.377 138.808 67.4559 139.657 68.8902 137.741C70.4533 135.653 68.6138 133.803 70.0008 131.004C71.0442 128.897 73.5428 127.001 75.9977 127.006C78.9157 127.01 80.0056 129.697 82.5129 129.153C83.8226 128.869 83.7922 128.077 85.6224 126.783C88.7987 124.538 90.9285 125.478 93.5443 123.896C94.313 123.431 95.1707 122.718 95.9687 121.572C94.4061 125.541 91.7024 128.681 88.2398 130.333C83.6078 132.543 78.8763 131.493 76.8686 130.908C75.1341 134.151 73.649 136.65 72.6263 138.314C70.2077 142.25 69.0016 143.782 69.4084 145.811C69.5741 146.637 69.982 147.582 69.5565 148.624C69.2253 149.435 68.4509 149.894 67.6886 150.223C64.7568 151.49 53.9031 154.518 52.0099 150.697C51.8734 150.422 51.8183 149.918 51.7137 148.92C51.6485 148.299 51.6043 147.705 51.5756 147.147C52.3323 148.117 53.4008 149.059 54.8973 149.587Z" fill="url(#paint19_linear_4_455)"/>
</g>
</g>
<g id="Group_30">
<path id="Vector_57" d="M145.877 177.86C146.265 178.76 146.721 179.615 147.242 180.416C147.167 180.49 147.092 180.565 147.021 180.646C145.616 182.25 145.528 184.671 146.857 186.042C148.2 187.426 150.441 187.178 151.828 185.504C151.9 185.417 151.966 185.327 152.03 185.237C152.84 185.768 153.694 186.225 154.585 186.603C154.551 186.71 154.52 186.819 154.494 186.931C153.998 189.095 155.128 191.173 157.026 191.532C158.923 191.89 160.813 190.385 161.24 188.209C161.262 188.099 161.276 187.99 161.29 187.88C162.256 187.857 163.229 187.746 164.201 187.547C164.223 187.653 164.247 187.759 164.277 187.864C164.871 189.911 166.83 190.953 168.628 190.166C170.408 189.387 171.313 187.127 170.677 185.14C170.644 185.038 170.606 184.941 170.567 184.844C171.387 184.286 172.155 183.668 172.864 182.995C172.93 183.067 171.853 183.405 171.925 183.473C173.339 184.796 176.561 184.296 177.677 182.707C178.775 181.146 178.514 178.874 177.122 177.62C177.049 177.555 176.974 177.496 176.899 177.439C177.314 176.573 177.664 175.679 177.946 174.766C178.033 174.791 178.12 174.814 178.21 174.832C179.927 175.16 181.484 173.92 181.684 172.093C181.881 170.298 180.691 168.609 179.029 168.29C178.944 168.274 178.86 168.264 178.775 168.255C178.732 167.358 178.621 166.461 178.445 165.573C178.525 165.551 178.605 165.527 178.684 165.497C180.207 164.922 180.911 163.165 180.278 161.588C179.654 160.035 177.956 159.221 176.464 159.755C176.386 159.783 176.312 159.815 176.238 159.849C175.795 159.115 175.306 158.427 174.774 157.789C174.83 157.732 174.885 157.675 174.936 157.613C175.93 156.414 175.724 154.625 174.499 153.609C173.283 152.601 171.495 152.714 170.484 153.868C170.431 153.929 170.382 153.992 170.335 154.057C169.63 153.652 168.896 153.303 168.14 153.01C168.162 152.934 168.183 152.858 168.198 152.779C168.491 151.289 167.577 149.825 164.159 149.508C162.587 149.363 162.907 150.21 162.568 151.692C162.55 151.769 162.538 151.845 162.528 151.921C161.718 151.91 160.898 151.961 160.073 152.074C160.056 151.998 160.037 151.922 160.013 151.847C159.552 150.407 158.446 149.051 154.877 150.104C153.313 150.566 153.938 152.172 154.366 153.648C154.388 153.725 154.415 153.8 154.444 153.873C153.675 154.273 152.939 154.725 152.242 155.227C152.188 155.169 152.133 155.112 152.074 155.058C150.911 154.011 149.003 154.132 147.787 155.336C146.553 156.558 146.484 158.444 147.66 159.539C147.722 159.597 147.787 159.649 147.853 159.7C147.331 160.448 146.861 161.235 146.448 162.056C146.365 162.033 146.28 162.01 146.193 161.993C144.52 161.673 142.721 162.794 142.166 164.527C141.601 166.292 142.537 168.014 144.267 168.345C144.355 168.362 144.444 168.372 144.533 168.381C144.42 169.321 144.378 170.276 144.41 171.24C144.317 171.265 144.224 171.291 144.131 171.325C142.324 171.971 141.147 173.977 141.525 175.826C141.909 177.706 143.742 178.681 145.597 177.981C145.693 177.945 145.785 177.903 145.877 177.86ZM150.722 172.447C149.15 166.129 152.843 159.627 158.714 157.665C164.397 155.766 170.467 158.7 172.531 164.435C174.712 170.494 171.731 177.625 165.564 180.122C159.172 182.712 152.389 179.147 150.722 172.447Z" fill="url(#paint20_linear_4_455)"/>
<path id="Vector_58" d="M144.267 168.345C142.538 168.014 141.601 166.292 142.166 164.527C142.721 162.794 144.52 161.673 146.193 161.994C146.281 162.01 146.365 162.033 146.448 162.056C146.861 161.235 147.331 160.448 147.853 159.7C147.787 159.649 147.722 159.597 147.66 159.539C146.484 158.444 145.364 156.013 146.722 154.899C149.246 152.827 150.911 154.012 152.074 155.058C152.134 155.112 152.188 155.17 152.242 155.227C152.939 154.725 153.675 154.273 154.444 153.873C154.416 153.8 154.388 153.726 154.366 153.648C154.132 152.842 154.304 152.007 154.758 151.337C155.564 153.602 156.367 155.925 157.162 158.311C152.222 160.796 149.293 166.701 150.722 172.447C151.994 177.561 156.282 180.866 161.154 180.951C161.261 181.556 161.363 182.167 161.487 182.774C161.826 184.437 162.262 186.099 162.705 187.783C162.232 187.836 161.76 187.869 161.29 187.88C161.277 187.99 161.262 188.099 161.24 188.209C160.813 190.385 159.252 192.165 155.783 191.654C153.86 191.371 153.999 189.095 154.494 186.931C154.52 186.819 154.552 186.71 154.585 186.603C153.694 186.225 152.84 185.768 152.03 185.237C151.966 185.327 151.9 185.417 151.828 185.504C150.441 187.178 146.804 187.629 145.465 186.241C144.14 184.867 145.616 182.25 147.021 180.646C147.092 180.565 147.167 180.49 147.242 180.416C146.721 179.615 146.265 178.76 145.877 177.859C145.785 177.903 145.693 177.945 145.597 177.981C143.742 178.681 141.909 177.706 141.525 175.826C141.147 173.977 142.324 171.971 144.131 171.325C144.224 171.291 144.317 171.265 144.41 171.24C144.378 170.276 144.42 169.321 144.533 168.381C144.445 168.372 144.356 168.362 144.267 168.345Z" fill="url(#paint21_linear_4_455)"/>
<path id="Vector_59" d="M177.426 168.311C177.341 168.294 177.256 168.284 177.172 168.276C177.135 167.376 177.031 166.478 176.861 165.588C176.942 165.566 177.023 165.542 177.102 165.512C178.635 164.936 179.355 163.176 178.733 161.596C178.119 160.04 176.421 159.225 174.92 159.76C174.842 159.787 174.767 159.82 174.693 159.854C174.255 159.119 173.769 158.43 173.241 157.79C173.297 157.733 173.353 157.676 173.405 157.614C174.411 156.413 174.219 154.621 172.998 153.603C171.786 152.594 169.992 152.706 168.967 153.863C168.914 153.924 168.865 153.987 168.817 154.052C168.112 153.647 167.379 153.297 166.623 153.003C166.645 152.927 166.667 152.851 166.683 152.772C166.988 151.28 165.989 149.847 164.455 149.551C162.921 149.254 161.395 150.199 161.042 151.683C161.024 151.76 161.011 151.837 161 151.913C160.187 151.902 159.364 151.953 158.536 152.066C158.519 151.99 158.501 151.914 158.478 151.839C158.026 150.396 156.422 149.626 154.877 150.104C153.319 150.587 152.379 152.164 152.796 153.643C152.818 153.72 152.845 153.794 152.873 153.868C152.098 154.268 151.356 154.721 150.652 155.224C150.598 155.166 150.544 155.109 150.484 155.055C149.326 154.006 147.411 154.127 146.181 155.333C144.932 156.557 144.847 158.446 146.018 159.544C146.08 159.601 146.145 159.654 146.21 159.704C145.68 160.454 145.202 161.243 144.781 162.066C144.698 162.042 144.613 162.019 144.526 162.002C142.85 161.681 141.035 162.805 140.463 164.541C139.881 166.309 140.807 168.035 142.54 168.366C142.628 168.383 142.717 168.393 142.807 168.402C142.685 169.344 142.635 170.301 142.659 171.266C142.566 171.292 142.473 171.318 142.379 171.352C140.559 172 139.362 174.01 139.725 175.863C140.095 177.746 141.927 178.723 143.795 178.022C143.891 177.985 143.984 177.943 144.076 177.9C144.459 178.803 144.909 179.659 145.425 180.461C145.349 180.536 145.273 180.611 145.201 180.693C143.778 182.3 143.669 184.727 144.992 186.1C146.329 187.487 148.58 187.239 149.986 185.561C150.059 185.474 150.126 185.384 150.191 185.293C151 185.825 151.853 186.283 152.744 186.662C152.71 186.77 152.677 186.879 152.651 186.991C152.135 189.16 153.252 191.242 155.154 191.602C157.055 191.961 158.965 190.452 159.411 188.272C159.434 188.161 159.449 188.052 159.464 187.942C160.433 187.919 161.411 187.807 162.389 187.608C162.41 187.714 162.433 187.821 162.463 187.926C163.041 189.977 165 191.021 166.811 190.233C168.603 189.452 169.53 187.186 168.908 185.195C168.876 185.093 168.838 184.995 168.8 184.898C169.628 184.339 170.403 183.719 171.12 183.045C171.186 183.118 171.252 183.189 171.324 183.257C172.735 184.578 174.821 184.348 175.954 182.757C177.068 181.192 176.824 178.915 175.437 177.659C175.365 177.593 175.29 177.534 175.215 177.477C175.639 176.609 175.997 175.714 176.287 174.799C176.373 174.824 176.461 174.847 176.551 174.865C178.272 175.193 179.844 173.951 180.06 172.12C180.272 170.322 179.091 168.63 177.426 168.311ZM163.818 180.167C157.381 182.762 150.601 179.19 148.984 172.476C147.459 166.146 151.219 159.631 157.126 157.666C162.845 155.764 168.911 158.703 170.936 164.448C173.076 170.519 170.027 177.664 163.818 180.167Z" fill="url(#paint22_linear_4_455)"/>
</g>
</g>
</g>
</g>
<defs>
<linearGradient id="paint0_linear_4_455" x1="139.199" y1="85.2454" x2="74.6116" y2="85.2454" gradientUnits="userSpaceOnUse">
<stop stop-color="#FF8585"/>
<stop offset="1" stop-color="#FB6F6F"/>
</linearGradient>
<linearGradient id="paint1_linear_4_455" x1="113.906" y1="21.5603" x2="120.069" y2="70.4615" gradientUnits="userSpaceOnUse">
<stop offset="0.0036" stop-color="#EA5553"/>
<stop offset="0.3555" stop-color="#E62725"/>
<stop offset="1" stop-color="#CD0402"/>
</linearGradient>
<linearGradient id="paint2_linear_4_455" x1="134.946" y1="49.8791" x2="98.3847" y2="299.713" gradientUnits="userSpaceOnUse">
<stop offset="0.0036" stop-color="#E62725"/>
<stop offset="0.3555" stop-color="#DC0200"/>
<stop offset="1" stop-color="#8F0100"/>
</linearGradient>
<linearGradient id="paint3_linear_4_455" x1="135.707" y1="26.6443" x2="129.822" y2="66.8545" gradientUnits="userSpaceOnUse">
<stop offset="0.0036" stop-color="#ED5351"/>
<stop offset="0.3555" stop-color="#E62725"/>
<stop offset="1" stop-color="#C00503"/>
</linearGradient>
<linearGradient id="paint4_linear_4_455" x1="153.251" y1="79.1367" x2="145.804" y2="106.444" gradientUnits="userSpaceOnUse">
<stop offset="0.0036" stop-color="#E62725"/>
<stop offset="0.3555" stop-color="#E47C7B"/>
<stop offset="1" stop-color="#900806"/>
</linearGradient>
<linearGradient id="paint5_linear_4_455" x1="77.8608" y1="88.6426" x2="47.602" y2="113.114" gradientUnits="userSpaceOnUse">
<stop stop-color="#AB316D"/>
<stop offset="1" stop-color="#792D3D"/>
</linearGradient>
<linearGradient id="paint6_linear_4_455" x1="67.0323" y1="98.3264" x2="132.425" y2="48.266" gradientUnits="userSpaceOnUse">
<stop stop-color="#FFC444"/>
<stop offset="0.9964" stop-color="#F36F56"/>
</linearGradient>
<linearGradient id="paint7_linear_4_455" x1="45.3775" y1="95.1179" x2="95.8597" y2="95.1179" gradientUnits="userSpaceOnUse">
<stop stop-color="#FFC444"/>
<stop offset="0.9964" stop-color="#F36F56"/>
</linearGradient>
<linearGradient id="paint8_linear_4_455" x1="44.2767" y1="105.235" x2="42.2037" y2="119.969" gradientUnits="userSpaceOnUse">
<stop stop-color="#FFC444"/>
<stop offset="0.9964" stop-color="#F36F56"/>
</linearGradient>
<linearGradient id="paint9_linear_4_455" x1="95.2295" y1="112.404" x2="93.1565" y2="127.138" gradientUnits="userSpaceOnUse">
<stop stop-color="#FFC444"/>
<stop offset="0.9964" stop-color="#F36F56"/>
</linearGradient>
<linearGradient id="paint10_linear_4_455" x1="53.5387" y1="178.14" x2="50.406" y2="187.464" gradientUnits="userSpaceOnUse">
<stop stop-color="#FFC444"/>
<stop offset="0.9964" stop-color="#F36F56"/>
</linearGradient>
<linearGradient id="paint11_linear_4_455" x1="57.551" y1="179.522" x2="54.4414" y2="188.777" gradientUnits="userSpaceOnUse">
<stop stop-color="#FFC444"/>
<stop offset="0.9964" stop-color="#F36F56"/>
</linearGradient>
<linearGradient id="paint12_linear_4_455" x1="44.894" y1="173.36" x2="59.6026" y2="156.776" gradientUnits="userSpaceOnUse">
<stop stop-color="#441928"/>
<stop offset="0.9964" stop-color="#893951"/>
</linearGradient>
<linearGradient id="paint13_linear_4_455" x1="44.894" y1="173.36" x2="59.6026" y2="156.776" gradientUnits="userSpaceOnUse">
<stop stop-color="#893951"/>
<stop offset="0.9964" stop-color="#441928"/>
</linearGradient>
<linearGradient id="paint14_linear_4_455" x1="63.3903" y1="163.907" x2="85.1076" y2="159.859" gradientUnits="userSpaceOnUse">
<stop stop-color="#441928"/>
<stop offset="0.9964" stop-color="#893951"/>
</linearGradient>
<linearGradient id="paint15_linear_4_455" x1="73.788" y1="96.7097" x2="60.264" y2="146.363" gradientUnits="userSpaceOnUse">
<stop stop-color="#FF8585"/>
<stop offset="1" stop-color="#FB6F6F"/>
</linearGradient>
<linearGradient id="paint16_linear_4_455" x1="67.6062" y1="115.865" x2="65.163" y2="123.071" gradientUnits="userSpaceOnUse">
<stop stop-color="#FFC444"/>
<stop offset="0.9964" stop-color="#F36F56"/>
</linearGradient>
<linearGradient id="paint17_linear_4_455" x1="36.8226" y1="205.448" x2="34.3794" y2="212.655" gradientUnits="userSpaceOnUse">
<stop stop-color="#FFC444"/>
<stop offset="0.9964" stop-color="#F36F56"/>
</linearGradient>
<linearGradient id="paint18_linear_4_455" x1="-15.8652" y1="249.074" x2="-22.1583" y2="259.217" gradientUnits="userSpaceOnUse">
<stop stop-color="#FFC444"/>
<stop offset="0.9964" stop-color="#F36F56"/>
</linearGradient>
<linearGradient id="paint19_linear_4_455" x1="83.3194" y1="99.3058" x2="69.7954" y2="148.96" gradientUnits="userSpaceOnUse">
<stop stop-color="#FF9085"/>
<stop offset="1" stop-color="#FB6FBB"/>
</linearGradient>
<linearGradient id="paint20_linear_4_455" x1="135.842" y1="182.344" x2="161.738" y2="170.129" gradientUnits="userSpaceOnUse">
<stop stop-color="#311944"/>
<stop offset="1" stop-color="#893976"/>
</linearGradient>
<linearGradient id="paint21_linear_4_455" x1="170.018" y1="166.792" x2="163.621" y2="169.007" gradientUnits="userSpaceOnUse">
<stop stop-color="#311944"/>
<stop offset="1" stop-color="#893976"/>
</linearGradient>
<linearGradient id="paint22_linear_4_455" x1="175.441" y1="190.643" x2="117.273" y2="116.964" gradientUnits="userSpaceOnUse">
<stop stop-color="#FF9085"/>
<stop offset="1" stop-color="#FB6FBB"/>
</linearGradient>
<clipPath id="clip0_4_455">
<rect width="220" height="220" fill="white" transform="translate(0 0.40625)"/>
</clipPath>
</defs>
</svg>
