<svg width="220" height="221" viewBox="0 0 220 221" fill="none" xmlns="http://www.w3.org/2000/svg">
<g id="report 1" clip-path="url(#clip0_4_221)">
<g id="Background">
<g id="Group">
<g id="Group_2">
<path id="Vector" d="M220 0.40625H0V220.406H220V0.40625Z" fill="white"/>
</g>
</g>
</g>
<g id="Illustration">
<g id="Group_3">
<path id="Vector_2" d="M64.0748 31.4817C58.3831 39.7786 65.0567 53.2299 56.6113 59.4699C48.3902 65.5441 38.291 55.5877 30.5432 60.8163C19.0497 68.5726 21.1486 104.064 37.9527 126.116C43.0062 132.747 47.2287 135.328 49.0989 142.828C53.1146 158.932 39.0013 168.512 41.6871 176.477C47.7344 194.412 140.738 209.461 178.055 155.562C195.483 130.389 198.091 94.039 182.519 66.431C154.381 16.5436 76.8459 12.8648 64.0748 31.4817Z" fill="#F4F7FA"/>
<g id="Group_4">
<g id="Group_5">
<g id="Group_6">
<path id="Vector_3" d="M121.872 30.9984L38.5873 28.1795C36.6832 28.1151 35.1365 29.5903 35.1365 31.4748V182.764C35.1365 184.648 36.6832 186.088 38.5873 185.979L121.872 181.244C123.595 181.146 124.989 179.618 124.989 177.83V34.3401C124.989 32.5527 123.595 31.0567 121.872 30.9984Z" fill="url(#paint0_linear_4_221)"/>
<g id="Group_7" opacity="0.3">
<path id="Vector_4" d="M87.7003 142.714C86.2839 125.415 96.9102 118.275 92.858 102.602C87.8491 83.2293 68.5844 82.399 62.0237 63.4015C59.5099 56.1227 58.5168 45.1185 65.7126 29.0976L38.5873 28.1795C36.6832 28.1151 35.1365 29.5903 35.1365 31.4748V182.764C35.1365 184.648 36.6832 186.088 38.5873 185.979L112.849 181.757C93.9553 167.127 88.5709 153.346 87.7003 142.714Z" fill="#D8DEE8"/>
</g>
<path id="Vector_5" opacity="0.3" d="M121.872 32.9087L38.5874 30.1858C37.8069 30.1603 37.1714 30.7676 37.1714 31.5396V182.652C37.1714 183.424 37.8069 184.017 38.5874 183.973L121.872 179.333C122.579 179.294 123.154 178.665 123.154 177.931V34.2815C123.154 33.5476 122.579 32.9318 121.872 32.9087Z" fill="url(#paint1_linear_4_221)"/>
</g>
<g id="Group_8">
<path id="Vector_6" opacity="0.6" d="M106.143 147.306L55.6071 149.127C54.4142 149.17 53.4458 150.171 53.4458 151.363C53.4458 152.555 54.4142 153.484 55.6071 153.438L106.143 151.491C107.265 151.447 108.174 150.477 108.174 149.323C108.174 148.169 107.265 147.266 106.143 147.306Z" fill="url(#paint2_linear_4_221)"/>
<path id="Vector_7" opacity="0.6" d="M106.143 154.76L55.6071 156.806C54.4142 156.854 53.4458 157.86 53.4458 159.051C53.4458 160.243 54.4142 161.168 55.6071 161.117L106.143 158.944C107.265 158.896 108.174 157.921 108.174 156.767C108.174 155.613 107.265 154.714 106.143 154.76Z" fill="url(#paint3_linear_4_221)"/>
<path id="Vector_8" opacity="0.6" d="M106.143 162.213L55.6071 164.485C54.4142 164.538 53.4458 165.548 53.4458 166.74C53.4458 167.932 54.4142 168.852 55.6071 168.795L106.143 166.398C107.265 166.344 108.174 165.366 108.174 164.211C108.174 163.057 107.265 162.163 106.143 162.213Z" fill="url(#paint4_linear_4_221)"/>
</g>
<g id="Group_9">
<path id="Vector_9" opacity="0.6" d="M79.9369 38.9585L54.5162 38.2385C53.9252 38.2218 53.4458 38.6865 53.4458 39.2764C53.4458 39.8663 53.9252 40.3575 54.5162 40.3735L79.9369 41.062C80.5102 41.0776 80.9747 40.6195 80.9747 40.0391C80.9747 39.4585 80.5102 38.9748 79.9369 38.9585Z" fill="url(#paint5_linear_4_221)"/>
<path id="Vector_10" opacity="0.6" d="M79.9369 42.7054L54.5162 42.0415C53.9252 42.0261 53.4458 42.4917 53.4458 43.0817C53.4458 43.6716 53.9252 44.1618 54.5162 44.1765L79.9369 44.8089C80.5102 44.8231 80.9747 44.3641 80.9747 43.7836C80.9747 43.2031 80.5102 42.7204 79.9369 42.7054Z" fill="url(#paint6_linear_4_221)"/>
<path id="Vector_11" opacity="0.6" d="M79.9369 46.4523L54.5162 45.8445C53.9252 45.8304 53.4458 46.2971 53.4458 46.8871C53.4458 47.477 53.9252 47.9661 54.5162 47.9795L79.9369 48.5559C80.5102 48.5688 80.9747 48.1088 80.9747 47.5283C80.9747 46.9477 80.5102 46.466 79.9369 46.4523Z" fill="url(#paint7_linear_4_221)"/>
</g>
</g>
<path id="Vector_12" opacity="0.35" d="M87.892 142.707C86.4759 125.411 97.0998 118.271 93.0485 102.6C88.0407 83.2298 68.7804 82.3996 62.2212 63.4043C59.8117 56.4266 58.7995 46.0241 65.0643 31.0515L38.7902 30.1925C38.0098 30.167 37.3745 30.7742 37.3745 31.5462V182.641C37.3745 183.413 38.0098 184.005 38.7902 183.962L110.78 179.951C93.7092 165.985 88.7264 152.899 87.892 142.707Z" fill="white"/>
</g>
<g id="Group_10">
<path id="Vector_13" d="M171.274 64.3948C173.023 65.283 175.221 64.4674 176.183 62.5733C177.144 60.6791 176.506 58.4235 174.756 57.5354C174.666 57.4894 174.573 57.4507 174.481 57.4137C174.805 56.3656 175.051 55.3093 175.215 54.2526C175.315 54.2523 175.416 54.2506 175.518 54.2415C177.514 54.0636 179.098 52.2297 179.056 50.1451C179.014 48.0606 177.363 46.5149 175.367 46.6929C175.262 46.7023 175.16 46.7187 175.058 46.7368C174.85 45.7038 174.564 44.6946 174.203 43.718C174.295 43.6643 174.387 43.6088 174.476 43.5463C176.183 42.3501 176.729 39.9889 175.695 38.2726C174.661 36.5563 172.439 36.1349 170.731 37.3311C170.644 37.3924 170.561 37.4586 170.48 37.5258C169.805 36.7803 169.066 36.0894 168.266 35.4588C168.322 35.3665 168.377 35.2731 168.427 35.175C169.388 33.2808 170.645 31.2117 168.882 30.351C164.804 28.3601 163.054 30.0645 162.092 31.9586C162.042 32.0567 161.999 32.1564 161.958 32.2562C160.976 31.9822 159.982 31.7927 158.982 31.6882C158.989 31.5829 158.993 31.4774 158.991 31.3706C158.949 29.2862 159.568 28.1581 157.565 28.1191C153.196 28.0342 151.722 29.9304 151.764 32.0148C151.766 32.1237 151.775 32.2303 151.786 32.3361C150.785 32.6214 149.802 32.9863 148.844 33.4276C148.799 33.3346 148.752 33.2422 148.698 33.1525C147.664 31.4362 145.441 31.0147 143.733 32.2111C142.026 33.4074 141.48 35.7685 142.514 37.4847C142.567 37.5727 142.625 37.6549 142.684 37.736C141.928 38.4922 141.22 39.3134 140.565 40.1943C140.481 40.1412 140.395 40.0893 140.304 40.0433C138.555 39.1551 136.357 39.9707 135.395 41.8648C134.434 43.759 135.072 46.0145 136.822 46.9027C136.912 46.9487 137.005 46.9874 137.097 47.0244C136.772 48.0725 136.527 49.1288 136.363 50.1855C136.263 50.1858 136.162 50.1875 136.06 50.1965C134.064 50.3745 132.48 52.2085 132.522 54.293C132.564 56.3775 134.216 57.9231 136.211 57.7451C136.316 57.7359 136.418 57.7195 136.52 57.7013C136.728 58.7344 137.014 59.7434 137.374 60.7201C137.283 60.7738 137.191 60.8293 137.102 60.8918C135.395 62.088 134.849 64.4492 135.883 66.1654C136.917 67.8817 140.34 68.6791 142.048 67.4828C142.135 67.4215 141.017 66.9794 141.098 66.9122C141.772 67.6578 142.512 68.3487 143.312 68.9793C143.256 69.0715 143.201 69.165 143.151 69.2631C142.19 71.1573 142.828 73.4129 144.577 74.301C146.327 75.1892 148.524 74.3736 149.486 72.4795C149.536 72.3814 149.579 72.2817 149.62 72.1819C150.602 72.4559 151.596 72.6454 152.596 72.7499C152.59 72.8552 152.585 72.9607 152.587 73.0676C152.629 75.152 154.28 76.6976 156.276 76.5197C158.272 76.3418 159.856 74.5078 159.814 72.4233C159.812 72.3144 159.803 72.2079 159.792 72.1021C160.793 71.8168 161.777 71.4519 162.734 71.0106C162.779 71.1036 162.826 71.196 162.88 71.2856C163.914 73.0019 166.137 73.4235 167.844 72.2271C169.552 71.0307 170.098 68.6697 169.064 66.9533C169.011 66.8655 168.953 66.7833 168.894 66.7021C169.65 65.9459 170.358 65.1247 171.013 64.2438C171.097 64.2969 171.183 64.3488 171.274 64.3948ZM149.467 64.6715C143.115 61.4468 140.797 53.2574 144.289 46.3801C147.78 39.5027 155.76 36.5418 162.111 39.7665C168.463 42.9913 170.781 51.1806 167.289 58.0579C163.798 64.9353 155.818 67.8963 149.467 64.6715Z" fill="url(#paint8_linear_4_221)"/>
<path id="Vector_14" d="M175.518 54.2415C177.514 54.0636 179.098 52.2295 179.056 50.1451C179.014 48.0606 177.362 46.5149 175.367 46.6929C175.262 46.7022 175.16 46.7187 175.058 46.7368C174.85 45.7037 174.564 44.6947 174.203 43.718C174.295 43.6644 174.387 43.6088 174.476 43.5463C176.183 42.35 178.296 39.4594 177.091 37.8583C174.805 34.8195 172.438 36.1349 170.731 37.3311C170.643 37.3924 170.561 37.4586 170.48 37.5258C169.805 36.7802 169.066 36.0894 168.265 35.4587C168.322 35.3665 168.377 35.2731 168.427 35.175C168.95 34.1441 168.996 33.0075 168.651 32.0412C167.001 34.944 165.374 37.859 163.776 40.7898C168.843 44.5029 170.456 51.8199 167.289 58.058C164.605 63.3442 159.27 66.3125 154.061 65.9405C153.828 66.5432 153.6 67.1491 153.351 67.7459C152.676 69.3656 151.909 70.9518 151.141 72.5361C151.624 72.6272 152.109 72.6989 152.596 72.7498C152.589 72.8552 152.585 72.9607 152.587 73.0675C152.629 75.152 153.894 76.923 157.511 76.7312C159.512 76.6251 159.856 74.5078 159.814 72.4233C159.812 72.3144 159.803 72.2079 159.792 72.1021C160.793 71.8167 161.777 71.4518 162.734 71.0105C162.779 71.1035 162.826 71.1959 162.88 71.2855C163.914 73.0019 167.502 73.731 169.209 72.5347C170.917 71.3384 170.098 68.6697 169.064 66.9533C169.011 66.8654 168.953 66.7832 168.894 66.7021C169.65 65.9459 170.358 65.1247 171.013 64.2438C171.097 64.2969 171.183 64.3488 171.274 64.3947C173.023 65.283 175.221 64.4674 176.182 62.5732C177.144 60.6792 176.506 58.4235 174.756 57.5353C174.666 57.4893 174.573 57.4507 174.48 57.4137C174.805 56.3656 175.05 55.3093 175.215 54.2526C175.315 54.2523 175.416 54.2506 175.518 54.2415Z" fill="url(#paint9_linear_4_221)"/>
<path id="Vector_15" d="M173.155 64.6088C174.905 65.497 177.102 64.6814 178.064 62.7872C179.026 60.8931 178.387 58.6375 176.638 57.7493C176.547 57.7034 176.455 57.6647 176.362 57.6277C176.687 56.5795 176.932 55.5232 177.096 54.4665C177.197 54.4662 177.297 54.4645 177.4 54.4554C179.395 54.2775 180.979 52.4435 180.938 50.359C180.896 48.2744 179.244 46.7288 177.248 46.9067C177.144 46.9161 177.041 46.9325 176.94 46.9507C176.731 45.9176 176.445 44.9085 176.085 43.9319C176.177 43.8782 176.268 43.8227 176.357 43.7602C178.065 42.5639 178.611 40.2028 177.577 38.4865C176.543 36.7702 174.32 36.3487 172.613 37.545C172.525 37.6063 172.443 37.6725 172.361 37.7397C171.687 36.9941 170.947 36.3032 170.147 35.6726C170.203 35.5803 170.258 35.4869 170.308 35.3888C171.27 33.4946 170.631 31.2391 168.882 30.3509C167.133 29.4627 164.935 30.2783 163.973 32.1724C163.923 32.2705 163.88 32.3702 163.839 32.47C162.858 32.196 161.864 32.0065 160.864 31.902C160.87 31.7966 160.875 31.6912 160.873 31.5843C160.831 29.4999 159.179 27.9543 157.183 28.1322C155.187 28.3101 153.603 30.1442 153.645 32.2286C153.647 32.3376 153.657 32.444 153.667 32.5498C152.666 32.8353 151.683 33.2001 150.726 33.6414C150.68 33.5484 150.633 33.456 150.579 33.3662C149.545 31.65 147.323 31.2285 145.615 32.4248C143.907 33.6213 143.362 35.9823 144.396 37.6986C144.449 37.7864 144.507 37.8687 144.566 37.9498C143.809 38.706 143.101 39.5272 142.447 40.4081C142.362 40.355 142.276 40.3032 142.186 40.2571C140.436 39.369 138.239 40.1845 137.277 42.0787C136.315 43.9728 136.954 46.2284 138.703 47.1166C138.794 47.1626 138.886 47.2013 138.979 47.2383C138.654 48.2864 138.409 49.3427 138.245 50.3994C138.144 50.3997 138.044 50.4013 137.941 50.4104C135.946 50.5884 134.362 52.4224 134.403 54.5069C134.445 56.5914 136.097 58.1369 138.093 57.959C138.197 57.9498 138.3 57.9333 138.401 57.9152C138.61 58.9482 138.896 59.9573 139.256 60.934C139.164 60.9877 139.073 61.0432 138.984 61.1057C137.276 62.302 136.73 64.6631 137.764 66.3794C138.798 68.0957 141.021 68.5172 142.728 67.3209C142.816 67.2595 142.898 67.1933 142.979 67.1261C143.654 67.8717 144.394 68.5626 145.194 69.1932C145.138 69.2855 145.083 69.3789 145.033 69.4771C144.071 71.3712 144.71 73.6267 146.459 74.5149C148.208 75.4031 150.406 74.5876 151.368 72.6934C151.417 72.5953 151.46 72.4957 151.502 72.3958C152.483 72.6698 153.477 72.8592 154.477 72.9638C154.471 73.0691 154.466 73.1747 154.468 73.2815C154.51 75.3659 156.162 76.9115 158.158 76.7336C160.153 76.5557 161.738 74.7217 161.696 72.6372C161.694 72.5283 161.684 72.4218 161.674 72.316C162.675 72.0307 163.658 71.6658 164.615 71.2245C164.66 71.3174 164.708 71.4099 164.762 71.4995C165.796 73.2158 168.018 73.6373 169.726 72.441C171.433 71.2446 171.979 68.8836 170.945 67.1672C170.892 67.0794 170.834 66.9972 170.775 66.916C171.531 66.1599 172.24 65.3387 172.894 64.4578C172.979 64.5109 173.065 64.5627 173.155 64.6088ZM151.348 64.8854C144.997 61.6607 142.678 53.4714 146.17 46.594C149.662 39.7166 157.641 36.7557 163.993 39.9805C170.344 43.2053 172.663 51.3946 169.171 58.2719C165.679 65.1493 157.7 68.1102 151.348 64.8854Z" fill="url(#paint10_linear_4_221)"/>
</g>
<g id="Group_11">
<path id="Vector_16" d="M119.656 163.202C115.155 163.126 111.064 152.696 110.709 144.171C110.571 140.873 110.435 137.592 112.34 134.29C115.556 128.716 120.493 130.179 123.377 125.639C127.636 118.934 119.835 111.079 124.07 105.509C127.186 101.412 132.394 104.365 136.172 99.8626C140.554 94.6402 136.277 87.4124 140.335 84.7783C142.692 83.2482 144.756 85.2842 151.54 83.7411C154.195 83.1374 155.522 82.8355 156.635 81.9061C160.538 78.6475 157.551 73.1003 160.439 68.9725C163.618 64.4287 172.007 64.3307 177.227 65.7633C186.58 68.33 192.032 77.5315 193.371 85.313C193.658 86.98 195.352 97.8634 188.438 104.833C183.411 109.9 175.762 110.953 174.521 111.124C169.688 111.789 168.506 110.538 166.951 111.815C162.456 115.504 171.27 126.82 166.168 135.695C164.086 139.318 159.996 141.99 156.124 142.77C149.863 144.033 146.444 139.896 143.335 141.977C139.313 144.669 143.251 152.788 138.887 156.034C135.799 158.331 132.661 155.134 127.223 157.508C122.396 159.616 122.322 163.247 119.656 163.202Z" fill="url(#paint11_linear_4_221)"/>
<path id="Vector_17" opacity="0.5" d="M118.682 155.258C120.759 155.445 120.985 149.847 126.711 141.66C132.963 132.72 137.12 133.065 142.978 124.986C149.665 115.763 145.57 113.488 151.253 106.268C158.954 96.4835 167.273 99.6482 176.576 88.1481C179.367 84.6984 183.064 79.9921 181.595 75.1451C180.322 70.9423 175.332 67.1843 170.446 67.9295C170.242 67.9607 166.143 68.6517 164.009 72.2135C161.392 76.5828 164.78 80.1831 162.251 83.5807C160.927 85.3603 158.519 85.9147 153.704 87.0235C146.778 88.6183 145.382 87.317 143.663 88.8928C139.78 92.4537 145.445 100.438 141.602 104.705C138.302 108.369 132.164 104.661 129.313 108.125C125.871 112.304 133.346 119.483 130.151 126.071C127.401 131.744 120.296 129.646 116.351 135.738C111.692 142.932 115.685 154.988 118.682 155.258Z" fill="#F4F7FA"/>
</g>
<g id="Group_12">
<path id="Vector_18" d="M138.954 178.943C142.777 178.85 142.635 171.823 149.07 169.108C156.189 166.105 161.493 172.54 166.357 169.432C171.822 165.94 167.642 156.208 173.736 151.833C177.9 148.844 181.324 152.329 186.642 149.445C192.186 146.439 197.078 137.983 194.128 130.421C191.667 124.112 184.608 120.63 179.236 121.096C174.84 121.478 173.848 124.305 169.932 123.869C165.052 123.325 164.733 118.73 159.524 117.139C154.341 115.555 147.687 117.974 144.317 122.403C141.515 126.086 141.596 130.354 141.666 134.076C141.855 144.069 146.744 147.464 144.684 151.505C142.115 156.547 133.467 153.293 130.143 158.365C125.983 164.713 133.455 179.076 138.954 178.943Z" fill="url(#paint12_linear_4_221)"/>
<path id="Vector_19" opacity="0.5" d="M136.423 171.817C137.839 171.963 137.822 167.403 141.835 163.216C146.436 158.415 150.415 160.28 155.696 156.334C162.241 151.444 159.1 146.363 164.877 141.484C172.975 134.644 184.362 140.223 186.807 135.031C188.236 131.998 185.834 126.941 182.607 125.52C179.163 124.005 177.171 127.684 171.477 127.394C166.144 127.122 165.531 123.774 158.88 122.69C155.637 122.162 151.377 121.468 148.913 123.754C144.085 128.233 148.251 142.204 149.523 146.469C150.693 150.392 151.575 151.876 150.687 153.602C148.363 158.124 138.906 154.574 135.157 159.574C132.021 163.755 134.594 171.628 136.423 171.817Z" fill="#F4F7FA"/>
</g>
<g id="Group_13">
<g id="Group_14">
<g id="Group_15">
<g id="Group_16">
<path id="Vector_20" d="M137.007 27.7554L50.1721 24.8164C48.1869 24.7491 46.5742 26.2873 46.5742 28.2521V185.99C46.5742 187.954 48.1869 189.455 50.1721 189.342L137.007 184.405C138.803 184.303 140.256 182.709 140.256 180.846V31.2395C140.256 29.376 138.803 27.8162 137.007 27.7554Z" fill="url(#paint13_linear_4_221)"/>
<g id="Group_17" opacity="0.3">
<path id="Vector_21" d="M101.379 144.233C99.9019 126.197 110.981 118.752 106.756 102.411C101.534 82.2127 81.4479 81.347 74.6075 61.5398C71.9866 53.9506 70.9511 42.4774 78.4536 25.7736L50.1721 24.8164C48.1869 24.7492 46.5742 26.2873 46.5742 28.2522V185.99C46.5742 187.954 48.1869 189.455 50.1721 189.342L127.6 184.94C107.9 169.687 102.286 155.318 101.379 144.233Z" fill="#D8DEE8"/>
</g>
<path id="Vector_22" d="M137.007 29.7471L50.1722 26.9082C49.3584 26.8816 48.6958 27.5148 48.6958 28.3197V185.873C48.6958 186.678 49.3584 187.296 50.1722 187.251L137.007 182.413C137.744 182.372 138.343 181.716 138.343 180.951V31.1784C138.343 30.4133 137.744 29.7712 137.007 29.7471Z" fill="url(#paint14_linear_4_221)"/>
</g>
<g id="Group_18">
<path id="Vector_23" d="M120.607 149.021L67.9175 150.919C66.6737 150.964 65.6641 152.008 65.6641 153.251C65.6641 154.493 66.6737 155.462 67.9175 155.414L120.607 153.383C121.777 153.338 122.725 152.326 122.725 151.123C122.725 149.92 121.777 148.979 120.607 149.021Z" fill="#D8DEE8"/>
<path id="Vector_24" d="M120.607 156.792L67.9175 158.925C66.6737 158.976 65.6641 160.024 65.6641 161.267C65.6641 162.509 66.6737 163.473 67.9175 163.42L120.607 161.155C121.777 161.104 122.725 160.088 122.725 158.885C122.725 157.682 121.777 156.745 120.607 156.792Z" fill="#D8DEE8"/>
<path id="Vector_25" d="M120.607 164.563L67.9175 166.931C66.6737 166.987 65.6641 168.04 65.6641 169.283C65.6641 170.525 66.6737 171.485 67.9175 171.426L120.607 168.926C121.777 168.87 122.725 167.85 122.725 166.647C122.725 165.443 121.777 164.51 120.607 164.563Z" fill="#D8DEE8"/>
</g>
<g id="Group_19">
<path id="Vector_26" d="M93.2844 36.0548L66.7801 35.3041C66.164 35.2867 65.6641 35.7711 65.6641 36.3862C65.6641 37.0013 66.1639 37.5134 66.7801 37.5302L93.2844 38.248C93.8821 38.2642 94.3664 37.7867 94.3664 37.1814C94.3664 36.5761 93.8821 36.0718 93.2844 36.0548Z" fill="#D8DEE8"/>
<path id="Vector_27" d="M93.2844 39.9614L66.7801 39.2692C66.164 39.2532 65.6641 39.7387 65.6641 40.3538C65.6641 40.9689 66.1639 41.4799 66.7801 41.4953L93.2844 42.1546C93.8821 42.1695 94.3664 41.6909 94.3664 41.0856C94.3664 40.4803 93.8821 39.977 93.2844 39.9614Z" fill="#D8DEE8"/>
<path id="Vector_28" d="M93.2844 43.868L66.7801 43.2343C66.164 43.2195 65.6641 43.7062 65.6641 44.3213C65.6641 44.9363 66.1639 45.4463 66.7801 45.4603L93.2844 46.0612C93.8821 46.0748 94.3664 45.595 94.3664 44.9898C94.3664 44.3846 93.8821 43.8823 93.2844 43.868Z" fill="#D8DEE8"/>
</g>
</g>
<g id="Group_20">
<g id="Group_21">
<path id="Vector_29" d="M83.0719 85.8288C84.7926 82.5736 88.0131 80.2611 91.7868 79.83L92.0503 63.7437C81.2946 64.0249 72.0298 70.6565 67.8792 80.1622L83.0719 85.8288Z" fill="url(#paint15_linear_4_221)"/>
<path id="Vector_30" d="M104.168 93.1442C103.249 98.4888 98.6617 102.59 93.1087 102.642C91.4671 102.657 89.9046 102.317 88.4919 101.691L80.0625 115.548C83.9592 117.617 88.4059 118.748 93.1087 118.662C107.092 118.406 118.419 107.463 119.696 93.7311L104.168 93.1442Z" fill="url(#paint16_linear_4_221)"/>
<path id="Vector_31" d="M77.4589 113.97L85.9125 100.102C83.3656 98.0116 81.7371 94.8185 81.7371 91.2313C81.7371 90.3646 81.8329 89.5203 82.0132 88.7081L66.8023 83.0626C66.0012 85.6581 65.5693 88.4171 65.5693 91.2769C65.5693 100.747 70.29 109.054 77.4589 113.97Z" fill="url(#paint17_linear_4_221)"/>
</g>
<g id="Group_22">
<path id="Vector_32" d="M94.7988 79.8902C99.8732 80.6808 103.817 84.8931 104.288 90.114L129.987 91.1296C129.987 91.1181 129.987 91.1067 129.987 91.0952C129.987 71.1773 114.78 54.6272 95.2359 53.1572L94.7988 79.8902Z" fill="url(#paint18_linear_4_221)"/>
</g>
</g>
<path id="Vector_33" opacity="0.35" d="M101.578 144.226C100.102 126.192 111.179 118.748 106.955 102.409C101.733 82.2131 81.6522 81.3475 74.8134 61.5426C72.3012 54.2674 71.2458 43.4215 77.7777 27.8107L50.3837 26.9151C49.5701 26.8885 48.9077 27.5217 48.9077 28.3265V185.862C48.9077 186.666 49.5701 187.284 50.3837 187.239L125.442 183.057C107.644 168.496 102.448 154.852 101.578 144.226Z" fill="white"/>
</g>
<g id="Group_23">
<path id="Vector_34" d="M72.5382 70.4659L30.513 70.0476C29.5626 70.0382 28.7913 69.2811 28.7913 68.3567V52.3724C28.7913 51.448 29.5626 50.717 30.513 50.7396L67.0982 51.6111C67.9981 51.6325 68.7267 52.3777 68.7267 53.2756V67.0137L72.5382 70.4659Z" fill="url(#paint19_linear_4_221)"/>
<path id="Vector_35" opacity="0.67" d="M62.8237 57.3877L34.9929 56.8451V54.9288L62.8237 55.5098V57.3877Z" fill="white"/>
<path id="Vector_36" opacity="0.67" d="M62.8237 61.1433L34.9929 60.6776V58.7614L62.8237 59.2655V61.1433Z" fill="white"/>
<path id="Vector_37" opacity="0.67" d="M62.8237 64.899L34.9929 64.5101V62.5938L62.8237 63.0212V64.899Z" fill="white"/>
</g>
<g id="Group_24">
<path id="Vector_38" opacity="0.3" d="M93.3856 124.26L130.932 123.453C131.91 123.432 132.701 124.235 132.701 125.246V142.727C132.701 143.738 131.91 144.584 130.932 144.617L91.3586 145.951C90.3349 145.986 89.5042 145.174 89.5042 144.137V121.286L93.3856 124.26Z" fill="url(#paint20_linear_4_221)"/>
<path id="Vector_39" opacity="0.67" d="M96.1873 139.06L126.292 138.159V140.272L96.1873 141.209V139.06Z" fill="white"/>
<path id="Vector_40" opacity="0.67" d="M96.1873 134.761L126.292 133.934V136.046L96.1873 136.91V134.761Z" fill="white"/>
<path id="Vector_41" opacity="0.67" d="M96.1873 130.461L126.292 129.708V131.821L96.1873 132.611V130.461Z" fill="white"/>
</g>
</g>
<g id="Group_25">
<path id="Vector_42" d="M140.839 184.684C140.839 184.684 135.32 187.208 135.23 187.609C135.141 188.01 138.783 187.466 140.271 187.521C141.759 187.575 142.981 187.132 142.845 186.503C142.709 185.873 142.184 184.289 142.184 184.289L140.839 184.684Z" fill="url(#paint21_linear_4_221)"/>
<path id="Vector_43" d="M140.632 182.646L140.974 185.133C140.974 185.133 141.849 185.442 142.436 185.073L142.68 182.344L140.632 182.646Z" fill="url(#paint22_linear_4_221)"/>
<path id="Vector_44" d="M166.653 182.643L167.299 183.673C167.479 183.962 167.533 184.309 167.448 184.638C167.225 185.496 166.781 187.17 166.586 187.606C166.321 188.201 162.746 188.562 162.746 188.562C162.746 188.562 162.426 188.114 163.167 187.57C163.908 187.027 164.385 186.94 164.645 186.14C164.905 185.339 165.075 183.077 165.075 183.077L166.653 182.643Z" fill="url(#paint23_linear_4_221)"/>
<path id="Vector_45" d="M163.972 180.028C164.207 180.214 165.364 183.697 165.364 183.697C165.364 183.697 165.737 184.172 166.441 183.469C167.146 182.765 166.76 183.153 166.76 183.153L166.619 179.725L163.972 180.028Z" fill="url(#paint24_linear_4_221)"/>
<path id="Vector_46" d="M137.472 132.673C137.198 140.094 137.206 148.157 137.653 156.769C138.157 166.467 139.145 175.429 140.382 183.553C140.835 183.566 141.31 183.567 141.807 183.552C142.143 183.542 142.468 183.525 142.782 183.502C143.409 181.816 144.151 179.598 144.813 176.95C145.51 174.165 145.928 171.668 146.224 169.28C147.268 160.872 146.02 160.141 146.868 153.91C147.62 148.392 148.707 148.174 149.965 140.338C151.329 131.836 150.295 130.563 149.792 130.104C147.653 128.148 142.642 129.495 137.472 132.673Z" fill="url(#paint25_linear_4_221)"/>
<path id="Vector_47" opacity="0.3" d="M149.793 130.104C147.752 128.239 143.098 129.382 138.187 132.248C143.859 138.348 144.486 142.312 143.813 144.887C143.054 147.797 140.725 148.64 140.742 151.82C140.762 155.727 144.291 156.754 144.226 160.889C144.183 163.624 142.633 163.599 142.276 166.977C141.852 170.974 143.88 172.346 143.231 175.305C142.952 176.577 142.151 178.241 139.862 179.959C140.03 181.172 140.203 182.374 140.382 183.553C140.835 183.566 141.31 183.567 141.807 183.552C142.143 183.542 142.468 183.525 142.782 183.502C143.41 181.816 144.151 179.598 144.813 176.95C145.51 174.165 145.928 171.668 146.224 169.28C147.268 160.872 146.02 160.141 146.868 153.91C147.62 148.392 148.707 148.174 149.965 140.338C151.329 131.836 150.295 130.563 149.793 130.104Z" fill="url(#paint26_linear_4_221)"/>
<path id="Vector_48" d="M140.976 132.54C145.865 139.656 151.141 148.516 155.866 159.123C159.437 167.14 162.03 174.668 163.937 181.378C164.194 181.496 164.798 181.731 165.569 181.627C166.621 181.486 167.25 180.813 167.414 180.625C168.172 175.809 168.077 171.733 167.809 168.791C167.637 166.907 167.334 163.771 166.124 159.901C164.768 155.566 163.843 155.324 162.077 150.739C160.245 145.979 160.683 144.79 158.924 138.832C158.202 136.385 156.994 132.743 155.004 128.388C150.328 129.772 145.652 131.156 140.976 132.54Z" fill="url(#paint27_linear_4_221)"/>
<path id="Vector_49" d="M121.116 122.498C121.163 124.23 124.009 125.755 126.3 126.223C131.659 127.317 137.871 123.423 140.82 119.116C141.398 118.271 142.042 117.245 142.197 117.325C142.547 117.504 139.326 122.797 137.93 128.817C137.215 131.896 137.402 133.338 136.066 135.388C135.764 135.853 135.391 136.336 135.522 136.886C135.85 138.262 138.997 138.619 141.18 138.867C143.484 139.129 145.633 139.103 147.758 139.072C151.159 139.023 151.427 138.846 152.203 139.227C154.569 140.388 154.409 143.17 156.189 143.541C157.684 143.852 159.201 142.183 159.681 141.654C162.181 138.902 162.047 135.585 162.49 132.239C163.521 124.461 167.747 115.939 171.881 110.544C173.135 108.908 174.007 108.047 174.061 106.526C174.221 102.063 167.149 97.135 161.262 96.5688C159.648 96.4137 156.758 96.4625 154.049 96.718C152.966 96.8199 151.813 96.9701 150.574 97.1869C147.569 97.7126 145.478 98.0784 143.346 99.0538C134.75 102.987 136.626 111.742 127.321 117.796C124.122 119.877 121.068 120.685 121.116 122.498Z" fill="url(#paint28_linear_4_221)"/>
<path id="Vector_50" d="M156.338 91.9382C156.338 91.9382 156.707 93.9986 157.557 95.4653C158.325 96.7909 161.501 97.266 162.162 97.4968C162.824 97.7274 161.164 98.8797 159.399 99.2974C157.634 99.7153 152.471 99.9884 151.46 99.4327C150.449 98.8771 152.117 98.7072 153.331 98.0686C154.546 97.4301 154.952 94.8346 154.576 93.7311C154.2 92.6275 156.338 91.9382 156.338 91.9382Z" fill="url(#paint29_linear_4_221)"/>
<g id="Group_26">
<path id="Vector_51" d="M152.982 91.3419C151.701 90.4265 151.347 87.951 152.058 87.3953C152.261 87.2365 152.456 87.3095 155.346 88.4689C156.782 89.0449 157.488 89.3514 157.72 89.9854C157.862 90.3724 157.839 90.8951 157.683 91.3071C157.602 91.519 157.444 91.7829 157.095 92.2866C156.784 92.7335 156.805 92.7183 156.71 92.8482C156.481 93.1603 156.04 93.6856 155.232 94.2946C155.187 94.0667 155.116 93.784 154.997 93.4757C154.951 93.357 154.766 92.8933 154.474 92.5027C153.97 91.8303 153.398 91.639 152.982 91.3419Z" fill="url(#paint30_linear_4_221)"/>
<path id="Vector_52" d="M156.265 93.696C156.265 93.696 155.427 94.9445 153.875 94.775C152.485 94.6233 152.417 91.4889 153.337 90.8644C153.643 90.6561 154.242 90.5904 154.72 90.747C155.002 90.8396 155.094 90.9626 155.558 91.1048C155.986 91.236 156.11 91.1933 156.236 91.3091C156.393 91.4538 156.498 91.7963 156.185 92.6981C156.463 92.4404 156.787 92.3511 157.008 92.4678C157.044 92.4864 157.136 92.5557 157.186 92.6567C157.365 93.0223 157.019 93.4639 156.265 93.696Z" fill="url(#paint31_linear_4_221)"/>
</g>
<path id="Vector_53" opacity="0.3" d="M128.633 122.232C132.518 121.357 134.066 121.385 135.987 119.837C139.185 117.26 139.666 113.338 141.525 113.386C142.403 113.408 143.117 114.305 143.624 115.184C143.156 115.917 142.689 116.65 142.221 117.382C142.219 117.354 142.212 117.333 142.197 117.325C142.042 117.246 141.398 118.271 140.82 119.117C137.871 123.423 131.659 127.317 126.3 126.223C124.764 125.909 122.982 125.119 121.958 124.112C124.603 123.218 126.862 122.631 128.633 122.232Z" fill="url(#paint32_linear_4_221)"/>
<path id="Vector_54" d="M122.305 125.572C122.305 125.572 120.113 125.354 118.807 124.796C117.501 124.237 116.657 125.039 116.777 125.595C116.897 126.15 119.046 126.924 119.904 126.951C120.763 126.979 122.305 125.572 122.305 125.572Z" fill="url(#paint33_linear_4_221)"/>
<path id="Vector_55" d="M169.518 137.168C171.872 137.378 177.17 137.474 180.917 134.007C187.155 128.236 184.061 117.251 181.889 112.527C179.4 107.11 175.437 104.078 173.029 102.236C170.042 99.9498 168.218 98.5547 166.024 98.8671C160.351 99.6751 156.421 111.304 159.536 114.633C160.556 115.723 161.565 115.105 164.516 116.045C165.477 116.351 172.65 118.636 173.899 123.918C174.773 127.616 172.547 131.945 168.587 134.853C168.897 135.624 169.208 136.396 169.518 137.168Z" fill="url(#paint34_linear_4_221)"/>
<path id="Vector_56" opacity="0.3" d="M143.137 135.252C145.802 133.569 146.196 131.862 149.18 130.709C153.056 129.211 154.919 131.114 156.84 129.577C159.127 127.749 157.103 124.563 158.814 119.035C159.105 118.097 161.311 110.97 166.374 110.062C168.735 109.638 171.853 110.543 173.054 112.543C173.995 114.109 173.119 115.276 174.262 117.005C175.404 118.732 176.771 118.309 178.227 119.75C180.54 122.038 180.894 126.861 178.806 129.589C177.832 130.862 176.567 131.365 174.186 132.312C172.731 132.89 171.379 133.25 170.215 133.478C173.131 130.68 174.644 127.071 173.899 123.918C173.12 120.625 170.04 118.498 167.598 117.288C165.153 121.888 163.156 127.218 162.49 132.239C162.047 135.585 162.181 138.902 159.681 141.654C159.201 142.183 157.684 143.852 156.189 143.541C154.409 143.17 154.569 140.388 152.203 139.227C151.427 138.846 151.159 139.023 147.758 139.072C145.633 139.103 143.484 139.129 141.18 138.867C139.238 138.646 136.54 138.338 135.734 137.304C139.239 137.209 141.578 136.238 143.137 135.252Z" fill="url(#paint35_linear_4_221)"/>
<g id="Group_27">
<path id="Vector_57" d="M167.973 139.018L168.247 138.211C168.684 136.925 167.966 135.554 166.643 135.151L114.776 119.351L113.196 124.708L164.8 140.603C166.116 141.008 167.537 140.3 167.973 139.018Z" fill="url(#paint36_linear_4_221)"/>
<path id="Vector_58" d="M63.2356 104.838C67.2012 89.1716 82.741 79.73 98.1093 84.1549C113.76 88.6611 122.72 105.618 117.965 121.603C113.321 137.212 97.3975 145.633 82.5385 140.817C67.9362 136.084 59.3602 120.149 63.2356 104.838ZM113.45 120.22C117.38 106.843 109.882 92.6741 96.8129 88.8722C83.9414 85.1277 70.8644 92.9873 67.49 106.142C64.1803 119.043 71.4077 132.491 83.7376 136.453C96.25 140.473 109.598 133.334 113.45 120.22Z" fill="url(#paint37_linear_4_221)"/>
<path id="Vector_59" opacity="0.3" d="M114.776 119.351L121.389 121.366C121.843 123.475 122.725 124.683 123.613 125.419C126.954 128.188 131.414 125.168 137.637 128.415C140.76 130.045 140.167 131.081 143.094 132.218C147.933 134.098 150.148 131.494 154.43 133.205C158.762 134.935 159.189 138.675 161.646 138.541C162.697 138.483 164.049 137.719 165.558 134.82L166.643 135.151C167.966 135.554 168.684 136.925 168.247 138.211L167.973 139.018C167.537 140.3 166.116 141.008 164.8 140.603L113.196 124.708L114.776 119.351Z" fill="#D8DEE8"/>
<path id="Vector_60" opacity="0.56" d="M82.5131 138.597C95.4557 142.762 109.274 135.386 113.27 121.816C117.349 107.963 109.584 93.2865 96.0449 89.3553C82.7176 85.4855 69.1894 93.6325 65.7056 107.246C62.2908 120.59 69.7657 134.495 82.5131 138.597Z" fill="white"/>
<path id="Vector_61" d="M62.231 106.182C66.1965 90.5152 81.7364 81.0736 97.1046 85.4985C112.755 90.0047 121.715 106.962 116.96 122.946C112.316 138.556 96.3928 146.976 81.5337 142.16C66.9316 137.428 58.3556 121.492 62.231 106.182ZM112.446 121.564C116.376 108.186 108.877 94.0177 95.8084 90.2158C82.9368 86.4713 69.8599 94.3309 66.4854 107.485C63.1757 120.387 70.4031 133.835 82.733 137.797C95.2454 141.817 108.593 134.677 112.446 121.564Z" fill="url(#paint38_linear_4_221)"/>
<path id="Vector_62" d="M63.7331 106.642C67.4915 91.864 82.1615 82.9849 96.6452 87.1705C111.379 91.4284 119.821 107.396 115.361 122.456C110.999 137.183 95.9875 145.154 81.957 140.62C68.1555 136.161 60.0554 121.102 63.7331 106.642ZM112.446 121.564C116.376 108.186 108.877 94.0177 95.8083 90.2158C82.9368 86.4713 69.8598 94.3309 66.4854 107.485C63.1757 120.387 70.4031 133.835 82.733 137.797C95.2454 141.817 108.593 134.677 112.446 121.564Z" fill="url(#paint39_linear_4_221)"/>
</g>
<path id="Vector_63" d="M169.318 136.671L168.794 135.369C168.794 135.369 167.939 135.421 167.236 134.917C166.854 134.643 166.175 134.561 165.977 134.616C165.78 134.671 165.035 134.638 165.884 135.043C166.734 135.449 166.727 135.75 166.373 136.082C166.019 136.415 164.672 137.131 164.187 137.165C163.702 137.199 164.578 137.95 165.068 138.045C165.557 138.141 166.359 138.262 167.351 137.678C167.713 137.465 169.318 136.671 169.318 136.671Z" fill="url(#paint40_linear_4_221)"/>
</g>
<g id="Group_28">
<path id="Vector_64" d="M128.568 49.2667C129.244 49.6096 130.092 49.2948 130.464 48.5634C130.835 47.8321 130.589 46.9612 129.913 46.6182C129.878 46.6004 129.842 46.5855 129.807 46.5713C129.932 46.1666 130.027 45.7588 130.09 45.3507C130.129 45.3506 130.168 45.3499 130.207 45.3464C130.978 45.2778 131.589 44.5696 131.573 43.7648C131.557 42.9599 130.919 42.3631 130.149 42.4318C130.109 42.4354 130.069 42.4418 130.03 42.4488C129.949 42.0499 129.839 41.6603 129.7 41.2832C129.735 41.2625 129.77 41.241 129.805 41.2169C130.464 40.755 130.675 39.8434 130.276 39.1807C129.876 38.518 129.018 38.3553 128.359 38.8172C128.325 38.8409 128.293 38.8664 128.262 38.8924C128.002 38.6045 127.716 38.3378 127.407 38.0943C127.429 38.0586 127.45 38.0226 127.469 37.9847C127.84 37.2534 128.326 36.4544 127.645 36.1221C126.07 35.3533 125.394 36.0115 125.023 36.7428C125.004 36.7807 124.987 36.8192 124.971 36.8577C124.592 36.7519 124.208 36.6787 123.822 36.6384C123.825 36.5977 123.827 36.557 123.826 36.5158C123.81 35.711 124.049 35.2754 123.275 35.2604C121.588 35.2276 121.019 35.9597 121.035 36.7646C121.036 36.8066 121.04 36.8477 121.044 36.8886C120.657 36.9988 120.278 37.1397 119.908 37.31C119.89 37.2742 119.872 37.2385 119.851 37.2038C119.452 36.5411 118.594 36.3784 117.935 36.8403C117.275 37.3023 117.065 38.2139 117.464 38.8766C117.484 38.9105 117.507 38.9423 117.529 38.9736C117.237 39.2656 116.964 39.5826 116.711 39.9228C116.679 39.9023 116.646 39.8823 116.611 39.8645C115.935 39.5215 115.087 39.8364 114.715 40.5678C114.344 41.2991 114.591 42.17 115.266 42.513C115.301 42.5307 115.337 42.5456 115.372 42.5599C115.247 42.9646 115.152 43.3724 115.089 43.7805C115.05 43.7806 115.011 43.7812 114.972 43.7847C114.201 43.8535 113.59 44.5616 113.606 45.3665C113.622 46.1714 114.26 46.7681 115.03 46.6994C115.071 46.6959 115.11 46.6895 115.149 46.6825C115.23 47.0814 115.34 47.471 115.479 47.8481C115.444 47.8689 115.409 47.8903 115.374 47.9144C114.715 48.3763 114.504 49.2879 114.903 49.9506C115.303 50.6133 116.625 50.9212 117.284 50.4593C117.318 50.4356 116.886 50.2649 116.917 50.239C117.178 50.5269 117.463 50.7936 117.772 51.0371C117.75 51.0727 117.729 51.1088 117.71 51.1467C117.339 51.878 117.585 52.7489 118.261 53.0919C118.936 53.4348 119.785 53.1199 120.156 52.3886C120.175 52.3507 120.192 52.3122 120.208 52.2737C120.587 52.3794 120.971 52.4526 121.357 52.493C121.354 52.5337 121.352 52.5744 121.353 52.6156C121.369 53.4205 122.007 54.0172 122.778 53.9486C123.548 53.8798 124.16 53.1717 124.144 52.3669C124.143 52.3248 124.139 52.2837 124.135 52.2428C124.522 52.1326 124.902 51.9918 125.271 51.8214C125.289 51.8573 125.307 51.893 125.328 51.9276C125.727 52.5903 126.585 52.753 127.244 52.2911C127.904 51.8292 128.114 50.9175 127.715 50.2548C127.695 50.2209 127.672 50.1892 127.65 50.1579C127.942 49.8659 128.215 49.5488 128.468 49.2087C128.5 49.2289 128.533 49.249 128.568 49.2667ZM120.148 49.3736C117.696 48.1285 116.801 44.9665 118.149 42.311C119.497 39.6556 122.578 38.5123 125.031 39.7574C127.483 41.0025 128.378 44.1646 127.03 46.82C125.682 49.4755 122.601 50.6187 120.148 49.3736Z" fill="url(#paint41_linear_4_221)"/>
<path id="Vector_65" d="M130.207 45.3464C130.978 45.2777 131.589 44.5696 131.573 43.7647C131.557 42.9598 130.919 42.363 130.149 42.4318C130.109 42.4353 130.069 42.4417 130.03 42.4487C129.949 42.0498 129.839 41.6602 129.7 41.2831C129.735 41.2624 129.77 41.241 129.805 41.2168C130.464 40.7549 131.28 39.6388 130.815 39.0206C129.932 37.8473 129.018 38.3551 128.359 38.817C128.325 38.8407 128.293 38.8662 128.262 38.8922C128.001 38.6043 127.716 38.3376 127.407 38.0941C127.429 38.0585 127.45 38.0224 127.469 37.9845C127.671 37.5864 127.689 37.1476 127.556 36.7745C126.919 37.8953 126.291 39.0208 125.674 40.1525C127.63 41.5861 128.253 44.4113 127.03 46.82C125.994 48.861 123.934 50.0071 121.922 49.8635C121.833 50.0962 121.744 50.3301 121.648 50.5606C121.388 51.1859 121.091 51.7984 120.795 52.4101C120.981 52.4453 121.169 52.473 121.357 52.4926C121.354 52.5333 121.352 52.574 121.353 52.6153C121.369 53.4201 121.858 54.1039 123.255 54.0299C124.027 53.9889 124.16 53.1714 124.144 52.3665C124.143 52.3245 124.14 52.2833 124.135 52.2425C124.522 52.1323 124.902 51.9914 125.271 51.821C125.289 51.857 125.307 51.8926 125.328 51.9272C125.727 52.5899 127.112 52.8714 127.771 52.4096C128.431 51.9476 128.115 50.9172 127.715 50.2545C127.695 50.2205 127.672 50.1888 127.65 50.1575C127.942 49.8655 128.215 49.5484 128.468 49.2084C128.5 49.2289 128.533 49.2489 128.568 49.2666C129.244 49.6096 130.092 49.2946 130.464 48.5633C130.835 47.832 130.589 46.961 129.913 46.6181C129.878 46.6003 129.842 46.5854 129.807 46.5711C129.932 46.1664 130.027 45.7586 130.09 45.3506C130.129 45.3505 130.168 45.3499 130.207 45.3464Z" fill="url(#paint42_linear_4_221)"/>
<path id="Vector_66" d="M129.295 49.3493C129.97 49.6923 130.819 49.3774 131.19 48.646C131.562 47.9147 131.315 47.0438 130.64 46.7009C130.605 46.6831 130.569 46.6682 130.533 46.6539C130.659 46.2492 130.753 45.8414 130.817 45.4333C130.855 45.4332 130.894 45.4326 130.934 45.4291C131.704 45.3604 132.316 44.6522 132.3 43.8474C132.284 43.0425 131.646 42.4457 130.875 42.5144C130.835 42.518 130.796 42.5244 130.756 42.5313C130.676 42.1325 130.565 41.7428 130.426 41.3658C130.462 41.345 130.497 41.3236 130.531 41.2995C131.191 40.8376 131.402 39.9259 131.002 39.2633C130.603 38.6006 129.745 38.4379 129.085 38.8997C129.052 38.9234 129.02 38.949 128.989 38.9749C128.728 38.6871 128.442 38.4203 128.133 38.1768C128.155 38.1412 128.176 38.1051 128.196 38.0672C128.567 37.3359 128.321 36.465 127.645 36.1221C126.97 35.7791 126.121 36.094 125.75 36.8253C125.731 36.8632 125.714 36.9017 125.698 36.9403C125.319 36.8345 124.935 36.7613 124.549 36.721C124.552 36.6803 124.553 36.6396 124.553 36.5983C124.536 35.7935 123.899 35.1967 123.128 35.2654C122.357 35.334 121.746 36.0422 121.762 36.847C121.763 36.8891 121.766 36.9302 121.77 36.971C121.384 37.0812 121.004 37.2221 120.635 37.3925C120.617 37.3566 120.599 37.3209 120.578 37.2862C120.179 36.6235 119.321 36.4608 118.661 36.9227C118.002 37.3847 117.791 38.2963 118.191 38.959C118.211 38.9929 118.233 39.0247 118.256 39.056C117.964 39.348 117.691 39.6651 117.438 40.0052C117.405 39.9847 117.372 39.9646 117.337 39.9469C116.662 39.604 115.813 39.9189 115.442 40.6502C115.071 41.3815 115.317 42.2525 115.993 42.5954C116.028 42.6132 116.063 42.6281 116.099 42.6424C115.974 43.047 115.879 43.4549 115.816 43.8629C115.777 43.863 115.738 43.8637 115.699 43.8672C114.928 43.9359 114.316 44.644 114.333 45.4489C114.349 46.2538 114.987 46.8505 115.757 46.7819C115.797 46.7782 115.837 46.772 115.876 46.7649C115.957 47.1637 116.067 47.5534 116.206 47.9305C116.171 47.9512 116.135 47.9726 116.101 47.9968C115.442 48.4587 115.231 49.3703 115.63 50.033C116.03 50.6957 116.888 50.8584 117.547 50.3966C117.581 50.3728 117.613 50.3473 117.644 50.3214C117.904 50.6092 118.19 50.876 118.499 51.1195C118.477 51.1551 118.456 51.1912 118.437 51.2291C118.065 51.9604 118.312 52.8313 118.987 53.1742C119.663 53.5172 120.511 53.2023 120.883 52.4709C120.902 52.433 120.919 52.3946 120.935 52.356C121.313 52.4618 121.697 52.5349 122.083 52.5753C122.081 52.6159 122.079 52.6567 122.08 52.698C122.096 53.5028 122.734 54.0996 123.505 54.0309C124.275 53.9622 124.887 53.2541 124.871 52.4492C124.87 52.4072 124.866 52.366 124.862 52.3251C125.249 52.215 125.628 52.0741 125.998 51.9037C126.015 51.9396 126.034 51.9753 126.054 52.0099C126.454 52.6726 127.312 52.8354 127.971 52.3735C128.63 51.9115 128.841 50.9999 128.442 50.3372C128.422 50.3033 128.399 50.2716 128.376 50.2402C128.668 49.9482 128.942 49.6311 129.194 49.291C129.227 49.3116 129.26 49.3316 129.295 49.3493ZM120.875 49.4562C118.423 48.2111 117.527 45.0491 118.876 42.3937C120.224 39.7382 123.305 38.5949 125.757 39.8401C128.21 41.0852 129.105 44.2472 127.756 46.9026C126.408 49.5581 123.327 50.7013 120.875 49.4562Z" fill="url(#paint43_linear_4_221)"/>
</g>
</g>
</g>
</g>
<defs>
<linearGradient id="paint0_linear_4_221" x1="62.2457" y1="75.2069" x2="107.958" y2="160.722" gradientUnits="userSpaceOnUse">
<stop stop-color="#FF9085"/>
<stop offset="1" stop-color="#FB6FBB"/>
</linearGradient>
<linearGradient id="paint1_linear_4_221" x1="121.264" y1="37.4857" x2="59.7903" y2="138.079" gradientUnits="userSpaceOnUse">
<stop stop-color="white"/>
<stop offset="0.9964" stop-color="#EBEFF2"/>
</linearGradient>
<linearGradient id="paint2_linear_4_221" x1="53.4458" y1="150.372" x2="108.174" y2="150.372" gradientUnits="userSpaceOnUse">
<stop stop-color="white"/>
<stop offset="0.9964" stop-color="#EBEFF2"/>
</linearGradient>
<linearGradient id="paint3_linear_4_221" x1="53.4458" y1="157.938" x2="108.174" y2="157.938" gradientUnits="userSpaceOnUse">
<stop stop-color="white"/>
<stop offset="0.9964" stop-color="#EBEFF2"/>
</linearGradient>
<linearGradient id="paint4_linear_4_221" x1="53.4458" y1="165.504" x2="108.174" y2="165.504" gradientUnits="userSpaceOnUse">
<stop stop-color="white"/>
<stop offset="0.9964" stop-color="#EBEFF2"/>
</linearGradient>
<linearGradient id="paint5_linear_4_221" x1="53.4458" y1="39.6502" x2="80.9747" y2="39.6502" gradientUnits="userSpaceOnUse">
<stop stop-color="white"/>
<stop offset="0.9964" stop-color="#EBEFF2"/>
</linearGradient>
<linearGradient id="paint6_linear_4_221" x1="53.4458" y1="43.4252" x2="80.9747" y2="43.4252" gradientUnits="userSpaceOnUse">
<stop stop-color="white"/>
<stop offset="0.9964" stop-color="#EBEFF2"/>
</linearGradient>
<linearGradient id="paint7_linear_4_221" x1="53.4458" y1="47.2001" x2="80.9747" y2="47.2001" gradientUnits="userSpaceOnUse">
<stop stop-color="white"/>
<stop offset="0.9964" stop-color="#EBEFF2"/>
</linearGradient>
<linearGradient id="paint8_linear_4_221" x1="108.02" y1="27.2433" x2="215.909" y2="82.7995" gradientUnits="userSpaceOnUse">
<stop stop-color="#444B8C"/>
<stop offset="0.9964" stop-color="#3E4177"/>
</linearGradient>
<linearGradient id="paint9_linear_4_221" x1="108.291" y1="26.7177" x2="216.18" y2="82.2739" gradientUnits="userSpaceOnUse">
<stop stop-color="#444B8C"/>
<stop offset="0.9964" stop-color="#3E4177"/>
</linearGradient>
<linearGradient id="paint10_linear_4_221" x1="177.975" y1="23.7203" x2="75.9193" y2="168.037" gradientUnits="userSpaceOnUse">
<stop stop-color="#E62725"/>
<stop offset="0.9964" stop-color="#8F0403"/>
</linearGradient>
<linearGradient id="paint11_linear_4_221" x1="108.395" y1="117.162" x2="195.534" y2="109.789" gradientUnits="userSpaceOnUse">
<stop stop-color="#FF9085"/>
<stop offset="1" stop-color="#FF9085"/>
</linearGradient>
<linearGradient id="paint12_linear_4_221" x1="180.282" y1="108.142" x2="142.907" y2="185.956" gradientUnits="userSpaceOnUse">
<stop stop-color="#FFC444"/>
<stop offset="0.9964" stop-color="#F36F56"/>
</linearGradient>
<linearGradient id="paint13_linear_4_221" x1="129.088" y1="35.8594" x2="87.108" y2="116.71" gradientUnits="userSpaceOnUse">
<stop offset="0.0036" stop-color="#E62725"/>
<stop offset="1" stop-color="#E62725"/>
</linearGradient>
<linearGradient id="paint14_linear_4_221" x1="136.373" y1="34.5192" x2="72.2789" y2="139.4" gradientUnits="userSpaceOnUse">
<stop stop-color="white"/>
<stop offset="0.9964" stop-color="#EBEFF2"/>
</linearGradient>
<linearGradient id="paint15_linear_4_221" x1="78.7767" y1="61.2129" x2="84.51" y2="113.042" gradientUnits="userSpaceOnUse">
<stop stop-color="#FFC444"/>
<stop offset="0.9964" stop-color="#F36F56"/>
</linearGradient>
<linearGradient id="paint16_linear_4_221" x1="98.8159" y1="102.492" x2="121.768" y2="148.851" gradientUnits="userSpaceOnUse">
<stop offset="0.0036" stop-color="#E38DDD"/>
<stop offset="1" stop-color="#9571F6"/>
</linearGradient>
<linearGradient id="paint17_linear_4_221" x1="65.322" y1="83.8556" x2="96.0602" y2="123.376" gradientUnits="userSpaceOnUse">
<stop stop-color="#AA80F9"/>
<stop offset="0.9964" stop-color="#6165D7"/>
</linearGradient>
<linearGradient id="paint18_linear_4_221" x1="129.085" y1="49.1711" x2="104.523" y2="83.4223" gradientUnits="userSpaceOnUse">
<stop stop-color="#FF9085"/>
<stop offset="1" stop-color="#FB6FBB"/>
</linearGradient>
<linearGradient id="paint19_linear_4_221" x1="54.7485" y1="47.9181" x2="31.1151" y2="125.348" gradientUnits="userSpaceOnUse">
<stop stop-color="#FFC444"/>
<stop offset="0.9964" stop-color="#F36F56"/>
</linearGradient>
<linearGradient id="paint20_linear_4_221" x1="83.4615" y1="170.861" x2="117.702" y2="123.112" gradientUnits="userSpaceOnUse">
<stop stop-color="#FF9085"/>
<stop offset="1" stop-color="#FB6FBB"/>
</linearGradient>
<linearGradient id="paint21_linear_4_221" x1="138.141" y1="175.977" x2="139.556" y2="193.444" gradientUnits="userSpaceOnUse">
<stop stop-color="#311944"/>
<stop offset="1" stop-color="#A03976"/>
</linearGradient>
<linearGradient id="paint22_linear_4_221" x1="141.708" y1="185.695" x2="141.415" y2="167.602" gradientUnits="userSpaceOnUse">
<stop stop-color="#FFC444"/>
<stop offset="0.9964" stop-color="#F36F56"/>
</linearGradient>
<linearGradient id="paint23_linear_4_221" x1="164.076" y1="173.877" x2="165.49" y2="191.344" gradientUnits="userSpaceOnUse">
<stop stop-color="#311944"/>
<stop offset="1" stop-color="#A03976"/>
</linearGradient>
<linearGradient id="paint24_linear_4_221" x1="165.48" y1="185.31" x2="165.187" y2="167.217" gradientUnits="userSpaceOnUse">
<stop stop-color="#FFC444"/>
<stop offset="0.9964" stop-color="#F36F56"/>
</linearGradient>
<linearGradient id="paint25_linear_4_221" x1="137.319" y1="156.394" x2="150.697" y2="156.362" gradientUnits="userSpaceOnUse">
<stop stop-color="#441919"/>
<stop offset="0.9964" stop-color="#893939"/>
</linearGradient>
<linearGradient id="paint26_linear_4_221" x1="137.319" y1="156.395" x2="150.697" y2="156.363" gradientUnits="userSpaceOnUse">
<stop stop-color="#8C445E"/>
<stop offset="0.9964" stop-color="#773E48"/>
</linearGradient>
<linearGradient id="paint27_linear_4_221" x1="141.03" y1="155.066" x2="167.962" y2="155.002" gradientUnits="userSpaceOnUse">
<stop stop-color="#44192B"/>
<stop offset="0.9964" stop-color="#89393E"/>
</linearGradient>
<linearGradient id="paint28_linear_4_221" x1="163.438" y1="94.163" x2="133.094" y2="143.982" gradientUnits="userSpaceOnUse">
<stop stop-color="#E62725"/>
<stop offset="0.9964" stop-color="#C00F0D"/>
</linearGradient>
<linearGradient id="paint29_linear_4_221" x1="157.281" y1="93.5284" x2="154.423" y2="118.74" gradientUnits="userSpaceOnUse">
<stop stop-color="#FFC444"/>
<stop offset="0.9964" stop-color="#F36F56"/>
</linearGradient>
<linearGradient id="paint30_linear_4_221" x1="158.057" y1="99.4074" x2="154.025" y2="87.5441" gradientUnits="userSpaceOnUse">
<stop stop-color="#444B8C"/>
<stop offset="0.9964" stop-color="#3E4177"/>
</linearGradient>
<linearGradient id="paint31_linear_4_221" x1="154.709" y1="90.6266" x2="156.954" y2="109.203" gradientUnits="userSpaceOnUse">
<stop stop-color="#FFC444"/>
<stop offset="0.9964" stop-color="#F36F56"/>
</linearGradient>
<linearGradient id="paint32_linear_4_221" x1="121.958" y1="119.897" x2="143.624" y2="119.897" gradientUnits="userSpaceOnUse">
<stop stop-color="#FC5856"/>
<stop offset="0.9964" stop-color="#E62725"/>
</linearGradient>
<linearGradient id="paint33_linear_4_221" x1="117.348" y1="124.35" x2="121.516" y2="126.875" gradientUnits="userSpaceOnUse">
<stop stop-color="#FFC444"/>
<stop offset="0.9964" stop-color="#F36F56"/>
</linearGradient>
<linearGradient id="paint34_linear_4_221" x1="179.856" y1="104.163" x2="149.512" y2="153.982" gradientUnits="userSpaceOnUse">
<stop stop-color="#E62725"/>
<stop offset="0.9964" stop-color="#B00301"/>
</linearGradient>
<linearGradient id="paint35_linear_4_221" x1="135.734" y1="126.769" x2="180.185" y2="126.769" gradientUnits="userSpaceOnUse">
<stop stop-color="#FF4442"/>
<stop offset="0.9964" stop-color="#FF5F5D"/>
</linearGradient>
<linearGradient id="paint36_linear_4_221" x1="113.196" y1="130.034" x2="168.375" y2="130.034" gradientUnits="userSpaceOnUse">
<stop stop-color="#C00F0D"/>
<stop offset="0.9964" stop-color="#8A0706"/>
</linearGradient>
<linearGradient id="paint37_linear_4_221" x1="62.3052" y1="112.616" x2="119.24" y2="112.616" gradientUnits="userSpaceOnUse">
<stop stop-color="#792D3D"/>
<stop offset="0.9964" stop-color="#6B3B3B"/>
</linearGradient>
<linearGradient id="paint38_linear_4_221" x1="83.0873" y1="144.616" x2="92.2439" y2="102.564" gradientUnits="userSpaceOnUse">
<stop stop-color="#792D3D"/>
<stop offset="0.9964" stop-color="#773E48"/>
</linearGradient>
<linearGradient id="paint39_linear_4_221" x1="96.7048" y1="83.0773" x2="93" y2="103.906" gradientUnits="userSpaceOnUse">
<stop stop-color="#89393E"/>
<stop offset="0.9964" stop-color="#89393E"/>
</linearGradient>
<linearGradient id="paint40_linear_4_221" x1="165.342" y1="140.416" x2="167.583" y2="134.635" gradientUnits="userSpaceOnUse">
<stop stop-color="#FFC444"/>
<stop offset="0.9964" stop-color="#F36F56"/>
</linearGradient>
<linearGradient id="paint41_linear_4_221" x1="104.145" y1="34.9221" x2="145.803" y2="56.373" gradientUnits="userSpaceOnUse">
<stop stop-color="#444B8C"/>
<stop offset="0.9964" stop-color="#3E4177"/>
</linearGradient>
<linearGradient id="paint42_linear_4_221" x1="104.25" y1="34.7191" x2="145.907" y2="56.17" gradientUnits="userSpaceOnUse">
<stop stop-color="#444B8C"/>
<stop offset="0.9964" stop-color="#3E4177"/>
</linearGradient>
<linearGradient id="paint43_linear_4_221" x1="131.156" y1="33.5618" x2="91.7508" y2="89.2845" gradientUnits="userSpaceOnUse">
<stop stop-color="#E62725"/>
<stop offset="0.9964" stop-color="#A00604"/>
</linearGradient>
<clipPath id="clip0_4_221">
<rect width="220" height="220" fill="white" transform="translate(0 0.40625)"/>
</clipPath>
</defs>
</svg>
