<svg width="221" height="221" viewBox="0 0 221 221" fill="none" xmlns="http://www.w3.org/2000/svg">
<g id="12291040_Wavy_Tech-19_Single-09 1" clip-path="url(#clip0_3_33)">
<g id="Background">
<g id="Group">
<g id="Group_2">
<path id="Vector" d="M220.333 0.40625H0.333252V220.406H220.333V0.40625Z" fill="white"/>
</g>
</g>
</g>
<g id="Illustration">
<g id="Group_3">
<path id="Vector_2" d="M188.949 97.1206C184.502 68.0129 166.269 32.2521 130.248 28.5096C130.248 28.5096 102.9 25.1831 75.94 30.2248C59.9395 33.217 45.9093 42.1243 37.0316 54.9263C28.1538 67.7283 25.1883 83.3385 28.7873 98.2209C31.1248 107.887 32.7043 117.891 32.2708 127.824C31.5163 145.111 31.9504 161.247 48.7269 171.556C63.7064 180.762 82.5584 188.88 100.543 190.302C112.766 191.269 126.473 189.705 138.253 186.523C198.287 170.306 193.395 126.228 188.949 97.1206Z" fill="#F4F7FA"/>
<g id="Group_4">
<path id="Vector_3" d="M151.906 167.592C148.77 168.957 143.492 171.254 137.157 169.989C125.64 167.689 118.11 155.107 116.015 144.804C114.216 135.954 117.042 126.799 122.693 108.49C128.016 91.2454 131.253 87.0237 128.412 81.6872C124.362 74.0793 113.685 74.9621 110.291 65.3785C109.884 64.2284 108.485 60.2786 110.249 56.838C113.27 50.9481 123.441 50.6843 129.321 51.8736C134.993 53.0207 143.327 56.8659 145.502 63.8664C147.078 68.9383 144.082 71.3578 146.376 75.3027C148.684 79.2718 152.413 78.0196 158.524 82.5784C160.965 84.3996 165.865 88.0553 167.196 93.6628C168.918 100.913 163.113 104.864 165.727 109.885C167.615 113.513 171.262 112.637 174.201 116.195C178.07 120.88 176.462 128.106 175.044 134.102C173.374 141.162 168.868 160.21 151.906 167.592Z" fill="url(#paint0_linear_3_33)"/>
<path id="Vector_4" opacity="0.16" d="M114.042 56.4717C113.13 60.4186 127.169 61.6008 134.283 73.4987C141.937 86.3002 136.903 103.697 134.577 111.737C130.608 125.454 125.707 127.747 125.587 139.263C125.539 143.82 125.44 153.316 132.467 160.003C133.12 160.624 140.503 167.442 149.404 165.772C159.5 163.877 163.873 152.503 167.641 142.702C169.918 136.78 174.466 124.949 169.643 120.843C166.695 118.332 160.924 119.286 157.312 121.322C152.156 124.228 150.69 129.736 149.631 129.342C148.676 128.988 148.946 124.177 150.749 119.162C154.356 109.131 160.407 108.535 162.453 100.388C162.701 99.4002 164.553 91.5468 159.963 86.2842C157.315 83.2491 152.456 80.9968 149.493 82.5718C146.143 84.3531 146.663 90.2611 145.5 90.2492C144.387 90.2379 143.235 84.8293 142.877 79.3175C142.351 71.2189 143.978 69.6458 142.662 65.4082C140.655 58.9431 134.714 55.6701 133.853 55.2118C125.788 50.9177 114.822 53.0973 114.042 56.4717Z" fill="white"/>
</g>
<g id="Group_5">
<path id="Vector_5" d="M145.733 175.342C143.419 174.613 139.523 173.385 136.721 169.757C131.627 163.163 133.454 152.921 137.131 146.43C140.289 140.854 146.065 137.269 157.616 130.099C168.496 123.345 172.195 122.593 173.159 118.413C174.533 112.454 168.406 107.955 171.052 101.243C171.369 100.438 172.46 97.6722 175.007 96.652C179.367 94.9055 184.934 99.5004 187.528 102.875C190.031 106.13 192.702 112.07 190.606 116.83C189.088 120.28 186.358 120.18 185.749 123.36C185.136 126.559 187.715 127.625 188.864 132.912C189.323 135.023 190.244 139.263 188.346 142.884C185.891 147.568 180.944 146.979 180.005 150.884C179.326 153.706 181.687 154.935 181.603 158.209C181.493 162.518 177.267 165.638 173.716 168.188C169.534 171.19 158.252 179.289 145.733 175.342Z" fill="url(#paint1_linear_3_33)"/>
<path id="Vector_6" opacity="0.16" d="M176.651 98.498C174.325 100.186 181.291 107.357 179.558 117.039C177.695 127.456 166.899 134.426 161.91 137.647C153.397 143.142 149.706 142.087 144.279 148.196C142.131 150.614 137.656 155.651 138.305 162.503C138.365 163.14 139.143 170.228 144.685 173.479C150.972 177.166 158.61 173.113 165.191 169.62C169.168 167.51 177.112 163.295 176.442 158.851C176.033 156.134 172.5 153.957 169.617 153.365C165.504 152.519 162.154 154.786 161.77 154.082C161.425 153.447 163.809 150.998 167.11 149.153C173.712 145.462 177.229 147.961 182.118 144.552C182.711 144.139 187.359 140.796 187.352 135.842C187.348 132.984 185.796 129.516 183.476 128.979C180.853 128.372 178.381 131.778 177.763 131.23C177.173 130.705 179.075 127.273 181.45 124.156C184.939 119.575 186.543 119.491 187.812 116.61C189.748 112.214 188.091 107.695 187.844 107.049C185.526 100.994 178.64 97.0545 176.651 98.498Z" fill="white"/>
</g>
<g id="Group_6">
<path id="Vector_7" d="M78.5561 101.033C80.4816 102.743 83.5435 102.44 85.395 100.355C87.2466 98.27 87.1867 95.1936 85.2613 93.4836C85.1616 93.395 85.057 93.3152 84.9516 93.2373C85.7131 92.0147 86.3758 90.7552 86.9363 89.4682C87.0637 89.5012 87.192 89.5325 87.3248 89.555C89.918 89.9935 92.5397 88.1923 93.1806 85.5317C93.8214 82.8711 92.2387 80.3588 89.6454 79.9203C89.5099 79.8975 89.3743 79.8842 89.2389 79.8733C89.3181 78.4924 89.2913 77.1161 89.1589 75.7561C89.2933 75.7184 89.4278 75.6783 89.5619 75.6287C92.128 74.6783 93.6073 71.8621 92.8656 69.3388C92.124 66.8155 89.4423 65.5406 86.8762 66.4909C86.7446 66.5397 86.6181 66.5963 86.4924 66.6546C85.8844 65.4835 85.1752 64.36 84.3689 63.293C84.4711 63.1946 84.5721 63.0942 84.668 62.9862C86.5196 60.9015 88.804 58.6927 86.8521 57.0131C82.3366 53.1275 79.5472 54.7089 77.6955 56.7937C77.5996 56.9018 77.5119 57.014 77.4262 57.1269C76.2714 56.4524 75.0721 55.8809 73.8374 55.4153C73.8804 55.2837 73.9217 55.1513 73.9546 55.0149C74.5954 52.3545 75.7562 51.1282 73.2255 50.4118C67.7071 48.8497 65.2044 50.7666 64.5636 53.4269C64.5301 53.566 64.5062 53.7043 64.4846 53.8422C63.1185 53.8713 61.7487 54.0073 60.3867 54.249C60.3599 54.1158 60.3308 53.9827 60.2921 53.8508C59.5504 51.3275 56.8689 50.0526 54.3026 51.0031C51.7363 51.9536 50.2572 54.7696 50.9989 57.2929C51.0369 57.4222 51.0832 57.5459 51.131 57.6685C49.9192 58.377 48.7467 59.1839 47.6226 60.0845C47.5329 59.9889 47.4412 59.8944 47.3414 59.8059C45.416 58.0959 42.3541 58.3997 40.5025 60.4846C38.6509 62.5694 38.7107 65.6457 40.6362 67.3557C40.7359 67.4444 40.8405 67.5242 40.946 67.6021C40.1844 68.8247 39.5216 70.0842 38.9613 71.3712C38.8338 71.3382 38.7055 71.3068 38.5728 71.2843C35.9794 70.8459 33.3577 72.6471 32.7168 75.3077C32.076 77.9682 33.6589 80.4805 36.2521 80.9189C36.3875 80.9418 36.5231 80.9551 36.6585 80.966C36.5793 82.347 36.606 83.7233 36.7384 85.0833C36.6041 85.121 36.4696 85.1611 36.3355 85.2107C33.7693 86.1611 32.2901 88.9773 33.0318 91.5006C33.7734 94.024 37.8548 96.176 40.421 95.2255C40.5525 95.1767 39.2793 94.2431 39.4049 94.1849C40.013 95.356 40.7222 96.4795 41.5283 97.5465C41.4263 97.6449 41.3252 97.7452 41.2293 97.8533C39.3777 99.9381 39.4375 103.014 41.3629 104.724C43.2883 106.434 46.3502 106.131 48.2018 104.046C48.2977 103.938 48.3853 103.826 48.471 103.713C49.6258 104.387 50.8251 104.959 52.0598 105.424C52.0168 105.556 51.9756 105.688 51.9427 105.825C51.3019 108.485 52.8846 110.997 55.4779 111.436C58.0712 111.874 60.6929 110.073 61.3337 107.413C61.3672 107.274 61.3911 107.135 61.4125 106.997C62.7787 106.968 64.1485 106.832 65.5105 106.591C65.5373 106.724 65.5665 106.857 65.6052 106.989C66.3469 109.512 69.0283 110.787 71.5946 109.837C74.1609 108.886 75.64 106.07 74.8984 103.547C74.8604 103.417 74.8141 103.294 74.7663 103.171C75.978 102.463 77.1506 101.656 78.2746 100.755C78.3647 100.85 78.4564 100.945 78.5561 101.033ZM50.7762 94.1255C43.7856 87.9168 43.5683 76.7473 50.291 69.1778C57.0138 61.6082 68.1307 60.5051 75.1214 66.7138C82.1122 72.9225 82.3294 84.0919 75.6068 91.6614C68.8839 99.231 57.767 100.334 50.7762 94.1255Z" fill="url(#paint2_linear_3_33)"/>
<path id="Vector_8" d="M87.3249 89.555C89.9182 89.9934 92.5398 88.1921 93.1808 85.5316C93.8216 82.8711 92.2389 80.3588 89.6456 79.9203C89.51 79.8974 89.3744 79.8843 89.239 79.8733C89.3183 78.4923 89.2914 77.1161 89.159 75.756C89.2934 75.7185 89.4279 75.6783 89.5621 75.6286C92.1282 74.6782 95.7727 71.7114 94.7761 69.2775C92.8847 64.6581 89.4425 65.5405 86.8763 66.4909C86.7448 66.5396 86.6183 66.5962 86.4927 66.6544C85.8845 65.4833 85.1754 64.3599 84.3691 63.2928C84.4713 63.1945 84.5723 63.0942 84.6682 62.9862C85.676 61.8516 86.113 60.4238 85.9957 59.0819C82.9354 62.2185 79.8992 65.3779 76.8948 68.5672C82.0921 74.9681 81.7046 84.7954 75.6067 91.6614C70.4394 97.4797 62.6774 99.4724 56.1871 97.266C55.6915 97.9539 55.2001 98.6473 54.6854 99.3221C53.2889 101.154 51.7868 102.913 50.2842 104.668C50.8673 104.945 51.4594 105.197 52.0602 105.424C52.0173 105.556 51.976 105.688 51.9431 105.824C51.3022 108.485 52.3196 111.155 56.9759 112.115C59.5518 112.647 60.6932 110.073 61.334 107.412C61.3675 107.273 61.3915 107.135 61.413 106.997C62.7791 106.968 64.1489 106.832 65.5108 106.59C65.5377 106.724 65.5668 106.857 65.6056 106.988C66.3473 109.512 70.6593 111.632 73.2256 110.681C75.7919 109.731 75.6404 106.07 74.8988 103.546C74.8608 103.417 74.8145 103.293 74.7667 103.171C75.9785 102.462 77.151 101.655 78.275 100.755C78.3648 100.85 78.4565 100.945 78.5562 101.033C80.4816 102.743 83.5436 102.439 85.3952 100.355C87.2467 98.2699 87.1869 95.1934 85.2615 93.4835C85.1617 93.3949 85.0571 93.315 84.9517 93.2372C85.7132 92.0146 86.376 90.7549 86.9364 89.4681C87.0638 89.5012 87.1921 89.5325 87.3249 89.555Z" fill="url(#paint3_linear_3_33)"/>
<path id="Vector_9" d="M80.8738 101.931C82.7991 103.641 85.8611 103.338 87.7127 101.253C89.5642 99.1679 89.5044 96.0916 87.5789 94.3816C87.4792 94.293 87.3747 94.2131 87.2692 94.1352C88.0307 92.9127 88.6935 91.6531 89.2539 90.3661C89.3813 90.3991 89.5096 90.4305 89.6424 90.4529C92.2357 90.8914 94.8573 89.0902 95.4982 86.4297C96.1391 83.7691 94.5564 81.2568 91.9631 80.8183C91.8276 80.7954 91.692 80.7822 91.5566 80.7713C91.6358 79.3902 91.609 78.014 91.4766 76.654C91.6111 76.6163 91.7455 76.5763 91.8796 76.5266C94.4458 75.5762 95.925 72.7601 95.1833 70.2367C94.4416 67.7134 91.7601 66.4383 89.1938 67.3889C89.0623 67.4376 88.9358 67.4942 88.8101 67.5525C88.202 66.3814 87.4928 65.2579 86.6866 64.1909C86.7888 64.0925 86.8898 63.9921 86.9858 63.8842C88.8373 61.7994 88.7775 58.7231 86.8521 57.013C84.9267 55.303 81.8648 55.6069 80.0133 57.6917C79.9174 57.7996 79.8297 57.9119 79.744 58.0249C78.5893 57.3503 77.3899 56.7788 76.1553 56.3133C76.1982 56.1816 76.2395 56.0493 76.2724 55.9129C76.9132 53.2525 75.3304 50.7402 72.7371 50.3017C70.1439 49.8632 67.5221 51.6645 66.8813 54.3249C66.8478 54.4639 66.8239 54.6022 66.8024 54.7401C65.4363 54.7692 64.0665 54.9051 62.7045 55.1469C62.6777 55.0137 62.6486 54.8807 62.6099 54.7487C61.8683 52.2254 59.1866 50.9504 56.6204 51.9009C54.0541 52.8515 52.5751 55.6675 53.3166 58.1908C53.3547 58.3201 53.401 58.4439 53.4488 58.5664C52.237 59.2749 51.0645 60.0817 49.9404 60.9824C49.8507 60.8868 49.759 60.7924 49.6592 60.7039C47.7338 58.9938 44.672 59.2977 42.8203 61.3825C40.9687 63.4673 41.0286 66.5437 42.9539 68.2537C43.0537 68.3423 43.1583 68.4221 43.2638 68.5C42.5023 69.7226 41.8394 70.9822 41.2791 72.2691C41.1517 72.2362 41.0233 72.2048 40.8906 72.1822C38.2973 71.7438 35.6756 73.545 35.0347 76.2056C34.3939 78.8661 35.9767 81.3783 38.5699 81.8168C38.7054 81.8398 38.841 81.853 38.9763 81.8639C38.8971 83.2449 38.9239 84.6212 39.0563 85.9812C38.9219 86.0188 38.7875 86.0588 38.6533 86.1086C36.0872 87.059 34.608 89.8752 35.3496 92.3984C36.0912 94.9218 38.7729 96.1968 41.339 95.2463C41.4706 95.1975 41.5972 95.1409 41.7228 95.0827C42.3309 96.2539 43.04 97.3773 43.8463 98.4443C43.7442 98.5428 43.6431 98.643 43.5472 98.7511C41.6956 100.836 41.7554 103.912 43.6808 105.622C45.6062 107.332 48.6681 107.028 50.5197 104.944C50.6156 104.836 50.7033 104.723 50.7889 104.61C51.9437 105.285 53.1431 105.856 54.3777 106.322C54.3348 106.454 54.2934 106.586 54.2606 106.722C53.6198 109.383 55.2025 111.895 57.7958 112.334C60.389 112.772 63.0108 110.971 63.6516 108.31C63.6851 108.171 63.709 108.033 63.7304 107.895C65.0966 107.866 66.4663 107.73 67.8283 107.488C67.8551 107.622 67.8844 107.755 67.9231 107.886C68.6648 110.41 71.3463 111.685 73.9125 110.734C76.4788 109.784 77.9578 106.968 77.2163 104.444C77.1782 104.315 77.1319 104.191 77.0841 104.069C78.2959 103.36 79.4684 102.553 80.5925 101.653C80.6823 101.748 80.774 101.843 80.8738 101.931ZM53.0939 95.0235C46.1032 88.8148 45.8859 77.6454 52.6086 70.0758C59.3315 62.5063 70.4482 61.4031 77.439 67.6118C84.4297 73.8206 84.647 84.9899 77.9243 92.5595C71.2015 100.129 60.0846 101.232 53.0939 95.0235Z" fill="url(#paint4_linear_3_33)"/>
</g>
<g id="Group_7">
<path id="Vector_10" d="M126.379 69.8777C127.715 71.064 129.839 70.8532 131.124 69.407C132.408 67.9607 132.367 65.8266 131.031 64.6404C130.962 64.5789 130.889 64.5235 130.816 64.4695C131.344 63.6214 131.804 62.7475 132.193 61.8548C132.281 61.8777 132.37 61.8994 132.462 61.915C134.261 62.2192 136.08 60.9697 136.525 59.124C136.969 57.2783 135.871 55.5355 134.072 55.2313C133.978 55.2155 133.884 55.2063 133.79 55.1987C133.845 54.2407 133.827 53.2859 133.735 52.3425C133.828 52.3164 133.921 52.2886 134.014 52.2541C135.794 51.5948 136.821 49.6412 136.306 47.8908C135.792 46.1403 133.931 45.2558 132.151 45.9152C132.06 45.949 131.972 45.9883 131.885 46.0287C131.463 45.2163 130.971 44.4368 130.412 43.6967C130.483 43.6284 130.553 43.5588 130.619 43.4838C131.904 42.0376 133.489 40.5054 132.134 39.3402C129.002 36.6448 127.067 37.7418 125.782 39.188C125.716 39.263 125.655 39.3408 125.596 39.4192C124.795 38.9513 123.963 38.5548 123.106 38.2318C123.136 38.1405 123.165 38.0487 123.187 37.954C123.632 36.1085 124.437 35.2577 122.682 34.7608C118.853 33.6771 117.117 35.0068 116.673 36.8524C116.649 36.949 116.633 37.0448 116.618 37.1405C115.67 37.1607 114.72 37.2549 113.775 37.4226C113.757 37.3303 113.736 37.2379 113.709 37.1464C113.195 35.396 111.335 34.5115 109.554 35.1709C107.774 35.8303 106.748 37.7838 107.263 39.5343C107.289 39.624 107.321 39.7098 107.354 39.7948C106.514 40.2863 105.7 40.846 104.921 41.4708C104.858 41.4045 104.795 41.339 104.725 41.2776C103.39 40.0913 101.266 40.3021 99.9812 41.7483C98.6968 43.1946 98.7383 45.3287 100.074 46.5149C100.143 46.5764 100.216 46.6318 100.289 46.6858C99.7606 47.5339 99.3007 48.4077 98.912 49.3005C98.8236 49.2776 98.7346 49.2559 98.6426 49.2402C96.8435 48.9361 95.0248 50.1856 94.5802 52.0313C94.1356 53.877 95.2337 55.6197 97.0327 55.9239C97.1266 55.9398 97.2207 55.949 97.3146 55.9565C97.2596 56.9146 97.2781 57.8693 97.3701 58.8127C97.2768 58.8388 97.1835 58.8667 97.0905 58.9011C95.3103 59.5605 94.2843 61.514 94.7987 63.2645C95.3132 65.015 98.1445 66.5078 99.9247 65.8485C100.016 65.8147 99.1327 65.167 99.2199 65.1266C99.6418 65.939 100.134 66.7184 100.693 67.4586C100.622 67.5269 100.552 67.5964 100.486 67.6714C99.201 69.1176 99.2426 71.2518 100.578 72.438C101.914 73.6243 104.038 73.4135 105.322 71.9673C105.389 71.8923 105.45 71.8145 105.509 71.7361C106.31 72.204 107.142 72.6005 107.999 72.9235C107.969 73.0148 107.94 73.1066 107.918 73.2012C107.473 75.0468 108.571 76.7896 110.37 77.0938C112.169 77.398 113.988 76.1484 114.432 74.3028C114.455 74.2063 114.472 74.1104 114.487 74.0147C115.435 73.9945 116.385 73.9002 117.33 73.7325C117.348 73.8249 117.369 73.9172 117.395 74.0087C117.91 75.7592 119.77 76.6437 121.55 75.9843C123.331 75.3249 124.357 73.3714 123.842 71.6208C123.816 71.5312 123.784 71.4454 123.751 71.3604C124.591 70.8689 125.405 70.3092 126.184 69.6844C126.247 69.7508 126.31 69.8163 126.379 69.8777ZM107.108 65.0856C102.259 60.7785 102.108 53.0301 106.772 47.7791C111.435 42.5279 119.147 41.7627 123.997 46.0697C128.846 50.3767 128.997 58.1251 124.333 63.3762C119.67 68.6274 111.958 69.3926 107.108 65.0856Z" fill="url(#paint5_linear_3_33)"/>
<path id="Vector_11" d="M132.462 61.915C134.261 62.2191 136.08 60.9696 136.525 59.124C136.969 57.2783 135.871 55.5355 134.072 55.2313C133.978 55.2154 133.884 55.2063 133.79 55.1987C133.845 54.2407 133.827 53.286 133.735 52.3425C133.828 52.3165 133.921 52.2886 134.014 52.2541C135.794 51.5947 138.323 49.5366 137.631 47.8482C136.319 44.6437 133.931 45.2558 132.151 45.9151C132.06 45.9489 131.972 45.9882 131.885 46.0286C131.463 45.2162 130.971 44.4368 130.412 43.6966C130.483 43.6283 130.553 43.5587 130.619 43.4839C131.318 42.6967 131.621 41.7063 131.54 40.7754C129.417 42.9513 127.311 45.1431 125.227 47.3555C128.832 51.7959 128.563 58.6132 124.333 63.3762C120.749 67.4125 115.364 68.7948 110.862 67.2643C110.518 67.7414 110.177 68.2224 109.82 68.6906C108.851 69.9612 107.809 71.1813 106.767 72.3993C107.171 72.591 107.582 72.7662 107.999 72.9235C107.969 73.0149 107.94 73.1066 107.917 73.2012C107.473 75.0469 108.179 76.899 111.409 77.5654C113.196 77.934 113.988 76.1485 114.432 74.3028C114.455 74.2064 114.472 74.1105 114.487 74.0148C115.435 73.9947 116.385 73.9003 117.33 73.7327C117.348 73.8251 117.368 73.9173 117.395 74.0088C117.91 75.7593 120.901 77.23 122.681 76.5706C124.462 75.9112 124.357 73.3715 123.842 71.621C123.816 71.5314 123.784 71.4456 123.75 71.3605C124.591 70.869 125.404 70.3093 126.184 69.6846C126.246 69.7508 126.31 69.8164 126.379 69.8777C127.715 71.0641 129.839 70.8532 131.124 69.407C132.408 67.9608 132.366 65.8266 131.031 64.6404C130.962 64.5789 130.889 64.5235 130.816 64.4695C131.344 63.6214 131.804 62.7475 132.193 61.8548C132.281 61.8776 132.37 61.8993 132.462 61.915Z" fill="url(#paint6_linear_3_33)"/>
<path id="Vector_12" d="M127.987 70.5007C129.323 71.687 131.447 71.4761 132.731 70.0299C134.016 68.5836 133.974 66.4495 132.639 65.2632C132.569 65.2018 132.497 65.1464 132.424 65.0923C132.952 64.2443 133.412 63.3705 133.801 62.4776C133.889 62.5006 133.978 62.5223 134.07 62.5379C135.869 62.8421 137.688 61.5925 138.132 59.7468C138.577 57.9011 137.479 56.1583 135.68 55.8541C135.586 55.8383 135.492 55.8291 135.398 55.8215C135.453 54.8635 135.434 53.9088 135.342 52.9653C135.436 52.9392 135.529 52.9114 135.622 52.8769C137.402 52.2176 138.428 50.264 137.914 48.5135C137.399 46.7631 135.539 45.8786 133.759 46.5379C133.668 46.5717 133.58 46.611 133.493 46.6514C133.071 45.839 132.579 45.0597 132.02 44.3194C132.09 44.2512 132.161 44.1816 132.227 44.1067C133.512 42.6604 133.47 40.5263 132.134 39.3401C130.799 38.1538 128.675 38.3646 127.39 39.8108C127.324 39.8858 127.263 39.9636 127.203 40.0421C126.402 39.5741 125.57 39.1776 124.714 38.8546C124.744 38.7633 124.772 38.6715 124.795 38.577C125.24 36.7313 124.142 34.9886 122.343 34.6844C120.544 34.3802 118.725 35.6298 118.28 37.4753C118.257 37.5718 118.241 37.6677 118.226 37.7634C117.278 37.7836 116.328 37.8779 115.383 38.0456C115.364 37.9532 115.344 37.861 115.317 37.7694C114.803 36.019 112.943 35.1345 111.162 35.7939C109.382 36.4533 108.356 38.4068 108.871 40.1573C108.897 40.2469 108.929 40.3328 108.962 40.4178C108.122 40.9093 107.308 41.469 106.528 42.0938C106.466 42.0275 106.402 41.962 106.333 41.9005C104.998 40.7143 102.874 40.9251 101.589 42.3713C100.305 43.8176 100.346 45.9518 101.682 47.138C101.751 47.1995 101.824 47.2549 101.897 47.3089C101.368 48.157 100.909 49.0307 100.52 49.9236C100.432 49.9007 100.343 49.879 100.25 49.8633C98.4515 49.5592 96.6327 50.8087 96.1881 52.6544C95.7436 54.5 96.8416 56.2428 98.6406 56.547C98.7346 56.5629 98.8286 56.5721 98.9225 56.5796C98.8676 57.5376 98.8861 58.4923 98.978 59.4358C98.8848 59.4619 98.7914 59.4896 98.6984 59.5242C96.9182 60.1835 95.8922 62.1371 96.4066 63.8876C96.9211 65.6381 98.7814 66.5225 100.562 65.8632C100.653 65.8294 100.741 65.7901 100.828 65.7497C101.25 66.5622 101.742 67.3416 102.301 68.0817C102.23 68.15 102.16 68.2196 102.093 68.2946C100.809 69.7408 100.85 71.8749 102.186 73.0611C103.522 74.2474 105.646 74.0366 106.93 72.5903C106.997 72.5154 107.058 72.4376 107.117 72.3592C107.918 72.8271 108.75 73.2236 109.607 73.5466C109.577 73.6379 109.548 73.7297 109.525 73.8243C109.081 75.6699 110.179 77.4128 111.978 77.7169C113.777 78.0211 115.596 76.7715 116.04 74.9259C116.063 74.8295 116.08 74.7336 116.095 74.6379C117.043 74.6177 117.993 74.5234 118.938 74.3557C118.956 74.4481 118.977 74.5404 119.003 74.6318C119.518 76.3823 121.378 77.2669 123.158 76.6075C124.939 75.9481 125.965 73.9946 125.45 72.2441C125.424 72.1545 125.392 72.0686 125.358 71.9836C126.199 71.4921 127.012 70.9324 127.792 70.3076C127.854 70.3737 127.918 70.4392 127.987 70.5007ZM108.716 65.7085C103.866 61.4014 103.716 53.6531 108.379 48.402C113.043 43.1509 120.755 42.3856 125.604 46.6927C130.454 50.9998 130.605 58.7481 125.941 63.9992C121.277 69.2503 113.566 70.0155 108.716 65.7085Z" fill="url(#paint7_linear_3_33)"/>
</g>
<g id="Group_8">
<g id="Group_9">
<path id="Vector_13" d="M189.924 175.708L33.3499 174.354V178.359C33.3499 179.446 34.0327 180.37 34.9577 180.535L79.2322 188.42C79.7576 188.514 80.2904 188.539 80.8207 188.494L188.223 179.503C189.181 179.423 189.924 178.496 189.924 177.379L189.924 175.708Z" fill="#BFC8D6"/>
<g id="Group_10">
<path id="Vector_14" d="M132.305 169.29L32.789 176.616C31.0082 176.747 29.5603 175.354 29.5603 173.505V99.3982C29.5603 97.5484 31.0082 96.049 32.789 96.049L36.3096 98.0781L132.305 96.049C133.772 96.049 134.958 97.4045 134.958 99.0766V166.067C134.958 167.739 133.772 169.182 132.305 169.29Z" fill="#BFC8D6"/>
<path id="Vector_15" d="M133.891 169.29L34.3756 176.616C32.5948 176.747 31.147 175.354 31.147 173.505V99.3982C31.147 97.5484 32.5948 96.049 34.3756 96.049H133.891C135.358 96.049 136.544 97.4045 136.544 99.0766V166.067C136.544 167.739 135.358 169.182 133.891 169.29Z" fill="white"/>
<path id="Vector_16" d="M130.791 164.567L38.1029 170.931C36.6537 171.03 35.4761 169.887 35.4761 168.377V103.497C35.4761 101.987 36.6537 100.757 38.1029 100.751L130.791 100.352C132.001 100.346 132.98 101.457 132.98 102.832V161.927C132.98 163.302 132.001 164.484 130.791 164.567Z" fill="#D8DEE8"/>
<g id="Group_11">
<path id="Vector_17" d="M70.9761 106.84L45.9617 106.905L45.958 104.52L70.9725 104.528L70.9761 106.84Z" fill="white"/>
<path id="Vector_18" d="M82.7552 106.15L76.9767 106.16L76.9741 104.53L82.7527 104.532L82.7552 106.15Z" fill="white"/>
<path id="Vector_19" d="M82.7586 108.397L76.9801 108.424L76.9775 106.794L82.7561 106.779L82.7586 108.397Z" fill="white"/>
<path id="Vector_20" d="M111.555 108.263L89.1373 108.367L89.1348 106.763L111.553 106.706L111.555 108.263Z" fill="white"/>
<path id="Vector_21" d="M115.235 110.399L93.0398 110.567L93.0374 108.971L115.233 108.849L115.235 110.399Z" fill="white"/>
<path id="Vector_22" d="M115.238 112.553L93.0433 112.784L93.0408 111.188L115.236 111.003L115.238 112.553Z" fill="white"/>
<path id="Vector_23" d="M115.242 114.706L93.0467 115.002L93.0442 113.406L115.239 113.156L115.242 114.706Z" fill="white"/>
<path id="Vector_24" d="M82.7622 110.644L76.9838 110.688L76.9812 109.058L82.7597 109.027L82.7622 110.644Z" fill="white"/>
<path id="Vector_25" d="M82.7656 112.891L76.9872 112.952L76.9846 111.322L82.7631 111.274L82.7656 112.891Z" fill="white"/>
<path id="Vector_26" d="M82.769 115.139L76.9906 115.215L76.988 113.586L82.7665 113.521L82.769 115.139Z" fill="white"/>
<path id="Vector_27" d="M82.7727 117.386L76.9943 117.479L76.9917 115.85L82.7702 115.768L82.7727 117.386Z" fill="white"/>
<path id="Vector_28" d="M98.2568 117.135L84.0335 117.365L84.031 115.751L98.2543 115.549L98.2568 117.135Z" fill="white"/>
<path id="Vector_29" d="M82.776 119.633L76.9977 119.743L76.9951 118.114L82.7735 118.016L82.776 119.633Z" fill="white"/>
<path id="Vector_30" d="M82.7794 121.88L77.0011 122.007L76.9985 120.378L82.7769 120.263L82.7794 121.88Z" fill="white"/>
<path id="Vector_31" d="M82.7831 124.127L77.0048 124.271L77.0022 122.642L82.7806 122.51L82.7831 124.127Z" fill="white"/>
<path id="Vector_32" d="M104.924 119.21L89.1545 119.511L89.1521 117.907L104.922 117.638L104.924 119.21Z" fill="white"/>
<path id="Vector_33" d="M113.12 121.213L93.0569 121.654L93.0544 120.058L113.117 119.659L113.12 121.213Z" fill="white"/>
<path id="Vector_34" d="M113.123 123.372L93.0604 123.872L93.0579 122.276L113.121 121.818L113.123 123.372Z" fill="white"/>
<path id="Vector_35" d="M82.7865 126.375L77.0082 126.535L77.0056 124.906L82.784 124.757L82.7865 126.375Z" fill="white"/>
<path id="Vector_36" d="M82.7899 128.622L77.0116 128.799L77.009 127.17L82.7874 127.004L82.7899 128.622Z" fill="white"/>
<path id="Vector_37" d="M82.7935 130.869L77.0153 131.063L77.0127 129.433L82.791 129.252L82.7935 130.869Z" fill="white"/>
<path id="Vector_38" d="M82.7969 133.116L77.0187 133.327L77.0161 131.697L82.7944 131.499L82.7969 133.116Z" fill="white"/>
<path id="Vector_39" d="M82.8003 135.363L77.0221 135.591L77.0195 133.961L82.7978 133.746L82.8003 135.363Z" fill="white"/>
<path id="Vector_40" d="M82.8037 137.611L77.0255 137.855L77.0229 136.225L82.8012 135.993L82.8037 137.611Z" fill="white"/>
<path id="Vector_41" d="M82.8073 139.858L77.0292 140.119L77.0266 138.489L82.8048 138.24L82.8073 139.858Z" fill="white"/>
<path id="Vector_42" d="M82.8107 142.105L77.0326 142.382L77.03 140.753L82.8082 140.488L82.8107 142.105Z" fill="white"/>
<path id="Vector_43" d="M82.8141 144.352L77.036 144.646L77.0334 143.017L82.8116 142.735L82.8141 144.352Z" fill="white"/>
<path id="Vector_44" d="M82.8177 146.599L77.0397 146.91L77.0371 145.281L82.8152 144.982L82.8177 146.599Z" fill="white"/>
<path id="Vector_45" d="M82.8211 148.847L77.0431 149.174L77.0405 147.545L82.8186 147.229L82.8211 148.847Z" fill="white"/>
<path id="Vector_46" d="M82.8245 151.094L77.0465 151.438L77.0439 149.809L82.822 149.476L82.8245 151.094Z" fill="white"/>
<path id="Vector_47" d="M82.8281 153.341L77.0502 153.702L77.0476 152.073L82.8257 151.724L82.8281 153.341Z" fill="white"/>
<path id="Vector_48" d="M82.8316 155.588L77.0536 155.966L77.051 154.337L82.829 153.971L82.8316 155.588Z" fill="white"/>
<path id="Vector_49" d="M82.8349 157.835L77.057 158.23L77.0544 156.6L82.8324 156.218L82.8349 157.835Z" fill="white"/>
<path id="Vector_50" d="M82.8386 160.083L77.0607 160.494L77.0581 158.864L82.8361 158.465L82.8386 160.083Z" fill="white"/>
<path id="Vector_51" d="M82.8419 162.33L77.0641 162.758L77.0615 161.128L82.8395 160.712L82.8419 162.33Z" fill="white"/>
<path id="Vector_52" d="M82.8454 164.577L77.0675 165.022L77.0649 163.392L82.8429 162.96L82.8454 164.577Z" fill="white"/>
<path id="Vector_53" d="M99.7365 106.12L83.9769 106.147L83.9744 104.533L99.7341 104.538L99.7365 106.12Z" fill="white"/>
<path id="Vector_54" d="M111.623 151.542L89.2063 152.943L89.2039 151.338L111.62 149.985L111.623 151.542Z" fill="white"/>
<path id="Vector_55" d="M115.302 153.466L93.1084 154.916L93.106 153.32L115.299 151.916L115.302 153.466Z" fill="white"/>
<path id="Vector_56" d="M115.305 155.619L93.1119 157.134L93.1094 155.538L115.303 154.069L115.305 155.619Z" fill="white"/>
<path id="Vector_57" d="M124.872 157.092L103.253 158.63L103.251 157.055L124.869 155.562L124.872 157.092Z" fill="white"/>
<path id="Vector_58" d="M124.875 159.218L103.257 160.818L103.254 159.243L124.873 157.688L124.875 159.218Z" fill="white"/>
<path id="Vector_59" d="M124.878 161.343L103.26 163.006L103.258 161.432L124.876 159.813L124.878 161.343Z" fill="white"/>
<path id="Vector_60" d="M99.8044 150.082L84.0462 151.021L84.0437 149.406L99.802 148.5L99.8044 150.082Z" fill="white"/>
<path id="Vector_61" d="M111.585 127.739L89.1683 128.426L89.1658 126.822L111.583 126.181L111.585 127.739Z" fill="white"/>
<path id="Vector_62" d="M115.265 129.779L93.0708 130.524L93.0684 128.928L115.263 128.229L115.265 129.779Z" fill="white"/>
<path id="Vector_63" d="M115.268 131.933L93.074 132.742L93.0715 131.146L115.266 130.383L115.268 131.933Z" fill="white"/>
<path id="Vector_64" d="M115.271 134.086L93.0774 134.959L93.075 133.363L115.269 132.536L115.271 134.086Z" fill="white"/>
<path id="Vector_65" d="M98.2874 136.957L84.0647 137.557L84.0623 135.943L98.285 135.371L98.2874 136.957Z" fill="white"/>
<path id="Vector_66" d="M104.954 138.858L89.1856 139.57L89.1831 137.966L104.952 137.287L104.954 138.858Z" fill="white"/>
<path id="Vector_67" d="M113.15 140.648L93.0879 141.612L93.0854 140.016L113.148 139.094L113.15 140.648Z" fill="white"/>
<path id="Vector_68" d="M113.153 142.808L93.0914 143.829L93.0889 142.233L113.151 141.253L113.153 142.808Z" fill="white"/>
<path id="Vector_69" d="M117.604 144.728L97.7835 145.794L97.781 144.208L117.602 143.183L117.604 144.728Z" fill="white"/>
<path id="Vector_70" d="M117.608 146.875L97.7871 147.998L97.7847 146.412L117.605 145.329L117.608 146.875Z" fill="white"/>
<path id="Vector_71" d="M99.7671 125.903L84.0081 126.341L84.0056 124.726L99.7647 124.321L99.7671 125.903Z" fill="white"/>
<path id="Vector_72" d="M70.9816 110.452L56.664 110.555L56.6604 108.201L70.9781 108.14L70.9816 110.452Z" fill="white"/>
<path id="Vector_73" d="M52.9607 110.582L55.6573 110.562L55.6537 108.206L52.957 108.217L52.9607 110.582Z" fill="white"/>
<path id="Vector_74" d="M70.9869 113.775L56.6694 113.938L56.6658 111.585L70.9833 111.464L70.9869 113.775Z" fill="white"/>
<path id="Vector_75" d="M52.9661 113.98L55.6627 113.95L55.659 111.593L52.9624 111.616L52.9661 113.98Z" fill="white"/>
<path id="Vector_76" d="M70.992 117.098L56.6745 117.322L56.6709 114.968L70.9884 114.787L70.992 117.098Z" fill="white"/>
<path id="Vector_77" d="M52.9714 117.379L55.668 117.337L55.6643 114.981L52.9678 115.015L52.9714 117.379Z" fill="white"/>
<path id="Vector_78" d="M71.0284 140.686L46.0156 141.824L46.012 139.439L71.0248 138.374L71.0284 140.686Z" fill="white"/>
<path id="Vector_79" d="M71.0339 144.298L56.7172 145.015L56.7136 142.661L71.0303 141.986L71.0339 144.298Z" fill="white"/>
<path id="Vector_80" d="M53.0144 145.2L55.7108 145.065L55.7072 142.709L53.0107 142.836L53.0144 145.2Z" fill="white"/>
<path id="Vector_81" d="M71.0392 147.621L56.7226 148.398L56.719 146.045L71.0356 145.309L71.0392 147.621Z" fill="white"/>
<path id="Vector_82" d="M53.0195 148.599L55.716 148.453L55.7123 146.096L53.0159 146.235L53.0195 148.599Z" fill="white"/>
<path id="Vector_83" d="M71.0442 150.944L56.7277 151.782L56.7241 149.428L71.0407 148.632L71.0442 150.944Z" fill="white"/>
<path id="Vector_84" d="M53.0249 151.998L55.7213 151.841L55.7176 149.484L53.0212 149.634L53.0249 151.998Z" fill="white"/>
<path id="Vector_85" d="M70.9971 120.444L45.9834 120.94L45.9797 118.555L70.9936 118.132L70.9971 120.444Z" fill="white"/>
<path id="Vector_86" d="M71.0028 124.056L56.6856 124.405L56.6819 122.052L70.9992 121.744L71.0028 124.056Z" fill="white"/>
<path id="Vector_87" d="M52.9824 124.496L55.679 124.43L55.6753 122.073L52.9788 122.131L52.9824 124.496Z" fill="white"/>
<path id="Vector_88" d="M71.0078 127.379L56.6906 127.789L56.687 125.435L71.0042 125.067L71.0078 127.379Z" fill="white"/>
<path id="Vector_89" d="M52.9875 127.895L55.6841 127.818L55.6804 125.461L52.9839 125.53L52.9875 127.895Z" fill="white"/>
<path id="Vector_90" d="M71.0181 134.068L56.7012 134.599L56.6975 132.246L71.0145 131.756L71.0181 134.068Z" fill="white"/>
<path id="Vector_91" d="M52.9982 134.737L55.6948 134.637L55.6911 132.28L52.9946 132.372L52.9982 134.737Z" fill="white"/>
<path id="Vector_92" d="M71.0234 137.391L56.7066 137.983L56.7029 135.629L71.0198 135.079L71.0234 137.391Z" fill="white"/>
<path id="Vector_93" d="M53.0034 138.136L55.6999 138.024L55.6962 135.668L52.9998 135.771L53.0034 138.136Z" fill="white"/>
<path id="Vector_94" d="M71.0131 130.702L56.696 131.172L56.6924 128.819L71.0095 128.39L71.0131 130.702Z" fill="white"/>
<path id="Vector_95" d="M52.9929 131.294L55.6894 131.205L55.6858 128.849L52.9893 128.929L52.9929 131.294Z" fill="white"/>
<path id="Vector_96" d="M71.0495 154.266L46.0374 155.835L46.0337 153.45L71.0459 151.954L71.0495 154.266Z" fill="white"/>
<path id="Vector_97" d="M71.055 157.878L56.7387 158.841L56.7351 156.488L71.0515 155.566L71.055 157.878Z" fill="white"/>
<path id="Vector_98" d="M53.0358 159.091L55.7322 158.909L55.7286 156.553L53.0322 156.726L53.0358 159.091Z" fill="white"/>
<path id="Vector_99" d="M71.0601 161.201L56.7439 162.225L56.7402 159.871L71.0565 158.889L71.0601 161.201Z" fill="white"/>
<path id="Vector_100" d="M53.041 162.49L55.7374 162.297L55.7337 159.94L53.0374 160.125L53.041 162.49Z" fill="white"/>
<path id="Vector_101" d="M71.0651 164.524L56.749 165.608L56.7454 163.254L71.0615 162.212L71.0651 164.524Z" fill="white"/>
<path id="Vector_102" d="M53.0463 165.888L55.7427 165.684L55.7391 163.328L53.0427 163.524L53.0463 165.888Z" fill="white"/>
<path id="Vector_103" d="M74.1048 164.305L73.5539 164.347L73.4614 104.529L74.0124 104.529L74.1048 164.305Z" fill="white"/>
</g>
<path id="Vector_104" d="M87.6481 98.0759C87.6481 98.7645 87.1359 99.3243 86.5034 99.3263C85.8701 99.3283 85.3562 98.7705 85.3562 98.0804C85.3562 97.3902 85.8702 96.8304 86.5034 96.8299C87.136 96.8295 87.6481 97.3873 87.6481 98.0759Z" fill="white"/>
<path id="Vector_105" opacity="0.48" d="M34.3753 176.616L133.387 169.327L133.891 169.29C134.564 169.241 135.176 168.908 135.644 168.403C128.519 168.013 124.093 165.485 121.239 162.872C115.506 157.626 116.5 152.451 110.318 149.002C102.607 144.699 96.5436 150.151 90.6922 144.772C87.1448 141.51 88.8864 139.079 84.5213 134.205C79.6866 128.807 76.539 130.622 71.6802 125.763C65.5366 119.62 68.6092 114.841 63.3173 110.431C56.8975 105.08 49.9739 110.033 43.8627 104.901C41.2268 102.688 39.7805 99.4708 39.0253 96.049H34.3757C32.5949 96.049 31.147 97.5484 31.147 99.3982V173.505C31.147 175.354 32.5946 176.747 34.3753 176.616Z" fill="white"/>
</g>
<path id="Vector_106" d="M138.58 168.884L33.3499 176.595L79.2322 184.767C79.7576 184.861 80.2904 184.885 80.8207 184.841L189.924 175.708L140.254 168.936C139.699 168.861 139.138 168.843 138.58 168.884Z" fill="url(#paint8_linear_3_33)"/>
<path id="Vector_107" d="M48.7046 176.661L136.312 170.146L163.426 173.813L76.573 180.777L48.7046 176.661Z" fill="#D8DEE8"/>
</g>
</g>
<g id="Group_12">
<path id="Vector_108" d="M88.4767 135.905C89.2766 136.513 90.4181 136.358 91.0262 135.558L91.2247 135.297C91.8328 134.497 91.6773 133.355 90.8774 132.747L61.5935 110.485C60.7935 109.877 59.6521 110.032 59.044 110.832L58.8455 111.094C58.2374 111.893 58.3928 113.035 59.1928 113.643L88.4767 135.905Z" fill="url(#paint9_linear_3_33)"/>
<path id="Vector_109" d="M84.8664 140.217C85.6663 140.825 86.8078 140.669 87.4159 139.869L94.3591 130.736C94.9672 129.936 94.8117 128.795 94.0118 128.187L92.6981 127.188C91.8981 126.58 90.7567 126.735 90.1486 127.535L83.2053 136.668C82.5972 137.468 82.7527 138.61 83.5527 139.218L84.8664 140.217Z" fill="url(#paint10_linear_3_33)"/>
<path id="Vector_110" d="M85.2541 143.122L113.74 164.776C114.417 165.291 115.222 165.528 116.013 165.512C117.086 165.492 118.146 164.993 118.846 164.072L126.095 154.537C127.311 152.938 126.999 150.654 125.4 149.438L96.9146 127.783C95.7462 126.895 94.2082 126.819 92.9941 127.469C92.545 127.707 92.1364 128.042 91.8088 128.472L84.5599 138.008C83.3441 139.607 83.6548 141.906 85.2541 143.122Z" fill="url(#paint11_linear_3_33)"/>
<g id="Group_13" opacity="0.5">
<path id="Vector_111" d="M119.67 153.624C120.252 154.066 121.081 153.953 121.523 153.372C121.965 152.79 121.852 151.961 121.271 151.519L97.6614 133.571C97.08 133.129 96.2505 133.242 95.8085 133.823C95.3666 134.405 95.4796 135.234 96.061 135.676L119.67 153.624Z" fill="url(#paint12_linear_3_33)"/>
<path id="Vector_112" d="M114.64 160.241C115.221 160.683 116.051 160.57 116.493 159.988C116.935 159.407 116.822 158.577 116.241 158.136L92.6314 140.188C92.05 139.746 91.2205 139.859 90.7785 140.44C90.3365 141.021 90.4496 141.851 91.0309 142.293L114.64 160.241Z" fill="url(#paint13_linear_3_33)"/>
</g>
<path id="Vector_113" d="M54.2712 113.062L48.7197 106.724C48.472 106.442 48.4607 106.026 48.6881 105.727L49.5698 104.567L50.3039 103.602L51.1976 102.426C51.4251 102.127 51.8285 102.026 52.1672 102.19L59.7604 105.845C59.9963 105.958 60.1891 106.144 60.312 106.375L61.3244 108.313C61.6608 108.946 61.5694 109.695 61.1355 110.266L60.3791 111.261L59.6451 112.227L58.9008 113.206C58.4669 113.776 57.7694 114.064 57.0694 113.91L54.9163 113.441C54.6605 113.385 54.4438 113.259 54.2712 113.062Z" fill="url(#paint14_linear_3_33)"/>
<path id="Vector_114" opacity="0.3" d="M116.016 165.508C117.09 165.488 118.146 164.993 118.846 164.072L126.095 154.537C127.311 152.938 127 150.654 125.4 149.438L96.9147 127.783C95.7463 126.895 94.2117 126.821 92.9976 127.472C95.1825 128.586 98.4394 130.112 99.5528 132.455C100.615 134.691 103.697 138.653 108.115 140.107C112.533 141.561 120.784 146.616 121.638 151.255C122.493 155.893 123.045 159.486 116.016 165.508Z" fill="url(#paint15_linear_3_33)"/>
</g>
<g id="Group_14">
<path id="Vector_115" d="M107.121 115.351L95.2847 112.212L92.0854 100.392L104.523 89.2169C105.275 88.4608 103.929 86.6896 102.864 86.6463C97.6677 86.4349 92.4018 88.3739 88.5148 92.4614C81.5157 99.8215 81.6912 111.503 88.8988 118.659C96.2346 125.942 108.086 125.908 115.379 118.578C119.233 114.704 121.698 110.129 121.468 105.068C121.419 104.001 119.473 102.937 118.72 103.694L107.121 115.351Z" fill="url(#paint16_linear_3_33)"/>
<path id="Vector_116" d="M88.906 111.949L45.7699 152.302C43.0021 154.955 42.9607 159.366 45.6783 162.07C48.3951 164.773 52.8044 164.71 55.4432 161.931L95.6057 118.615L88.906 111.949Z" fill="url(#paint17_linear_3_33)"/>
<path id="Vector_117" d="M107.803 116.114L95.967 112.975L92.7677 101.154L104.366 89.4969C105.119 88.7408 104.612 87.4525 103.546 87.4091C98.35 87.1977 93.0841 89.1367 89.1971 93.2242C82.1981 100.584 82.3735 112.266 89.5811 119.422C96.917 126.705 108.768 126.67 116.061 119.341C119.915 115.466 121.725 110.33 121.494 105.27C121.445 104.203 120.155 103.7 119.402 104.457L107.803 116.114Z" fill="url(#paint18_linear_3_33)"/>
<path id="Vector_118" d="M89.5884 112.712L46.4523 153.065C43.6844 155.718 43.643 160.129 46.3607 162.833C49.0775 165.536 53.4868 165.473 56.1256 162.694L96.288 119.378L89.5884 112.712Z" fill="url(#paint19_linear_3_33)"/>
<path id="Vector_119" opacity="0.4" d="M91.714 117.249C92.7989 118.329 92.8033 120.083 91.7239 121.168C90.6444 122.253 88.8898 122.258 87.8049 121.178C86.72 120.099 86.7155 118.344 87.795 117.259C88.8745 116.174 90.6291 116.17 91.714 117.249Z" fill="url(#paint20_linear_3_33)"/>
<path id="Vector_120" opacity="0.4" d="M88.1684 123.137L53.2622 158.22C52.6237 158.862 51.5858 158.864 50.944 158.226C50.3022 157.587 50.2996 156.549 50.9381 155.908L85.8443 120.824L88.1684 123.137Z" fill="url(#paint21_linear_3_33)"/>
</g>
</g>
</g>
</g>
<defs>
<linearGradient id="paint0_linear_3_33" x1="164.324" y1="82.5265" x2="103.062" y2="138.884" gradientUnits="userSpaceOnUse">
<stop stop-color="#E62725"/>
<stop offset="0.9964" stop-color="#F92422"/>
</linearGradient>
<linearGradient id="paint1_linear_3_33" x1="191.994" y1="135.583" x2="132.952" y2="137.231" gradientUnits="userSpaceOnUse">
<stop offset="0.0036" stop-color="#E62725"/>
<stop offset="1" stop-color="#E62725"/>
</linearGradient>
<linearGradient id="paint2_linear_3_33" x1="33.371" y1="72.8089" x2="92.4562" y2="88.2995" gradientUnits="userSpaceOnUse">
<stop stop-color="#AB316D"/>
<stop offset="1" stop-color="#792D3D"/>
</linearGradient>
<linearGradient id="paint3_linear_3_33" x1="56.3234" y1="81.6331" x2="91.7677" y2="90.9257" gradientUnits="userSpaceOnUse">
<stop stop-color="#AB316D"/>
<stop offset="1" stop-color="#792D3D"/>
</linearGradient>
<linearGradient id="paint4_linear_3_33" x1="90.1853" y1="55.5891" x2="-18.4348" y2="167.738" gradientUnits="userSpaceOnUse">
<stop stop-color="#FF9085"/>
<stop offset="1" stop-color="#FB6FBB"/>
</linearGradient>
<linearGradient id="paint5_linear_3_33" x1="95.0339" y1="50.298" x2="136.022" y2="61.044" gradientUnits="userSpaceOnUse">
<stop stop-color="#AB316D"/>
<stop offset="1" stop-color="#792D3D"/>
</linearGradient>
<linearGradient id="paint6_linear_3_33" x1="110.956" y1="56.4195" x2="135.544" y2="62.8658" gradientUnits="userSpaceOnUse">
<stop stop-color="#AB316D"/>
<stop offset="1" stop-color="#792D3D"/>
</linearGradient>
<linearGradient id="paint7_linear_3_33" x1="134.447" y1="38.3524" x2="59.0955" y2="116.152" gradientUnits="userSpaceOnUse">
<stop stop-color="#FF9085"/>
<stop offset="1" stop-color="#FB6FBB"/>
</linearGradient>
<linearGradient id="paint8_linear_3_33" x1="33.3498" y1="176.862" x2="189.924" y2="176.862" gradientUnits="userSpaceOnUse">
<stop offset="0.494" stop-color="#EBEFF2"/>
<stop offset="1" stop-color="white"/>
</linearGradient>
<linearGradient id="paint9_linear_3_33" x1="90.1408" y1="136.566" x2="59.9293" y2="109.824" gradientUnits="userSpaceOnUse">
<stop stop-color="#40447E"/>
<stop offset="0.9964" stop-color="#3C3B6B"/>
</linearGradient>
<linearGradient id="paint10_linear_3_33" x1="77.1329" y1="124.846" x2="89.8048" y2="134.48" gradientUnits="userSpaceOnUse">
<stop offset="0.0036" stop-color="#E62725"/>
<stop offset="1" stop-color="#EA5D5B"/>
</linearGradient>
<linearGradient id="paint11_linear_3_33" x1="111.154" y1="138.608" x2="99.4935" y2="153.946" gradientUnits="userSpaceOnUse">
<stop offset="0.0036" stop-color="#E62725"/>
<stop offset="1" stop-color="#FF0300"/>
</linearGradient>
<linearGradient id="paint12_linear_3_33" x1="125.95" y1="158.897" x2="107.583" y2="143.578" gradientUnits="userSpaceOnUse">
<stop offset="0.0036" stop-color="#E62725"/>
<stop offset="1" stop-color="#FFACAB"/>
</linearGradient>
<linearGradient id="paint13_linear_3_33" x1="120.455" y1="165.102" x2="85.3828" y2="134.058" gradientUnits="userSpaceOnUse">
<stop offset="0.0036" stop-color="#E62725"/>
<stop offset="0.307317" stop-color="#FFA5A4"/>
</linearGradient>
<linearGradient id="paint14_linear_3_33" x1="59.9513" y1="112.027" x2="50.2762" y2="103.464" gradientUnits="userSpaceOnUse">
<stop stop-color="#40447E"/>
<stop offset="0.9964" stop-color="#3C3B6B"/>
</linearGradient>
<linearGradient id="paint15_linear_3_33" x1="122.951" y1="159.451" x2="90.2844" y2="130.537" gradientUnits="userSpaceOnUse">
<stop offset="0.0036" stop-color="#E62725" stop-opacity="0.145098"/>
<stop offset="1" stop-color="#E62725"/>
</linearGradient>
<linearGradient id="paint16_linear_3_33" x1="95.5173" y1="96.0657" x2="135.923" y2="164.033" gradientUnits="userSpaceOnUse">
<stop stop-color="#40447E"/>
<stop offset="0.9964" stop-color="#3C3B6B"/>
</linearGradient>
<linearGradient id="paint17_linear_3_33" x1="57.5954" y1="118.609" x2="98.0123" y2="186.595" gradientUnits="userSpaceOnUse">
<stop stop-color="#40447E"/>
<stop offset="0.9964" stop-color="#3C3B6B"/>
</linearGradient>
<linearGradient id="paint18_linear_3_33" x1="532.509" y1="465.591" x2="489.2" y2="429.599" gradientUnits="userSpaceOnUse">
<stop offset="0.0036" stop-color="#F36F56"/>
<stop offset="1" stop-color="#FFC444"/>
</linearGradient>
<linearGradient id="paint19_linear_3_33" x1="503.786" y1="499.973" x2="460.486" y2="463.988" gradientUnits="userSpaceOnUse">
<stop offset="0.0036" stop-color="#F36F56"/>
<stop offset="1" stop-color="#FFC444"/>
</linearGradient>
<linearGradient id="paint20_linear_3_33" x1="99.7327" y1="130.132" x2="89.77" y2="119.225" gradientUnits="userSpaceOnUse">
<stop offset="0.0036" stop-color="#F36F56"/>
<stop offset="1" stop-color="#FFC444"/>
</linearGradient>
<linearGradient id="paint21_linear_3_33" x1="79.1209" y1="151.153" x2="68.9884" y2="140.061" gradientUnits="userSpaceOnUse">
<stop offset="0.0036" stop-color="#F36F56"/>
<stop offset="1" stop-color="#FFC444"/>
</linearGradient>
<clipPath id="clip0_3_33">
<rect width="220" height="220" fill="white" transform="translate(0.333252 0.40625)"/>
</clipPath>
</defs>
</svg>
